#N struct xy-curve float x float y float w array z xy-point;
#N struct xy-point float x float y;
#N struct seg float x float y float dx float dy float w;
#N struct l-curve-arrow float x float y float z float z2 float z3 float
h;
#N struct circle2 float x float y float h float h2 float mh float mh2
;
#N struct vaxis float x float y float h float h-3;
#N struct xy-plot float x float y float w array z xy-point;
#N struct d-curve-arrow float x float y float z float z2 float z3 float
h;
#N struct circle float x float y float color float h float h2;
#N struct u-curve-arrow float x float y float z float z2 float z3 float
h;
#N struct r-curve-arrow float x float y float z float z2 float z3 float
h;
#N struct r-arrow float x float y float z;
#N struct l-arrow float x float y float z;
#N struct u-arrow float x float y float z;
#N struct d-arrow float x float y float z;
#N struct v-seg float x float y float z float w;
#N struct h-seg float x float y float z float w;
#N struct rect float x float y float w float h;
#N struct haxis float x float y float w float w-3;
#N struct frame float x float y float w float h;
#N struct y-plot float x float y float w array z y-point;
#N struct y-point float y;
#N canvas 282 272 365 370 10;
#N canvas 462 58 544 370 haxis 0;
#X obj 68 101 drawpolygon 0 1 0 0 w 0;
#X obj 68 77 struct haxis float x float y float w float w-3;
#X obj 69 147 drawpolygon 0 1 w 0 w-3 3 w 0 w-3 -3;
#X obj 166 222 pointer;
#X obj 52 255 append haxis x y w w-3;
#X msg 166 198 traverse pd-test \, bang;
#X msg 52 222 50 50 50 47;
#X obj 69 124 drawpolygon 0 1 0 0 3 3 0 0 3 -3;
#X obj 450 212 r this-ptr;
#X obj 364 243 append haxis x y w w-3;
#X obj 365 268 s this-ptr;
#X obj 362 213 r add-haxis;
#X connect 3 0 4 4;
#X connect 5 0 3 0;
#X connect 6 0 4 0;
#X connect 8 0 9 4;
#X connect 9 0 10 0;
#X connect 11 0 9 0;
#X restore 25 45 pd haxis;
#N canvas 642 388 502 383 test 0;
#X scalar xy-curve 256 139 1 \; -1.95774 -12.3607 \; -0.492465 -6.25737
\; 0 0 \; -0.492465 6.25737 \; -1.95774 12.3607 \; \;;
#X scalar xy-curve 320 140 1 \; -78.0422 12.3608 \; -79.5075 6.25747
\; -80 0.000101407 \; -79.5076 -6.25727 \; -78.0423 -12.3606 \; \;
;
#X scalar xy-curve 202 98 1 \; -3.91547 -24.7213 \; -0.984931 -12.5147
\; 0 0 \; -0.984931 12.5147 \; -3.91547 24.7213 \; \;;
#X scalar xy-curve 334 101 1 \; -156.084 24.7215 \; -159.015 12.5149
\; -160 0.000202815 \; -159.015 -12.5145 \; -156.085 -24.7211 \; \;
;
#X scalar xy-curve 439 304 1 \; -234.127 37.0823 \; -238.523 18.7724
\; -240 0.000304222 \; -238.523 -18.7718 \; -234.127 -37.0817 \; \;
;
#X scalar xy-curve 221 306 1 \; -5.87321 -37.082 \; -1.4774 -18.7721
\; 0 0 \; -1.4774 18.7721 \; -5.87321 37.082 \; \;;
#X scalar seg 103 162 20 50 1 \;;
#X scalar l-curve-arrow 414 150 20 40 60 8 \;;
#X scalar circle2 66 330 50 35 -50 -35 \;;
#X scalar vaxis 329 151 150 147 \;;
#X scalar xy-curve 142 40 1 \; 0 0 \; -0.492465 6.25737 \; -1.95774
12.3607 \; -4.35973 18.1596 \; -7.63931 23.5114 \; -11.7157 28.2843
\; \;;
#X scalar xy-curve 51 89 1 \; 0 0 \; 2 10 \; 4 20 \; 13 18 \; 2 12
\; 11 10 \; 0 4 \; \;;
#X scalar xy-curve 43 112 1 \; 0 -14 \; 0 -14 \; -9 0 \; -9 -18 \;
0 -4 \; \;;
#X scalar xy-plot 24 220 1 \; 0 0 \; 21 -8 \; -4 16 \; 6 26 \; 16 16
\; \;;
#X scalar d-curve-arrow 474 214 20 40 59 -21 \;;
#X scalar circle 323 80 999 20 -20 \;;
#X scalar circle 301 49 999 3 -3 \;;
#X scalar circle 336 49 0 3 -3 \;;
#X scalar u-curve-arrow 448 228 -28 -37 -60 -24 \;;
#X scalar r-curve-arrow 475 131 -36 -46 -81 -23 \;;
#X scalar r-arrow 251 203 -20 \;;
#X scalar l-arrow 168 214 50 \;;
#X scalar u-arrow 342 286 -50 \;;
#X scalar d-arrow 344 181 40 \;;
#X scalar v-seg 220 139 50 1 \;;
#X scalar h-seg 304 49 29 1 \;;
#X scalar rect 227 139 2 50 \;;
#X scalar vaxis 315 211 50 47 \;;
#X scalar haxis 141 244 150 147 \;;
#X scalar frame 259 151 50 20 \;;
#X scalar r-arrow 270 214 -40 \;;
#X scalar h-seg 162 146 50 1 \;;
#X scalar y-plot 76 270 1 \; 0 \; 3.53413 \; 5 \; 3.53975 \; 0.00796274
\; -3.52849 \; -4.99999 \; -3.54537 \; -0.0159255 \; 3.52284 \; 4.99996
\; 3.55098 \; 0.0238893 \; -3.51719 \; -4.99992 \; -3.55658 \; -0.0318508
\; 3.51152 \; 4.99987 \; 3.56218 \; 0.0398121 \; -3.50585 \; -4.99981
\; -3.56776 \; -0.0477781 \; 3.50017 \; 4.99973 \; 3.57333 \; 0.0557345
\; -3.49448 \; -4.99964 \; -3.5789 \; -0.0637002 \; 3.48878 \; 4.99954
\; 3.58446 \; 0.0716658 \; -3.48307 \; -4.99943 \; -3.59 \; -0.0796217
\; 3.47735 \; 4.9993 \; 3.59554 \; 0.0875869 \; -3.47163 \; -4.99916
\; -3.60107 \; -0.0955519 \; 3.46589 \; \;;
#X scalar u-curve-arrow 410 217 -12 -8 -18 -6 \;;
#X text 180 330 comment;
#X scalar h-seg 161 136 50 3 \;;
#X scalar d-curve-arrow 449 173 11 23 27 17 \;;
#X scalar xy-plot 315 317 1 \; 2 3 \; 2 6 \; -2 9 \; -15 9 \; -19 15
\; -23 9 \; -32 9 \; -38 6 \; -38 3 \; \;;
#X scalar xy-plot 354 278 1 \; 1 2 \; 6 2 \; 9 -2 \; 9 -15 \; 22 -19
\; 10 -23 \; 10 -32 \; 7 -38 \; 3 -38 \; \;;
#X scalar xy-plot 424 310 1 \; 2 -3 \; 2 -6 \; -2 -9 \; -15 -9 \; -19
-15 \; -23 -9 \; -32 -9 \; -38 -6 \; -38 -3 \; \;;
#X scalar haxis 189 231 53 50 \;;
#X scalar xy-curve 38 74 1 \; 0 -2 \; 2 0 \; 4 2 \; 6 0 \; 8 -2 \;
10 0 \; 12 2 \; \;;
#X scalar v-seg 41 67 7 1 \;;
#X scalar v-seg 46 67 5 1 \;;
#X scalar h-seg 25 47 7 1 \;;
#X scalar xy-curve 35 51 1 \; 0 -2 \; 2 0 \; 4 2 \; 6 0 \; 8 -2 \;
10 0 \; 12 2 \; \;;
#X scalar v-seg 41 43 7 1 \;;
#X scalar xy-plot 409 280 1 \; -1 0 \; -6 0 \; -9 -4 \; -9 -17 \; -22
-21 \; -10 -25 \; -10 -34 \; -7 -40 \; -3 -40 \; \;;
#X scalar xy-curve 48 166 1 \; -2 -2 \; -6 -7 \; -3 -10 \; 4 -10 \;
3 0 \; 2 -10 \; 14 -10 \; 10 0 \; \;;
#X coords 0 383 1 382 0 0 0;
#X restore 124 8 pd test;
#N canvas 544 312 591 287 vaxis 0;
#X obj 244 227 pointer;
#X msg 246 198 traverse pd-test \, bang;
#X msg 130 227 50 50 50 47;
#X obj 68 76 struct vaxis float x float y float h float h-3;
#X obj 64 98 drawpolygon 0 1 0 0 0 h;
#X obj 71 125 drawpolygon 0 1 0 0 3 3 0 0 -3 3;
#X obj 69 147 drawpolygon 0 1 0 h 3 h-3 0 h -3 h-3;
#X obj 130 260 append vaxis x y h h-3;
#X obj 506 196 r this-ptr;
#X obj 421 252 s this-ptr;
#X obj 418 197 r add-vaxis;
#X obj 420 227 append vaxis x y h h-3;
#X msg 405 22 \; start pd-test \; add-vaxis 50 50 150 147;
#X connect 0 0 7 4;
#X connect 1 0 0 0;
#X connect 2 0 7 0;
#X connect 8 0 11 4;
#X connect 10 0 11 0;
#X connect 11 0 9 0;
#X restore 25 65 pd vaxis;
#N canvas 108 533 578 290 rect 0;
#X obj 44 76 filledpolygon 0 0 0 0 0 0 h w h w 0 0 0;
#X obj 43 53 struct rect float x float y float w float h;
#X obj 465 99 r this-ptr;
#X obj 380 155 s this-ptr;
#X obj 377 100 r add-rect;
#X obj 379 130 append rect x y w h;
#X msg 378 42 \; start pd-test \; add-rect 50 50 20 30;
#X connect 2 0 5 4;
#X connect 4 0 5 0;
#X connect 5 0 3 0;
#X restore 25 85 pd rect;
#N canvas 604 293 450 300 control 0;
#X obj 127 36 r start;
#X obj 125 121 pointer;
#X obj 128 66 symbol;
#X obj 127 145 s this-ptr;
#X msg 126 94 traverse \$1 \, bang;
#X connect 0 0 2 0;
#X connect 1 0 3 0;
#X connect 2 0 4 0;
#X connect 4 0 1 0;
#X restore 125 41 pd control;
#N canvas 457 224 643 316 frame 0;
#X obj 134 219 pointer;
#X msg 134 188 traverse pd-test \, bang;
#X obj 432 201 r this-ptr;
#X obj 347 257 s this-ptr;
#X obj 69 76 struct frame float x float y float w float h;
#X obj 344 202 r add-frame;
#X obj 346 232 append frame x y w h;
#X msg 46 219 50 50 50 20;
#X obj 46 253 append frame x y w h;
#X obj 69 99 drawpolygon 0 1 0 0 0 h w h w 0 0 0;
#X connect 0 0 8 4;
#X connect 1 0 0 0;
#X connect 2 0 6 4;
#X connect 5 0 6 0;
#X connect 6 0 3 0;
#X connect 7 0 8 0;
#X restore 23 127 pd frame;
#N canvas 457 224 465 196 y-point 0;
#X obj 69 76 struct y-point float y;
#X restore 100 147 pd y-point;
#N canvas 278 388 735 439 y-plot 0;
#X obj 338 182 r this-ptr;
#X obj 232 284 s this-ptr;
#X obj 72 62 struct y-plot float x float y float w array z y-point
;
#X obj 73 92 plot z 0 1 0 0 w;
#X obj 232 230 t p p;
#X obj 564 179 r this-ptr;
#X obj 454 174 unpack;
#X obj 493 207 element y-plot z;
#X obj 454 203 swap;
#X obj 240 118 r add-y-plot;
#X obj 454 150 r y-plot-point;
#X obj 241 207 append y-plot x y w;
#X obj 236 143 unpack 0 0 0 0;
#X text 262 94 add-y-plot size x y w;
#X floatatom 147 226 5 0 0 0 - - -;
#X obj 202 256 setsize y-plot z;
#X obj 454 232 set y-point y;
#X msg 418 301 \; add-y-plot 200 30 30 1;
#X text 441 118 y-plot-point index y;
#X connect 0 0 11 3;
#X connect 4 0 1 0;
#X connect 4 1 15 1;
#X connect 5 0 7 1;
#X connect 6 0 8 0;
#X connect 6 1 8 1;
#X connect 7 0 16 1;
#X connect 8 0 16 0;
#X connect 8 1 7 0;
#X connect 9 0 12 0;
#X connect 10 0 6 0;
#X connect 11 0 4 0;
#X connect 12 0 15 0;
#X connect 12 1 11 0;
#X connect 12 2 11 1;
#X connect 12 3 11 2;
#X connect 14 0 15 0;
#X restore 23 147 pd y-plot;
#N canvas 605 207 544 370 d-arrow 0;
#X obj 166 222 pointer;
#X msg 166 198 traverse pd-test \, bang;
#X obj 459 213 r this-ptr;
#X obj 365 268 s this-ptr;
#X msg 52 222 50 50 50;
#X obj 362 213 r add-d-arrow;
#X obj 364 242 append d-arrow x y z;
#X obj 52 255 append d-arrow x y z;
#X obj 68 77 struct d-arrow float x float y float z;
#X obj 70 102 drawpolygon 0 1 0 0 0 z;
#X obj 69 124 drawpolygon 0 1 0 0 3 3 0 0 -3 3;
#X connect 0 0 7 3;
#X connect 1 0 0 0;
#X connect 2 0 6 3;
#X connect 4 0 7 0;
#X connect 5 0 6 0;
#X connect 6 0 3 0;
#X restore 23 250 pd d-arrow;
#N canvas 462 58 544 370 l-arrow 0;
#X obj 166 222 pointer;
#X msg 166 198 traverse pd-test \, bang;
#X obj 69 124 drawpolygon 0 1 0 0 3 3 0 0 3 -3;
#X obj 459 213 r this-ptr;
#X obj 365 268 s this-ptr;
#X msg 52 222 50 50 50;
#X obj 68 101 drawpolygon 0 1 0 0 z 0;
#X obj 68 77 struct l-arrow float x float y float z;
#X obj 52 255 append l-arrow x y z;
#X obj 362 213 r add-l-arrow;
#X obj 364 242 append l-arrow x y z;
#X connect 0 0 8 3;
#X connect 1 0 0 0;
#X connect 3 0 10 3;
#X connect 5 0 8 0;
#X connect 9 0 10 0;
#X connect 10 0 4 0;
#X restore 23 210 pd l-arrow;
#N canvas 101 508 757 424 osc-icon 0;
#X obj 178 159 until;
#X obj 180 134 t b b;
#X obj 190 204 f;
#X msg 227 131 0;
#X obj 264 204 + 1;
#X obj 264 231 sel 50;
#X obj 48 257 print;
#X obj 188 243 t f f;
#X obj 188 293 pack;
#X msg 184 323 \; y-plot-point \$1 \$2 \;;
#X obj 210 271 expr 25 * sin($f1*4*3.14/50);
#X obj 180 107 r add-pts1;
#X text 221 386 sinusoid;
#X obj 421 169 until;
#X obj 423 144 t b b;
#X obj 433 214 f;
#X msg 470 141 0;
#X obj 507 214 + 1;
#X obj 507 241 sel 50;
#X obj 431 253 t f f;
#X obj 431 303 pack;
#X msg 427 333 \; y-plot-point \$1 \$2 \;;
#X obj 423 117 r add-pts2;
#X text 464 396 sawtooth;
#X obj 444 276 expr 45 * ($f1/20 - int($f1/20));
#X msg 31 22 \; pd-tmp clear;
#X msg 177 9 \; start pd-tmp \; add-frame 30 30 60 60 \; add-y-plot
50 35 60 1 \; add-pts1 bang;
#X msg 420 19 \; start pd-tmp \; add-frame 30 30 60 60 \; add-y-plot
50 35 35 1 \; add-pts2 bang;
#X msg 20 73 \; start pd-tmp \; add-d-arrow 70 40 40;
#X connect 0 0 2 0;
#X connect 1 0 0 0;
#X connect 1 1 3 0;
#X connect 2 0 4 0;
#X connect 2 0 7 0;
#X connect 3 0 2 1;
#X connect 4 0 5 0;
#X connect 4 0 2 1;
#X connect 5 0 0 1;
#X connect 7 0 8 0;
#X connect 8 0 9 0;
#X connect 11 0 1 0;
#X connect 13 0 15 0;
#X connect 14 0 13 0;
#X connect 14 1 16 0;
#X connect 15 0 17 0;
#X connect 15 0 19 0;
#X connect 16 0 15 1;
#X connect 17 0 18 0;
#X connect 17 0 15 1;
#X connect 18 0 13 1;
#X connect 19 0 20 0;
#X connect 20 0 21 0;
#X connect 22 0 14 0;
#X restore 271 19 pd osc-icon;
#N canvas 126 348 1234 484 table-icon 0;
#X obj 26 210 until;
#X obj 28 185 t b b;
#X obj 52 239 f;
#X msg 75 182 0;
#X obj 107 238 + 1;
#X obj 275 28 print;
#X obj 54 282 t f f;
#X obj 54 360 pack;
#X obj 92 336 expr 25 * $f1*$f1*$f1*$f1;
#X obj 54 337 + 32;
#X obj 54 306 * 3;
#X obj 107 265 sel 15;
#X obj 92 312 / 14;
#X obj 28 161 bng 15 250 50 0 empty empty empty 0 -6 0 8 -262144 -1
-1;
#X obj 261 210 until;
#X obj 263 185 t b b;
#X obj 287 239 f;
#X msg 310 182 0;
#X obj 342 238 + 1;
#X obj 289 282 t f f;
#X obj 289 360 pack;
#X obj 289 337 + 32;
#X obj 289 306 * 3;
#X obj 263 161 bng 15 250 50 0 empty empty empty 0 -6 0 8 -262144 -1
-1;
#X obj 342 265 sel 22;
#X obj 332 304 / 22;
#X obj 332 328 expr 25 * cos($f1*10);
#X text 69 424 fig 1.06 -- fourth power;
#X text 299 424 fig 2.01 -- sine wave;
#X obj 485 202 until;
#X obj 511 231 f;
#X msg 534 174 0;
#X obj 566 230 + 1;
#X obj 513 274 t f f;
#X obj 511 366 pack;
#X obj 511 343 + 32;
#X obj 513 298 * 3;
#X obj 494 99 bng 15 250 50 0 empty empty empty 0 -6 0 8 -262144 -1
-1;
#X obj 566 257 sel 22;
#X obj 494 123 t b b b;
#X text 522 425 fig 2.03 -- whatever wavetable;
#X obj 556 296 / 6;
#X obj 485 322 expr 10 * (cos($f1) + cos($f1*2+34) + cos($f1*3.7+56))
;
#X msg 54 385 \; add-rect \$1 35 1 \$2 \;;
#X msg 289 385 \; add-rect \$1 60 1 \$2 \;;
#X msg 511 391 \; add-rect \$1 60 1 \$2 \;;
#X obj 870 198 until;
#X obj 896 227 f;
#X msg 919 170 0;
#X obj 951 226 + 1;
#X obj 898 270 t f f;
#X obj 896 362 pack;
#X obj 896 339 + 32;
#X obj 898 294 * 3;
#X obj 879 95 bng 15 250 50 0 empty empty empty 0 -6 0 8 -262144 -1
-1;
#X obj 951 253 sel 22;
#X obj 879 119 t b b b;
#X obj 941 292 / 6;
#X msg 896 387 \; add-rect \$1 60 1 \$2 \;;
#X obj 870 318 expr 10 * (cos($f1) + cos($f1*3+34) + cos($f1*5+56))
;
#X text 907 420 fig 2.04 -- another wavetable;
#X msg 43 6 \; start pd-tmp \; add-d-arrow 70 40 40;
#X msg 24 69 \; pd-tmp clear;
#X msg 25 107 \; start pd-tmp \; add-frame 30 30 60 60;
#X msg 257 101 \; start pd-tmp \; add-frame 30 30 80 60;
#X msg 560 121 \; start pd-tmp \; add-frame 25 30 80 60;
#X msg 945 117 \; start pd-tmp \; add-frame 25 30 80 60;
#X connect 0 0 2 0;
#X connect 1 0 0 0;
#X connect 1 1 3 0;
#X connect 2 0 4 0;
#X connect 2 0 6 0;
#X connect 3 0 2 1;
#X connect 4 0 2 1;
#X connect 4 0 11 0;
#X connect 6 0 10 0;
#X connect 6 1 12 0;
#X connect 7 0 43 0;
#X connect 9 0 7 0;
#X connect 10 0 9 0;
#X connect 11 0 0 1;
#X connect 13 0 1 0;
#X connect 14 0 16 0;
#X connect 15 0 14 0;
#X connect 15 1 17 0;
#X connect 16 0 18 0;
#X connect 16 0 19 0;
#X connect 17 0 16 1;
#X connect 18 0 16 1;
#X connect 18 0 24 0;
#X connect 19 0 22 0;
#X connect 19 1 25 0;
#X connect 20 0 44 0;
#X connect 21 0 20 0;
#X connect 22 0 21 0;
#X connect 23 0 15 0;
#X connect 24 0 14 1;
#X connect 29 0 30 0;
#X connect 30 0 32 0;
#X connect 30 0 33 0;
#X connect 31 0 30 1;
#X connect 32 0 30 1;
#X connect 32 0 38 0;
#X connect 33 0 36 0;
#X connect 33 1 41 0;
#X connect 34 0 45 0;
#X connect 35 0 34 0;
#X connect 36 0 35 0;
#X connect 37 0 39 0;
#X connect 38 0 29 1;
#X connect 39 0 29 0;
#X connect 39 1 31 0;
#X connect 39 2 65 0;
#X connect 46 0 47 0;
#X connect 47 0 49 0;
#X connect 47 0 50 0;
#X connect 48 0 47 1;
#X connect 49 0 47 1;
#X connect 49 0 55 0;
#X connect 50 0 53 0;
#X connect 50 1 57 0;
#X connect 51 0 58 0;
#X connect 52 0 51 0;
#X connect 53 0 52 0;
#X connect 54 0 56 0;
#X connect 55 0 46 1;
#X connect 56 0 46 0;
#X connect 56 1 48 0;
#X connect 56 2 66 0;
#X restore 263 42 pd table-icon;
#N canvas 495 181 438 203 envelope-icon 0;
#X msg 168 19 \; start pd-fig \; add-frame 30 30 60 60 \; add-xy-plot
5 35 60 1 \; xy-plot-point 0 0 0 \; xy-plot-point 1 10 5 \; xy-plot-point
2 20 0 \; xy-plot-point 3 30 5 \; xy-plot-point 4 40 0 \;;
#X restore 242 66 pd envelope-icon;
#N canvas 473 104 761 324 xy-plot 0;
#X obj 216 196 r this-ptr;
#X obj 110 298 s this-ptr;
#X obj 23 49 plot z 0 1 0 0 w;
#X obj 110 244 t p p;
#X obj 442 208 r this-ptr;
#X obj 332 225 swap;
#X obj 114 157 unpack 0 0 0 0;
#X floatatom 25 240 5 0 0 0 - - -;
#X obj 22 19 struct xy-plot float x float y float w array z xy-point
;
#X obj 118 132 r add-xy-plot;
#X obj 119 221 append xy-plot x y w;
#X obj 80 270 setsize xy-plot z;
#X obj 332 179 r xy-plot-point;
#X obj 402 269 element xy-plot z;
#X text 114 113 add-xy-plot size x y w;
#X obj 332 203 unpack 0 0 0;
#X obj 329 294 set xy-point x y;
#X text 345 157 xy-plot-point n x y;
#X msg 553 22 \; add-xy-plot 5 40 40 1 \; xy-plot-point 0 0 0 \; xy-plot-point
1 10 10 \; xy-plot-point 2 20 0 \; xy-plot-point 3 30 10 \; xy-plot-point
4 40 0 \;;
#X text 563 4 brace;
#X text 563 139 simple;
#X msg 553 157 \; add-xy-plot 3 40 40 1 \; xy-plot-point 0 0 0 \; xy-plot-point
1 10 10 \; xy-plot-point 2 20 0 \;;
#X msg 443 18 \; start pd-test \;;
#X connect 0 0 10 3;
#X connect 3 0 1 0;
#X connect 3 1 11 1;
#X connect 4 0 13 1;
#X connect 5 0 16 0;
#X connect 5 1 13 0;
#X connect 6 0 11 0;
#X connect 6 1 10 0;
#X connect 6 2 10 1;
#X connect 6 3 10 2;
#X connect 7 0 11 0;
#X connect 9 0 6 0;
#X connect 10 0 3 0;
#X connect 12 0 15 0;
#X connect 13 0 16 2;
#X connect 15 0 5 0;
#X connect 15 1 5 1;
#X connect 15 2 16 1;
#X restore 23 167 pd xy-plot;
#N canvas 583 51 544 370 h-seg 0;
#X obj 166 222 pointer;
#X msg 166 198 traverse pd-test \, bang;
#X obj 459 213 r this-ptr;
#X obj 365 268 s this-ptr;
#X obj 362 213 r add-h-seg;
#X obj 68 77 struct h-seg float x float y float z float w;
#X obj 71 101 drawpolygon 0 w 0 0 z 0;
#X msg 52 222 50 50 50 1;
#X obj 364 242 append h-seg x y z w;
#X obj 52 254 append h-seg x y z w;
#X connect 0 0 9 4;
#X connect 1 0 0 0;
#X connect 2 0 8 4;
#X connect 4 0 8 0;
#X connect 7 0 9 0;
#X connect 8 0 3 0;
#X restore 25 5 pd h-seg;
#N canvas 583 51 544 370 v-seg 0;
#X obj 166 222 pointer;
#X msg 166 198 traverse pd-test \, bang;
#X obj 459 213 r this-ptr;
#X obj 365 268 s this-ptr;
#X obj 68 77 struct v-seg float x float y float z float w;
#X obj 68 101 drawpolygon 0 w 0 0 0 z;
#X msg 52 222 50 50 50 1;
#X obj 52 255 append v-seg x y z w;
#X obj 364 242 append v-seg x y z w;
#X obj 363 170 r add-v-seg;
#X connect 0 0 7 4;
#X connect 1 0 0 0;
#X connect 2 0 8 4;
#X connect 6 0 7 0;
#X connect 8 0 3 0;
#X connect 9 0 8 0;
#X restore 25 25 pd v-seg;
#N canvas 462 58 544 370 r-arrow 0;
#X obj 166 222 pointer;
#X msg 166 198 traverse pd-test \, bang;
#X obj 459 213 r this-ptr;
#X obj 365 268 s this-ptr;
#X obj 68 101 drawpolygon 0 1 0 0 z 0;
#X obj 68 77 struct r-arrow float x float y float z;
#X obj 69 124 drawpolygon 0 1 0 0 -3 3 0 0 -3 -3;
#X obj 52 255 append r-arrow x y z;
#X msg 52 222 50 50 -40;
#X obj 362 213 r add-r-arrow;
#X obj 364 242 append r-arrow x y z;
#X connect 0 0 7 3;
#X connect 1 0 0 0;
#X connect 2 0 10 3;
#X connect 8 0 7 0;
#X connect 9 0 10 0;
#X connect 10 0 3 0;
#X restore 23 230 pd r-arrow;
#N canvas 457 224 465 196 xy-point 0;
#X obj 69 76 struct xy-point float x float y;
#X restore 100 167 pd xy-point;
#N canvas 605 207 544 370 u-arrow 0;
#X obj 166 222 pointer;
#X msg 166 198 traverse pd-test \, bang;
#X obj 459 213 r this-ptr;
#X obj 365 268 s this-ptr;
#X obj 70 102 drawpolygon 0 1 0 0 0 z;
#X obj 68 77 struct u-arrow float x float y float z;
#X obj 362 213 r add-u-arrow;
#X obj 52 255 append u-arrow x y z;
#X obj 364 242 append u-arrow x y z;
#X obj 69 124 drawpolygon 0 1 0 0 3 -3 0 0 -3 -3;
#X msg 52 222 50 100 -50;
#X connect 0 0 7 3;
#X connect 1 0 0 0;
#X connect 2 0 8 3;
#X connect 6 0 8 0;
#X connect 8 0 3 0;
#X connect 10 0 7 0;
#X restore 23 270 pd u-arrow;
#N canvas 336 247 1177 537 tab-icon-2 0;
#X obj 24 217 until;
#X obj 50 246 f;
#X msg 64 187 0;
#X obj 105 245 + 1;
#X obj 52 289 t f f;
#X obj 50 381 pack;
#X obj 50 358 + 32;
#X obj 52 313 * 3;
#X obj 23 80 bng 15 250 50 0 empty empty empty 0 -6 0 8 -262144 -1
-1;
#X obj 105 272 sel 22;
#X obj 23 104 t b b b;
#X msg 50 406 \; add-rect \$1 60 1 \$2 \;;
#X obj 95 311 / 22;
#X text 61 440 fig 2.07 -- half-sine envelope;
#X text 22 13 more vavetable icons;
#X obj 88 379 expr 25 * sin(3.14159 * $f1);
#X obj 285 212 until;
#X obj 287 187 t b b;
#X obj 311 241 f;
#X msg 334 184 0;
#X obj 366 240 + 1;
#X obj 313 284 t f f;
#X obj 313 362 pack;
#X obj 313 339 + 32;
#X obj 313 308 * 3;
#X msg 313 387 \; add-rect \$1 60 1 \$2 \;;
#X text 323 426 fig 6.08 - cosine wave;
#X obj 288 163 bng 15 250 50 0 empty empty empty 0 -6 0 8 -262144 -1
-1;
#X msg 285 61 \; pd-tmp clear;
#X obj 366 267 sel 21;
#X obj 567 220 until;
#X obj 569 195 t b b;
#X obj 593 249 f;
#X msg 616 192 0;
#X obj 648 248 + 1;
#X obj 595 292 t f f;
#X obj 595 370 pack;
#X obj 595 347 + 32;
#X obj 595 316 * 3;
#X msg 595 395 \; add-rect \$1 60 1 \$2 \;;
#X obj 570 171 bng 15 250 50 0 empty empty empty 0 -6 0 8 -262144 -1
-1;
#X msg 567 69 \; pd-tmp clear;
#X obj 648 275 sel 21;
#X text 605 434 fig 6.08 - sine wave;
#X msg 563 111 \; start pd-tmp \; add-frame 23 30 80 60;
#X msg 281 103 \; start pd-tmp \; add-frame 23 30 80 60;
#X obj 351 347 expr 25 * cos(2*3.14159*$f1/20);
#X obj 636 353 expr 25 * sin(2*3.14159*$f1/20);
#X obj 850 222 until;
#X obj 850 197 t b b;
#X obj 876 251 f;
#X msg 899 194 0;
#X obj 931 250 + 1;
#X obj 878 294 t f f;
#X obj 878 372 pack;
#X obj 878 349 + 32;
#X obj 878 318 * 3;
#X msg 878 397 \; add-rect \$1 60 1 \$2 \;;
#X obj 850 174 bng 15 250 50 0 empty empty empty 0 -6 0 8 -262144 -1
-1;
#X msg 850 71 \; pd-tmp clear;
#X obj 931 277 sel 21;
#X text 888 436 fig 6.08 - sine wave;
#X msg 846 113 \; start pd-tmp \; add-frame 23 30 80 60;
#X obj 918 316 expr ($f1-10)/10;
#X obj 919 355 expr 25 * exp(-2 * $f1*$f1);
#X msg 67 132 \; start pd-tmp \; add-frame 25 30 80 60;
#X connect 0 0 1 0;
#X connect 1 0 3 0;
#X connect 1 0 4 0;
#X connect 2 0 1 1;
#X connect 3 0 1 1;
#X connect 3 0 9 0;
#X connect 4 0 7 0;
#X connect 4 1 12 0;
#X connect 5 0 11 0;
#X connect 6 0 5 0;
#X connect 7 0 6 0;
#X connect 8 0 10 0;
#X connect 9 0 0 1;
#X connect 10 0 0 0;
#X connect 10 1 2 0;
#X connect 10 2 65 0;
#X connect 16 0 18 0;
#X connect 17 0 16 0;
#X connect 17 1 19 0;
#X connect 18 0 20 0;
#X connect 18 0 21 0;
#X connect 19 0 18 1;
#X connect 20 0 18 1;
#X connect 20 0 29 0;
#X connect 21 0 24 0;
#X connect 22 0 25 0;
#X connect 23 0 22 0;
#X connect 24 0 23 0;
#X connect 27 0 17 0;
#X connect 29 0 16 1;
#X connect 30 0 32 0;
#X connect 31 0 30 0;
#X connect 31 1 33 0;
#X connect 32 0 34 0;
#X connect 32 0 35 0;
#X connect 33 0 32 1;
#X connect 34 0 32 1;
#X connect 34 0 42 0;
#X connect 35 0 38 0;
#X connect 36 0 39 0;
#X connect 37 0 36 0;
#X connect 38 0 37 0;
#X connect 40 0 31 0;
#X connect 42 0 30 1;
#X connect 48 0 50 0;
#X connect 49 0 48 0;
#X connect 49 1 51 0;
#X connect 50 0 52 0;
#X connect 50 0 53 0;
#X connect 51 0 50 1;
#X connect 52 0 50 1;
#X connect 52 0 60 0;
#X connect 53 0 56 0;
#X connect 54 0 57 0;
#X connect 55 0 54 0;
#X connect 56 0 55 0;
#X connect 58 0 49 0;
#X connect 60 0 48 1;
#X restore 262 90 pd tab-icon-2;
#N canvas 459 39 544 370 r-curve-arrow 0;
#X obj 212 197 pointer;
#X msg 212 173 traverse pd-test \, bang;
#X obj 69 124 drawpolygon 0 1 0 0 -3 3 0 0 -3 -3;
#X obj 73 52 struct r-curve-arrow float x float y float z float z2
float z3 float h;
#X msg 52 222 50 50 -20 -40 -60 8;
#X obj 52 255 append r-curve-arrow x y z z2 z3 h;
#X obj 68 101 drawcurve 0 1 0 0 z 0 z2 h z3 h;
#X connect 0 0 5 6;
#X connect 1 0 0 0;
#X connect 4 0 5 0;
#X restore 102 229 pd r-curve-arrow;
#N canvas 75 368 544 370 u-curve-arrow 0;
#X obj 206 223 pointer;
#X msg 206 199 traverse pd-test \, bang;
#X msg 52 222 50 50 -20 -40 -60 8;
#X obj 73 52 struct u-curve-arrow float x float y float z float z2
float z3 float h;
#X obj 52 255 append u-curve-arrow x y z z2 z3 h;
#X obj 69 124 drawpolygon 0 1 0 0 -3 -3 0 0 3 -3;
#X obj 69 99 drawcurve 0 1 0 0 0 z h z2 h z3;
#X connect 0 0 4 6;
#X connect 1 0 0 0;
#X connect 2 0 4 0;
#X restore 104 270 pd u-curve-arrow;
#N canvas 509 390 514 307 circle 0;
#X obj 243 227 pointer;
#X msg 243 203 traverse pd-test \, bang;
#X obj 73 52 struct circle float x float y float color float h float
h2;
#X obj 52 255 append circle x y color h h2;
#X msg 45 165 50 50 999 20 -20;
#X obj 73 76 filledcurve color 0 1 h 0 0 h h2 0 0 h2;
#X msg 62 199 60 50 999 3 -3;
#X msg 77 225 70 50 0 3 -3;
#X connect 0 0 3 5;
#X connect 1 0 0 0;
#X connect 4 0 3 0;
#X connect 6 0 3 0;
#X connect 7 0 3 0;
#X restore 24 290 pd circle;
#N canvas 307 207 873 416 sine-array 0;
#X msg 31 22 \; pd-fig clear;
#X obj 178 159 until;
#X obj 180 134 t b b;
#X obj 190 204 f;
#X msg 227 131 0;
#X obj 264 204 + 1;
#X obj 264 231 sel 50;
#X obj 48 257 print;
#X obj 188 243 t f f;
#X obj 188 293 pack;
#X msg 184 323 \; y-plot-point \$1 \$2 \;;
#X msg 20 73 \; start pd-fig \; add-d-arrow 70 40 40;
#X obj 210 271 expr 5 * sin($f1*2*3.14/8);
#X obj 173 22 bng 15 250 50 0 empty empty empty 0 -6 0 8 -262144 -1
-1;
#X msg 202 72 \; start pd-fig \; add-y-plot 50 35 60 1;
#X obj 178 49 t b b;
#X text 228 368 5 cycles;
#X obj 429 191 until;
#X obj 429 164 t b b;
#X obj 429 223 f;
#X msg 489 176 0;
#X obj 482 210 + 1;
#X obj 428 247 t f f;
#X obj 428 297 pack;
#X msg 428 320 \; y-plot-point \$1 \$2 \;;
#X obj 424 63 bng 15 250 50 0 empty empty empty 0 -6 0 8 -262144 -1
-1;
#X obj 429 90 t b b;
#X text 466 358 1 cycle;
#X obj 662 184 until;
#X obj 662 157 t b b;
#X obj 662 216 f;
#X msg 722 169 0;
#X obj 715 203 + 1;
#X obj 661 240 t f f;
#X obj 661 290 pack;
#X msg 661 313 \; y-plot-point \$1 \$2 \;;
#X obj 657 34 bng 15 250 50 0 empty empty empty 0 -6 0 8 -262144 -1
-1;
#X obj 656 54 t b b;
#X text 699 351 n cycles;
#X floatatom 741 26 5 0 0 0 - - -;
#X msg 686 106 \; start pd-fig \; add-y-plot \$1 35 60 1;
#X obj 743 66 + 1;
#X obj 741 44 * 8;
#X obj 683 268 expr 5 * sin($f1*2*3.14/8);
#X obj 686 78 f 16;
#X obj 715 230 sel 16;
#X obj 482 237 sel 9;
#X msg 453 113 \; start pd-fig \; add-y-plot 9 35 60 1;
#X obj 450 275 expr 5 * sin($f1*2*3.14/8);
#X connect 1 0 3 0;
#X connect 2 0 1 0;
#X connect 2 1 4 0;
#X connect 3 0 5 0;
#X connect 3 0 8 0;
#X connect 4 0 3 1;
#X connect 5 0 6 0;
#X connect 5 0 3 1;
#X connect 6 0 1 1;
#X connect 8 0 9 0;
#X connect 9 0 10 0;
#X connect 13 0 15 0;
#X connect 15 0 2 0;
#X connect 15 1 14 0;
#X connect 17 0 19 0;
#X connect 18 0 17 0;
#X connect 18 1 20 0;
#X connect 19 0 21 0;
#X connect 19 0 22 0;
#X connect 20 0 19 1;
#X connect 21 0 19 1;
#X connect 21 0 46 0;
#X connect 22 0 23 0;
#X connect 23 0 24 0;
#X connect 25 0 26 0;
#X connect 26 0 18 0;
#X connect 26 1 47 0;
#X connect 28 0 30 0;
#X connect 29 0 28 0;
#X connect 29 1 31 0;
#X connect 30 0 32 0;
#X connect 30 0 33 0;
#X connect 31 0 30 1;
#X connect 32 0 30 1;
#X connect 32 0 45 0;
#X connect 33 0 34 0;
#X connect 34 0 35 0;
#X connect 36 0 37 0;
#X connect 37 0 29 0;
#X connect 37 1 44 0;
#X connect 39 0 42 0;
#X connect 41 0 44 1;
#X connect 41 0 45 1;
#X connect 42 0 41 0;
#X connect 44 0 40 0;
#X connect 45 0 28 1;
#X connect 46 0 17 1;
#X restore 272 149 pd sine-array;
#N canvas 364 415 544 370 d-curve-arrow 0;
#X obj 206 223 pointer;
#X msg 206 199 traverse pd-test \, bang;
#X obj 69 99 drawcurve 0 1 0 0 0 z h z2 h z3;
#X obj 73 52 struct d-curve-arrow float x float y float z float z2
float z3 float h;
#X obj 69 124 drawpolygon 0 1 0 0 -3 3 0 0 3 3;
#X msg 52 222 50 50 20 40 60 8;
#X obj 52 255 append d-curve-arrow x y z z2 z3 h;
#X connect 0 0 6 6;
#X connect 1 0 0 0;
#X connect 5 0 6 0;
#X restore 103 250 pd d-curve-arrow;
#N canvas 569 120 450 300 tmp 0;
#X scalar haxis 9 43 200 197 \;;
#X scalar haxis 9 43 200 197 \;;
#X scalar vaxis 20 16 250 247 \;;
#X scalar vaxis 20 16 250 247 \;;
#X scalar y-plot 21 33 1 \; 132 \; 132 \; 132 \; 132 \; 132 \; 132
\; 132 \; 132 \; 132 \; 132 \; 132 \; 132 \; 132 \; 132 \; 132 \; 132
\; 132 \; 132 \; 132 \; 132 \; 132 \; 132 \; 132 \; 132 \; 132 \; 132
\; 132 \; 132 \; 132 \; 132 \; 132 \; 132 \; 132 \; 132 \; 132 \; 132
\; 132 \; 132 \; 132 \; 132 \; 132 \; 132 \; 132 \; 132 \; 132 \; 132
\; 132 \; 132 \; 132 \; 132 \; 132 \; 132 \; 132 \; 132 \; 132 \; 132
\; 132 \; 132 \; 132 \; 132 \; 132 \; 132 \; 132 \; 132 \; 132 \; 132
\; 132 \; 132 \; 132 \; 132 \; 132 \; 132 \; 132 \; 132 \; 132 \; 132
\; 132 \; 132 \; 132 \; 132 \; 132 \; 132 \; 132 \; 132 \; 132 \; 132
\; 132 \; 132 \; 132 \; 132 \; 132 \; 132 \; 132 \; 132 \; 132 \; 132
\; 132 \; 132 \; 132 \; 132 \; 132 \; 132 \; 132 \; 132 \; 132 \; 132
\; 132 \; 132 \; 132 \; 132 \; 132 \; 132 \; 132 \; 132 \; 132 \; 132
\; 132 \; 132 \; 132 \; 132 \; 132 \; 132 \; 132 \; 132 \; 132 \; 132
\; 132 \; 132 \; 132 \; 132 \; 132 \; 132 \; 132 \; 132 \; 132 \; 132
\; 132 \; 132 \; 132 \; 132 \; 132 \; 132 \; 132 \; 132 \; 132 \; 132
\; 132 \; 132 \; 132 \; 132 \; 132 \; 132 \; 132 \; 132 \; 132 \; 132
\; 132 \; 132 \; 132 \; 132 \; 132 \; 132 \; 132 \; 132 \; 132 \; 132
\; 132 \; 132 \; 132 \; 132 \; 132 \; 132 \; 132 \; 132 \; 132 \; 132
\; 132 \; 132 \; 132 \; 132 \; 132 \; 132 \; 132 \; 132 \; 132 \; 132
\; 132 \; 132 \; 132 \; 132 \; 132 \; 132 \; 132 \; 132 \; 132 \; 132
\; 132 \; 132 \; 132 \; 132 \; \;;
#X scalar y-plot 21 33 1 \; 88 \; 88 \; 88 \; 88 \; 88 \; 88 \; 88
\; 88 \; 88 \; 88 \; 88 \; 88 \; 88 \; 88 \; 88 \; 88 \; 88 \; 88 \;
88 \; 88 \; 88 \; 88 \; 88 \; 88 \; 88 \; 88 \; 88 \; 88 \; 88 \; 88
\; 88 \; 88 \; 88 \; 88 \; 88 \; 88 \; 88 \; 88 \; 88 \; 88 \; 88 \;
88 \; 88 \; 88 \; 88 \; 88 \; 88 \; 88 \; 88 \; 88 \; 88 \; 88 \; 88
\; 88 \; 88 \; 88 \; 88 \; 88 \; 88 \; 88 \; 88 \; 87.8493 \; 87.7359
\; 87.5848 \; 87.4714 \; 87.358 \; 87.2068 \; 87.0935 \; 86.9423 \;
86.8289 \; 86.6777 \; 86.5644 \; 86.4132 \; 86.2998 \; 86.1864 \; 86.0353
\; 85.9219 \; 85.7707 \; 85.6573 \; 85.5062 \; 85.3928 \; 85.2416 \;
85.1282 \; 85.0148 \; 84.8637 \; 84.7503 \; 84.5991 \; 84.4857 \; 84.3346
\; 84.2212 \; 84.07 \; 83.9566 \; 83.8433 \; 83.6921 \; 83.5787 \;
83.4275 \; 83.3142 \; 83.163 \; 83.0496 \; 82.8984 \; 82.7851 \; 82.6717
\; 82.5205 \; 82.4071 \; 82.256 \; 82.1426 \; 81.9914 \; 81.878 \;
81.7269 \; 81.6135 \; 81.5001 \; 81.3489 \; 81.2355 \; 81.0844 \; 80.971
\; 80.8198 \; 80.7065 \; 80.5553 \; 80.4419 \; 80.3285 \; 80.1774 \;
80.064 \; 79.9128 \; 79.7994 \; 79.6482 \; 79.5349 \; 79.3837 \; 79.2703
\; 79.1191 \; 79.0058 \; 78.8924 \; 78.7412 \; 78.6278 \; 78.4767 \;
78.3633 \; 78.2121 \; 78.0987 \; 77.9476 \; 77.8342 \; 77.7208 \; 77.5696
\; 77.4563 \; 77.3051 \; 77.1917 \; 77.0405 \; 76.9272 \; 76.776 \;
76.6626 \; 76.5492 \; 76.3981 \; 76.2847 \; 76.1335 \; 76.0201 \; 75.8689
\; 75.7556 \; 75.6044 \; 75.491 \; 75.3776 \; 75.2265 \; 75.1131 \;
75 \; 75 \; 75 \; 75 \; 75 \; 75 \; 75 \; 75 \; 75 \; 75 \; 75 \; 75
\; 75 \; 75 \; 75 \; 75 \; 75 \; 75 \; 75 \; 75 \; 75 \; 75 \; 75 \;
75 \; 75 \; 75 \; 75 \; 75 \; 75 \; 75 \; 75 \; 75 \; 75 \; 75 \; 75
\; 75 \; 75 \; 75 \; 75 \; 75 \; \;;
#X scalar y-plot 21 33 1 \; 176 \; 176 \; 176 \; 176 \; 176 \; 176
\; 176 \; 176 \; 176 \; 176 \; 176 \; 176 \; 176 \; 176 \; 176 \; 176
\; 176 \; 176 \; 176 \; 176 \; 176 \; 176 \; 176 \; 176 \; 176 \; 176
\; 176 \; 176 \; 176 \; 176 \; 176 \; 176 \; 176 \; 176 \; 176 \; 176
\; 176 \; 176 \; 176 \; 176 \; 176 \; 176 \; 176 \; 176 \; 176 \; 176
\; 176 \; 176 \; 176 \; 176 \; 176 \; 176 \; 176 \; 176 \; 176 \; 176
\; 176 \; 176 \; 176 \; 176 \; 176 \; 175.699 \; 175.472 \; 175.17
\; 174.943 \; 174.716 \; 174.414 \; 174.187 \; 173.885 \; 173.658 \;
173.355 \; 173.129 \; 172.826 \; 172.6 \; 172.373 \; 172.071 \; 171.844
\; 171.541 \; 171.315 \; 171.012 \; 170.786 \; 170.483 \; 170.256 \;
170.03 \; 169.727 \; 169.501 \; 169.198 \; 168.971 \; 168.669 \; 168.442
\; 168.14 \; 167.913 \; 167.687 \; 167.384 \; 167.157 \; 166.855 \;
166.628 \; 166.326 \; 166.099 \; 165.797 \; 165.57 \; 165.343 \; 165.041
\; 164.814 \; 164.512 \; 164.285 \; 163.983 \; 163.756 \; 163.454 \;
163.227 \; 163 \; 162.698 \; 162.471 \; 162.169 \; 161.942 \; 161.64
\; 161.413 \; 161.111 \; 160.884 \; 160.657 \; 160.355 \; 160.128 \;
159.826 \; 159.599 \; 159.296 \; 159.07 \; 158.767 \; 158.541 \; 158.238
\; 158.012 \; 157.785 \; 157.482 \; 157.256 \; 156.953 \; 156.727 \;
156.424 \; 156.197 \; 155.895 \; 155.668 \; 155.442 \; 155.139 \; 154.913
\; 154.61 \; 154.383 \; 154.081 \; 153.854 \; 153.552 \; 153.325 \;
153.098 \; 152.796 \; 152.569 \; 152.267 \; 152.04 \; 151.738 \; 151.511
\; 151.209 \; 150.982 \; 150.755 \; 150.453 \; 150.226 \; 150 \; 150
\; 150 \; 150 \; 150 \; 150 \; 150 \; 150 \; 150 \; 150 \; 150 \; 150
\; 150 \; 150 \; 150 \; 150 \; 150 \; 150 \; 150 \; 150 \; 150 \; 150
\; 150 \; 150 \; 150 \; 150 \; 150 \; 150 \; 150 \; 150 \; 150 \; 150
\; 150 \; 150 \; 150 \; 150 \; 150 \; 150 \; 150 \; 150 \; \;;
#X scalar y-plot 21 33 1 \; 44 \; 44 \; 44 \; 44 \; 44 \; 44 \; 44
\; 44 \; 44 \; 44 \; 44 \; 44 \; 44 \; 44 \; 44 \; 44 \; 44 \; 44 \;
44 \; 44 \; 44 \; 44 \; 44 \; 44 \; 44 \; 44 \; 44 \; 44 \; 44 \; 44
\; 44 \; 44 \; 44 \; 44 \; 44 \; 44 \; 44 \; 44 \; 44 \; 44 \; 44 \;
44 \; 44 \; 44 \; 44 \; 44 \; 44 \; 44 \; 44 \; 44 \; 44 \; 44 \; 44
\; 44 \; 44 \; 44 \; 44 \; 44 \; 44 \; 44 \; 44 \; 44 \; 44 \; 44 \;
44 \; 44 \; 44 \; 44 \; 44 \; 44 \; 44 \; 44 \; 44 \; 44 \; 44 \; 44
\; 44 \; 44 \; 44 \; 44 \; 44 \; 44 \; 44 \; 44 \; 44 \; 44 \; 44 \;
44 \; 44 \; 44 \; 44 \; 44 \; 44 \; 44 \; 44 \; 44 \; 44 \; 44 \; 44
\; 44 \; 44 \; 44 \; 44 \; 44 \; 44 \; 44 \; 44 \; 44 \; 44 \; 44 \;
44 \; 44 \; 44 \; 44 \; 44 \; 44 \; 44 \; 44 \; 44 \; 44 \; 44 \; 44
\; 44 \; 44 \; 44 \; 44 \; 44 \; 44 \; 44 \; 44 \; 44 \; 44 \; 44 \;
44 \; 44 \; 44 \; 44 \; 44 \; 44 \; 44 \; 44 \; 44 \; 44 \; 44 \; 44
\; 44 \; 44 \; 44 \; 44 \; 44 \; 44 \; 44 \; 44 \; 44 \; 44 \; 44 \;
44 \; 44 \; 44 \; 44 \; 44 \; 44 \; 44 \; 44 \; 44 \; 44 \; 44 \; 44
\; 44 \; 44 \; 44 \; 44 \; 44 \; 44 \; 44 \; 44 \; 44 \; 44 \; 44 \;
44 \; 44 \; 44 \; 44 \; 44 \; 44 \; 44 \; 44 \; 44 \; 44 \; 44 \; 44
\; 44 \; 44 \; 44 \; 44 \; 44 \; 44 \; 44 \; 44 \; 44 \; \;;
#X text 159 262 time;
#X text 24 45 frequency;
#X coords 0 300 1 299 0 0 0;
#X restore 125 61 pd tmp;
#N canvas 533 82 746 462 xy-curve 0;
#X obj 207 173 r this-ptr;
#X obj 90 274 s this-ptr;
#X obj 90 220 t p p;
#X obj 462 226 r this-ptr;
#X obj 332 225 swap;
#X obj 94 133 unpack 0 0 0 0;
#X floatatom 23 215 5 0 0 0 - - -;
#X obj 332 203 unpack 0 0 0;
#X obj 329 294 set xy-point x y;
#X text 345 157 xy-plot-point n x y;
#X obj 23 49 plot curve z 0 1 0 0 w;
#X obj 24 20 struct xy-curve float x float y float w array z xy-point
;
#X obj 98 108 r add-xy-curve;
#X obj 411 256 element xy-curve z;
#X text 94 89 add-xy-curve size x y w;
#X obj 332 179 r xy-curve-point;
#X obj 60 245 setsize xy-curve z;
#X obj 99 197 append xy-curve x y w;
#N canvas 372 64 758 418 arcs 0;
#X obj 65 147 unpack;
#X obj 13 184 until;
#X obj 74 212 f;
#X obj 105 213 + 1;
#X msg 136 165 0;
#X msg 207 195 0;
#X obj 49 238 sel;
#X obj 89 239 t f f;
#X obj 57 113 t b l l;
#X msg 138 105 \; start pd-test \; add-xy-curve \$1 120 40 1;
#X obj 28 298 pack 0 0 0;
#X msg 29 327 \; xy-curve-point \$1 \$2 \$3;
#X obj 94 269 expr $f2 * (cos(2*3.14159/40*$f1) - 1);
#X obj 106 299 expr $f2 * sin(2*3.14159/40*$f1);
#X text 47 58 make an arc: npoints \, radius;
#X msg 57 90 6 30;
#X obj 375 186 until;
#X obj 436 214 f;
#X obj 467 215 + 1;
#X msg 569 197 0;
#X obj 411 240 sel;
#X obj 451 241 t f f;
#X obj 419 115 t b l l;
#X obj 393 319 pack 0 0 0;
#X msg 394 348 \; xy-curve-point \$1 \$2 \$3;
#X obj 459 290 expr $f2 * (cos(2*3.14159/40*$f1) - 1);
#X obj 471 320 expr $f2 * sin(2*3.14159/40*$f1);
#X text 483 83 make an arc from nonzero angle;
#X obj 427 149 unpack 0 0 0;
#X msg 537 159 0;
#X msg 507 236 \$3;
#X obj 477 261 +;
#X msg 411 28 21 120 -10;
#X msg 533 109 \; start pd-test \; add-xy-curve \$1 320 140 1;
#X msg 520 27 5 80 18;
#X msg 519 55 5 80 -2;
#X msg 583 22 5 40 18;
#X msg 582 50 5 40 -2;
#X connect 0 0 6 1;
#X connect 1 0 2 0;
#X connect 2 0 3 0;
#X connect 2 0 6 0;
#X connect 3 0 2 1;
#X connect 4 0 2 1;
#X connect 6 0 1 1;
#X connect 6 1 7 0;
#X connect 7 0 10 0;
#X connect 8 0 1 0;
#X connect 8 1 0 0;
#X connect 8 2 4 0;
#X connect 8 2 9 0;
#X connect 10 0 11 0;
#X connect 15 0 8 0;
#X connect 16 0 17 0;
#X connect 17 0 18 0;
#X connect 17 0 20 0;
#X connect 18 0 17 1;
#X connect 20 0 16 1;
#X connect 20 1 21 0;
#X connect 21 0 23 0;
#X connect 21 1 31 0;
#X connect 22 0 16 0;
#X connect 22 1 28 0;
#X connect 22 2 29 0;
#X connect 22 2 33 0;
#X connect 22 2 30 0;
#X connect 23 0 24 0;
#X connect 28 0 20 1;
#X connect 29 0 17 1;
#X connect 30 0 31 1;
#X connect 32 0 22 0;
#X connect 34 0 22 0;
#X connect 35 0 22 0;
#X connect 36 0 22 0;
#X connect 37 0 22 0;
#X restore 36 350 pd arcs;
#N canvas 0 0 308 499 greek-letters 0;
#X text 45 12 alpha;
#X msg 34 31 \; add-xy-curve 5 40 40 1 \; xy-curve-point 0 0 -14 \;
xy-curve-point 1 0 -14 \; xy-curve-point 2 -9 0 \; xy-curve-point 3
-9 -18 \; xy-curve-point 4 0 -4 \;;
#X msg 37 154 \; add-xy-curve 7 40 40 1 \; xy-curve-point 0 0 0 \;
xy-curve-point 1 2 10 \; xy-curve-point 2 4 20 \; xy-curve-point 3
13 18 \; xy-curve-point 4 2 12 \; xy-curve-point 5 11 10 \; xy-curve-point
6 0 4 \;;
#X text 37 138 beta;
#X text 39 288 omega;
#X msg 39 303 \; add-xy-curve 8 60 40 1 \; xy-curve-point 0 0 0 \;
xy-curve-point 1 -5 -15 \; xy-curve-point 2 0 -20 \; xy-curve-point
3 20 -20 \; xy-curve-point 4 20 -5 \; xy-curve-point 5 20 -20 \; xy-curve-point
6 40 -15 \; xy-curve-point 7 35 0 \;;
#X restore 52 388 pd greek-letters;
#X text 467 14 alpha;
#X msg 456 33 \; add-xy-curve 5 40 40 1 \; xy-curve-point 0 0 -14 \;
xy-curve-point 1 0 -14 \; xy-curve-point 2 -9 0 \; xy-curve-point 3
-9 -18 \; xy-curve-point 4 0 -4 \;;
#X connect 0 0 17 3;
#X connect 2 0 1 0;
#X connect 2 1 16 1;
#X connect 3 0 13 1;
#X connect 4 0 8 0;
#X connect 4 1 13 0;
#X connect 5 0 16 0;
#X connect 5 1 17 0;
#X connect 5 2 17 1;
#X connect 5 3 17 2;
#X connect 6 0 16 0;
#X connect 7 0 4 0;
#X connect 7 1 4 1;
#X connect 7 2 8 1;
#X connect 12 0 5 0;
#X connect 13 0 8 2;
#X connect 15 0 7 0;
#X connect 17 0 2 0;
#X restore 23 188 pd xy-curve;
#N canvas 408 298 450 300 icons 0;
#X scalar frame 240 141 80 60 \;;
#X scalar rect 247 171 1 25 \;;
#X scalar rect 250 171 1 22.4615 \;;
#X scalar rect 253 171 1 15.3616 \;;
#X scalar rect 256 171 1 5.14204 \;;
#X scalar rect 259 171 1 -6.12175 \;;
#X scalar rect 262 171 1 -16.1423 \;;
#X scalar rect 265 171 1 -22.8848 \;;
#X scalar rect 268 171 1 -24.9798 \;;
#X scalar rect 271 171 1 -22.0019 \;;
#X scalar rect 274 171 1 -14.556 \;;
#X scalar rect 277 171 1 -4.15401 \;;
#X scalar rect 280 171 1 7.09156 \;;
#X scalar rect 283 171 1 16.897 \;;
#X scalar rect 286 171 1 23.271 \;;
#X scalar rect 289 171 1 24.9191 \;;
#X scalar rect 292 171 1 21.5068 \;;
#X scalar rect 295 171 1 13.7268 \;;
#X scalar rect 298 171 1 3.15926 \;;
#X scalar rect 301 171 1 -8.04988 \;;
#X scalar rect 304 171 1 -17.6243 \;;
#X scalar rect 307 171 1 -23.6195 \;;
#X scalar rect 310 171 1 -24.8182 \;;
#X scalar frame 25 140 80 60 \;;
#X scalar rect 34 170 1 25 \;;
#X scalar rect 37 170 1 23.7764 \;;
#X scalar rect 40 170 1 20.2254 \;;
#X scalar rect 43 170 1 14.6946 \;;
#X scalar rect 46 170 1 7.72545 \;;
#X scalar rect 49 170 1 3.16898e-05 \;;
#X scalar rect 52 170 1 -7.72539 \;;
#X scalar rect 55 170 1 -14.6946 \;;
#X scalar rect 58 170 1 -20.2254 \;;
#X scalar rect 61 170 1 -23.7764 \;;
#X scalar rect 64 170 1 -25 \;;
#X scalar rect 67 170 1 -23.7764 \;;
#X scalar rect 70 170 1 -20.2255 \;;
#X scalar rect 73 170 1 -14.6947 \;;
#X scalar rect 76 170 1 -7.72551 \;;
#X scalar rect 79 170 1 -9.50693e-05 \;;
#X scalar rect 82 170 1 7.72533 \;;
#X scalar rect 85 170 1 14.6945 \;;
#X scalar rect 88 170 1 20.2254 \;;
#X scalar rect 91 170 1 23.7764 \;;
#X scalar rect 94 170 1 25 \;;
#X scalar frame 126 141 80 60 \;;
#X scalar rect 135 171 1 0 \;;
#X scalar rect 138 171 1 7.72542 \;;
#X scalar rect 141 171 1 14.6946 \;;
#X scalar rect 144 171 1 20.2254 \;;
#X scalar rect 147 171 1 23.7764 \;;
#X scalar rect 150 171 1 25 \;;
#X scalar rect 153 171 1 23.7764 \;;
#X scalar rect 156 171 1 20.2255 \;;
#X scalar rect 159 171 1 14.6947 \;;
#X scalar rect 162 171 1 7.72548 \;;
#X scalar rect 165 171 1 6.33795e-05 \;;
#X scalar rect 168 171 1 -7.72536 \;;
#X scalar rect 171 171 1 -14.6946 \;;
#X scalar rect 174 171 1 -20.2254 \;;
#X scalar rect 177 171 1 -23.7764 \;;
#X scalar rect 180 171 1 -25 \;;
#X scalar rect 183 171 1 -23.7764 \;;
#X scalar rect 186 171 1 -20.2255 \;;
#X scalar rect 189 171 1 -14.6947 \;;
#X scalar rect 192 171 1 -7.72554 \;;
#X scalar rect 195 171 1 -0.000126759 \;;
#X scalar frame 132 231 35 19 \;;
#X text 136 54 WRAP;
#X scalar frame 247 224 60 60 \;;
#X scalar y-plot 252 254 1 \; 0 \; 6.21416 \; 12.0383 \; 17.1067 \;
21.1014 \; 23.7715 \; 24.9495 \; 24.5613 \; 22.6315 \; 19.2811 \; 14.7204
\; 9.23568 \; 3.17125 \; -3.09224 \; -9.16164 \; -14.656 \; -19.2303
\; -22.5976 \; -24.5464 \; -24.9544 \; -23.796 \; -21.144 \; -17.1647
\; -12.108 \; -6.29126 \; -0.0796273 \; 6.137 \; 11.9684 \; 17.0486
\; 21.0586 \; 23.7467 \; 24.9443 \; 24.5761 \; 22.6652 \; 19.3317 \;
14.7847 \; 9.30962 \; 3.25022 \; -3.01323 \; -9.08751 \; -14.5914 \;
-19.1793 \; -22.5634 \; -24.5312 \; -24.9591 \; -23.8203 \; -21.1863
\; -17.2225 \; -12.1776 \; -6.36831 \; \;;
#X scalar frame 318 223 60 60 \;;
#X scalar y-plot 323 228 1 \; 0 \; 2.25 \; 4.5 \; 6.75 \; 9 \; 11.25
\; 13.5 \; 15.75 \; 18 \; 20.25 \; 22.5 \; 24.75 \; 27 \; 29.25 \;
31.5 \; 33.75 \; 36 \; 38.25 \; 40.5 \; 42.75 \; 0 \; 2.25 \; 4.5 \;
6.75 \; 9 \; 11.25 \; 13.5 \; 15.75 \; 18 \; 20.25 \; 22.5 \; 24.75
\; 27 \; 29.25 \; 31.5 \; 33.75 \; 36 \; 38.25 \; 40.5 \; 42.75 \;
0 \; 2.25 \; 4.5 \; 6.75 \; 9 \; 11.25 \; 13.5 \; 15.75 \; 18 \; 20.25
\; \;;
#X scalar frame 29 46 56 41 \;;
#X scalar xy-plot 35 60 1 \; 1 -4 \; 10 20 \; 17 8 \; 33 8 \; 41 -4
\; \;;
#X coords 0 300 1 299 0 0 0;
#X restore 125 81 pd icons;
#N canvas 489 404 643 316 seg 0;
#X obj 171 204 pointer;
#X obj 46 252 append rect x y w h;
#X msg 46 219 50 50 50 2;
#X obj 502 209 r this-ptr;
#X obj 347 257 s this-ptr;
#X obj 68 76 struct seg float x float y float dx float dy float w;
#X obj 69 99 drawpolygon 0 w 0 0 dx dy;
#X obj 347 203 r add-seg;
#X msg 499 93 \; start pd-test;
#X msg 416 139 \; add-seg 100 100 20 50 1;
#X obj 346 232 append seg x y dx dy w;
#X connect 0 0 1 4;
#X connect 2 0 1 0;
#X connect 3 0 10 5;
#X connect 7 0 10 0;
#X connect 10 0 4 0;
#X restore 23 105 pd seg;
#N canvas 370 503 514 307 circle2 0;
#X obj 41 22 struct circle2 float x float y float h float h2 float
mh float mh2;
#X obj 52 255 append circle2 x y h h2 mh mh2;
#X obj 15 81 filledcurve 999 0 1 h 0 h2 h2 0 h mh2 h2 mh 0 mh2 mh2
0 mh h2 mh2;
#X msg 52 197 50 50 50 35 -50 -35;
#X msg 35 167 70 70 70 50 -70 -50;
#X obj 60 226 r add-circle2;
#X obj 257 231 r this-ptr;
#X msg 347 253 \; start pd-test;
#X msg 222 150 \; add-circle2 100 100 70 50 -70 -50;
#X connect 3 0 1 0;
#X connect 4 0 1 0;
#X connect 5 0 1 0;
#X connect 6 0 1 6;
#X restore 22 309 pd circle2;
#N canvas 581 274 544 370 l-curve-arrow 0;
#X obj 212 197 pointer;
#X msg 212 173 traverse pd-test \, bang;
#X obj 68 101 drawcurve 0 1 0 0 z 0 z2 h z3 h;
#X obj 73 52 struct l-curve-arrow float x float y float z float z2
float z3 float h;
#X obj 52 255 append l-curve-arrow x y z z2 z3 h;
#X obj 69 124 drawpolygon 0 1 0 0 3 3 0 0 3 -3;
#X msg 52 222 50 50 20 40 60 8;
#X connect 0 0 4 6;
#X connect 1 0 0 0;
#X connect 6 0 4 0;
#X restore 102 210 pd l-curve-arrow;
#N canvas 102 70 499 408 fig 1;
#X scalar r-arrow 200 414 -47 \;;
#X scalar l-arrow 347 271 18 \;;
#X scalar frame 201 345 134 117 \;;
#X scalar r-arrow 367 206 -20 \;;
#X scalar frame 43 186 82 41 \;;
#X scalar frame 199 195 146 120 \;;
#X scalar r-arrow 198 207 -73 \;;
#X scalar r-arrow 199 360 -22 \;;
#X scalar v-seg 176 272 88 1 \;;
#X text 201 128 audio out;
#X scalar h-seg 176 273 24 1 \;;
#X text 285 129 audio in;
#X text 278 193 video out;
#X text 241 100 COMPUTER;
#X text 251 -52 MIXER;
#X scalar v-seg 364 270 88 1 \;;
#X scalar h-seg 334 358 30 1 \;;
#X text 205 0 mic/line;
#X text 205 17 inputs;
#X scalar r-arrow 385 429 -50 \;;
#X scalar frame 387 414 65 57 \;;
#X text 391 -37 SPEAKERS;
#X text 98 -94 Technical diagram;
#X text 171 135 1/4";
#X text 139 147 balanced;
#X text 349 140 1/4";
#X text 348 153 balanced;
#X text 82 -111 Rand Steiger \, 13 loops;
#X text 95 -3 mics;
#X text 76 -17 instrument;
#X text 184 -25 5;
#X text 51 186 JL cooper;
#X text 44 200 fadermaster;
#X scalar d-arrow 82 228 33 \;;
#X scalar frame 43 263 82 41 \;;
#X text 51 109 JL cooper;
#X text 45 123 fadermaster;
#X text 181 30 4;
#X text 345 33 5;
#X text 282 -30 bus out;
#X text 345 -38 4;
#X text 398 -54 AMPS &;
#X scalar frame 368 175 69 55 \;;
#X text 376 184 SMALL;
#X text 376 196 COMPUTER;
#X text 376 207 MONITOR;
#X text 203 193 MIDI in;
#X scalar r-arrow 385 381 -50 \;;
#X scalar frame 387 356 65 47 \;;
#X text 391 25 SPEAKERS;
#X text 394 11 MONITOR;
#X text 345 10 2;
#X text 273 18 aux &/or;
#X text 281 33 bus out;
#X coords 0 408 1 407 0 0 0;
#X restore 117 344 pd fig;
