#N canvas 506 84 894 547 12;
#X declare -path lib -path score;
#X obj 546 285 bng 15 250 50 0 record-sample9 empty empty 0 -6 0 8
-262144 -1 -1;
#X text 564 276 record;
#X text 565 287 sample9;
#X obj 547 313 bng 15 250 50 0 save-sample9 empty empty 0 -6 0 8 -262144
-1 -1;
#X text 566 315 sample9;
#X text 567 303 save;
#N canvas 544 78 556 414 looper 0;
#X text 38 6 parameters: loop-time \, pitch \, amplitude \, loop-length
\, sample-number \, sample-location \, rise-time \, decay-time \, pan(1-9)
;
#X floatatom 130 115 5 2 100000 0 period loop1-period-set loop1-period
;
#N canvas 323 100 999 575 works 0;
#X obj 194 62 r loop1-on;
#X obj 203 92 metro 1000;
#X obj 216 120 r loop1-one-time;
#X obj 307 86 max 2;
#X obj 184 152 f;
#X obj 306 61 setline~ loop1-period;
#X obj 224 148 setline~ loop1-pitch;
#X obj 205 179 setline~ loop1-amp;
#X obj 213 206 setline~ loop1-length;
#X obj 247 232 setline~ loop1-sample;
#X obj 278 259 setline~ loop1-onset;
#X obj 303 285 setline~ loop1-rise;
#X obj 315 314 setline~ loop1-release;
#X obj 15 19 r start-loop1;
#X obj 21 253 r stop-loop1;
#X msg 21 285 \; loop1-on 0 \;;
#X obj 574 121 metro 1000;
#X obj 666 83 max 2;
#X obj 555 181 f;
#X obj 17 342 r start-loop2;
#X obj 193 464 r stop-loop2;
#X msg 193 496 \; loop2-on 0 \;;
#X obj 665 58 setline~ loop2-period;
#X obj 565 91 r loop2-on;
#X obj 587 149 r loop2-one-time;
#X obj 595 177 setline~ loop2-pitch;
#X obj 576 208 setline~ loop2-amp;
#X obj 601 237 setline~ loop2-length;
#X obj 636 264 setline~ loop2-sample;
#X obj 666 290 setline~ loop2-onset;
#X obj 691 316 setline~ loop2-rise;
#X obj 703 345 setline~ loop2-release;
#X obj 329 485 print;
#X obj 854 35 r reset;
#X msg 854 75 \; stop-loop1 bang \; stop-loop2 bang;
#X obj 186 373 pack 0 0 0 0 0 0 0;
#X obj 557 402 pack 0 0 0 0 0 0 0;
#X msg 16 374 \; loop2-period \$1 \; loop2-pitch \$2 \; loop2-amp \$3
\; loop2-length \$4 \; loop2-sample \$5 \; loop2-onset \$6 \; loop2-rise
\$7 \; loop2-release \$8 \; loop2-on 1 \;;
#X msg 14 50 \; loop1-period \$1 \; loop1-pitch \$2 \; loop1-amp \$3
\; loop1-length \$4 \; loop1-sample \$5 \; loop1-onset \$6 \; loop1-rise
\$7 \; loop1-release \$8 \; loop1-on 1 \;;
#X msg 186 401 \; samp \$1 \$2 \$3 \$4 \$5 \$6 \$7;
#X msg 557 430 \; samp \$1 \$2 \$3 \$4 \$5 \$6 \$7;
#X text 242 11 ***note*** - setline is an older abstraction - "genctl"
is the better and more modern one.;
#X connect 0 0 1 0;
#X connect 1 0 4 0;
#X connect 2 0 4 0;
#X connect 3 0 1 1;
#X connect 4 0 35 0;
#X connect 5 0 3 0;
#X connect 6 0 4 1;
#X connect 7 0 35 1;
#X connect 8 0 35 2;
#X connect 9 0 35 3;
#X connect 10 0 35 4;
#X connect 11 0 35 5;
#X connect 12 0 35 6;
#X connect 13 0 38 0;
#X connect 14 0 15 0;
#X connect 16 0 18 0;
#X connect 17 0 16 1;
#X connect 18 0 36 0;
#X connect 19 0 37 0;
#X connect 20 0 21 0;
#X connect 22 0 17 0;
#X connect 23 0 16 0;
#X connect 24 0 18 0;
#X connect 25 0 18 1;
#X connect 26 0 36 1;
#X connect 27 0 36 2;
#X connect 28 0 36 3;
#X connect 29 0 36 4;
#X connect 30 0 36 5;
#X connect 31 0 36 6;
#X connect 33 0 34 0;
#X connect 35 0 39 0;
#X connect 36 0 40 0;
#X restore 435 368 pd works;
#X obj 130 94 tgl 15 0 loop1-on loop1-on on 0 -6 0 12 -262144 -1 -1
0 1;
#X floatatom 130 137 5 0 0 0 pitch loop1-pitch-set loop1-pitch;
#X floatatom 130 159 5 0 0 0 amp loop1-amp-set loop1-amp;
#X floatatom 130 181 5 0 0 0 length loop1-length-set loop1-length;
#X floatatom 130 203 5 1 20 0 sample loop1-sample-set loop1-sample
;
#X floatatom 130 225 5 0 100000 0 onset loop1-onset-set loop1-onset
;
#X floatatom 130 247 5 0 100000 0 rise loop1-rise-set loop1-rise;
#X floatatom 130 269 5 0 100000 0 release loop1-release-set loop1-release
;
#X text 108 61 LOOP 1;
#X floatatom 280 118 5 2 100000 0 period loop2-period-set loop2-period
;
#X obj 280 97 tgl 15 0 loop2-on loop2-on on 0 -6 0 12 -262144 -1 -1
0 1;
#X floatatom 280 140 5 0 0 0 pitch loop2-pitch-set loop2-pitch;
#X floatatom 280 162 5 0 0 0 amp loop2-amp-set loop2-amp;
#X floatatom 280 184 5 0 0 0 length loop2-length-set loop2-length;
#X floatatom 280 206 5 1 20 0 sample loop2-sample-set loop2-sample
;
#X floatatom 280 228 5 0 100000 0 onset loop2-onset-set loop2-onset
;
#X floatatom 279 251 5 0 100000 0 rise loop2-rise-set loop2-rise;
#X floatatom 280 272 5 0 100000 0 release loop2-release-set loop2-release
;
#X text 258 64 LOOP 2;
#X text 177 332 example:;
#X msg 377 129 \; loop2-period 2361;
#X msg 375 185 \; loop2-period 2381;
#X msg 53 353 \; start-loop1 2361 60 30 2361 1 0 0 10 \; start-loop2
2381 60 30 2381 1 0 0 10;
#X restore 544 251 pd looper;
#X text 613 249 <-- loop controls;
#N canvas 56 151 843 620 snapshot 0;
#X obj 421 282 textfile;
#X obj 374 230 until;
#X msg 422 231 rewind;
#X obj 374 253 t b b;
#X msg 485 256 write /tmp/foo.txt;
#X obj 203 85 bng 15 250 50 0 empty empty empty 17 7 0 10 -262144 -1
-1;
#X obj 362 143 s ctl-preset-start;
#X msg 472 229 read param-list.txt cr;
#X msg 604 107 \; grab-all-init bang;
#X msg 441 177 \; grab-all-target snapshot-reply;
#X obj 420 308 symbol;
#X obj 421 332 t b s;
#X msg 467 332 symbol grab-all-get-\$1;
#X obj 442 357 send;
#X obj 205 343 r snapshot-reply;
#X obj 359 414 spigot;
#X msg 430 392 0;
#X msg 399 391 1;
#X obj 205 246 s grab-all-rest;
#X obj 360 465 print not-in-file;
#X obj 604 53 r post-reset;
#X obj 243 373 list trim;
#X obj 360 439 spigot;
#X obj 408 415 r grab-debug-order;
#X obj 202 58 r grab-doit;
#X obj 617 81 r grab-reset;
#X obj 408 438 tgl 15 0 empty empty empty 17 7 0 10 -262144 -1 -1 0
1;
#X obj 245 403 print -n;
#X obj 217 188 bng 15 250 50 0 empty empty empty 17 7 0 10 -262144
-1 -1;
#X msg 304 31 ------------------------------------;
#X obj 313 65 print -n;
#X obj 584 484 r grab-everything;
#X obj 582 511 t b b;
#X obj 582 541 s grab-doit;
#X obj 634 512 s grab-setallchanged;
#X obj 200 109 t b b b;
#X obj 44 60 r reset;
#X obj 44 105 s grab-all-init;
#X obj 44 83 del 1;
#X obj 66 485 text define snapshot-qlist;
#X obj 317 549 text set snapshot-qlist 1e+09;
#X msg 68 452 click;
#X obj 118 415 r grab-restart;
#X obj 332 489 f;
#X obj 363 491 + 1;
#X msg 329 519 list 0 \$1 ------------------;
#X msg 288 449 0;
#X msg 118 451 clear;
#X obj 261 157 t b b b b b;
#X connect 0 0 10 0;
#X connect 0 1 1 1;
#X connect 1 0 3 0;
#X connect 2 0 0 0;
#X connect 3 0 0 0;
#X connect 4 0 0 0;
#X connect 5 0 35 0;
#X connect 7 0 0 0;
#X connect 10 0 11 0;
#X connect 11 0 13 0;
#X connect 11 1 12 0;
#X connect 12 0 13 1;
#X connect 14 0 21 0;
#X connect 14 0 40 0;
#X connect 15 0 22 0;
#X connect 16 0 15 1;
#X connect 17 0 15 1;
#X connect 20 0 8 0;
#X connect 21 0 15 0;
#X connect 21 0 27 0;
#X connect 22 0 19 0;
#X connect 23 0 26 0;
#X connect 24 0 5 0;
#X connect 25 0 8 0;
#X connect 26 0 22 1;
#X connect 28 0 18 0;
#X connect 29 0 30 0;
#X connect 31 0 32 0;
#X connect 32 0 33 0;
#X connect 32 1 34 0;
#X connect 35 0 41 0;
#X connect 35 1 48 0;
#X connect 35 2 7 0;
#X connect 36 0 38 0;
#X connect 38 0 37 0;
#X connect 41 0 39 0;
#X connect 42 0 46 0;
#X connect 42 0 47 0;
#X connect 43 0 44 0;
#X connect 43 0 45 0;
#X connect 44 0 43 1;
#X connect 45 0 40 0;
#X connect 46 0 43 1;
#X connect 47 0 39 0;
#X connect 48 0 18 0;
#X connect 48 1 17 0;
#X connect 48 1 29 0;
#X connect 48 2 1 0;
#X connect 48 3 16 0;
#X connect 48 3 2 0;
#X connect 48 3 6 0;
#X connect 48 3 9 0;
#X connect 48 3 29 0;
#X connect 48 4 43 0;
#X restore 327 302 pd snapshot;
#X obj 200 306 bng 15 250 50 0 grab-reset empty empty 17 7 0 10 -262144
-1 -1;
#X obj 190 288 bng 15 250 50 0 grab-doit empty empty 17 7 0 10 -262144
-1 -1;
#X text 210 285 DO GRAB;
#X obj 200 324 bng 15 250 50 0 grab-everything empty empty 17 7 0 10
-262144 -1 -1;
#X obj 189 345 bng 15 250 50 0 grab-restart empty empty 17 7 0 10 -262144
-1 -1;
#X obj 327 326 sequencer-section 1;
#X msg 74 19 1;
#X obj 74 42 s sequencer-start;
#X floatatom 186 73 3 0 0 0 sequencer-label sequencer-label -;
#X floatatom 186 96 3 0 0 0 sequencer-section-number sequencer-section-number
-;
#X obj 14 29 bng 30 250 50 0 sequencer-step empty empty 17 7 0 10 -262144
-1 -1;
#X text 12 8 STEP;
#X floatatom 119 198 3 0 100 0 direct direct-set direct;
#X obj 15 135 bng 40 250 50 0 sequencer-stop empty stop 42 20 0 15
-262144 -1 -1;
#N canvas 290 132 756 466 misc 0;
#X obj 404 61 r print;
#X obj 404 86 print;
#X obj 497 60 r #;
#X text 50 157 section start (or zero to stop all);
#X obj 179 236 t b f;
#X obj 128 329 s reset;
#X msg 62 284 \; mute 1;
#X obj 338 156 loadbang;
#X obj 338 207 delay 100;
#X msg 338 229 0;
#X obj 208 281 delay 90;
#X obj 128 280 delay 70;
#X obj 128 305 bng 15 250 50 0 empty empty empty 0 -6 0 8 -262144 -1
-1;
#X obj 179 183 r sequencer-start;
#X obj 306 282 delay 100;
#X obj 472 157 r sequencer-stop;
#X msg 472 181 \; sequencer-start 0;
#X msg 208 307 \; pd dsp 1;
#X obj 350 181 s init;
#X obj 68 22 declare -path lib -path score;
#X obj 307 317 f;
#X msg 307 347 \; sequencer-section-number \$1 \; mute 0;
#X connect 0 0 1 0;
#X connect 4 0 6 0;
#X connect 4 0 10 0;
#X connect 4 0 11 0;
#X connect 4 0 14 0;
#X connect 4 1 20 1;
#X connect 7 0 8 0;
#X connect 7 0 18 0;
#X connect 8 0 9 0;
#X connect 9 0 4 0;
#X connect 10 0 17 0;
#X connect 11 0 12 0;
#X connect 12 0 5 0;
#X connect 13 0 4 0;
#X connect 14 0 20 0;
#X connect 15 0 16 0;
#X connect 20 0 21 0;
#X restore 22 359 pd misc;
#X floatatom 267 35 3 0 100 0 gain test-tone-set test-tone;
#X floatatom 267 55 3 0 140 0 pitch test-tone-pit-set test-tone-pit
;
#X obj 268 79 tgl 15 0 test-tone-noise test-tone-noise-set empty 17
7 0 10 -262144 -1 -1 0 1;
#X text 218 13 test tone;
#X text 225 75 noise;
#X text 220 304 mark start;
#X text 220 322 grab all;
#X text 208 343 start all over;
#X obj 472 22 vu 10 120 mic1-vu empty -1 -8 0 10 -66577 -1 0 0;
#X floatatom 470 150 3 0 0 0 - mic1-vu-int -;
#X obj 546 22 vu 10 120 out1-vu empty -1 -8 0 10 -66577 -1 0 0;
#X floatatom 544 150 3 0 0 0 - out1-vu-int -;
#X obj 572 22 vu 10 120 out2-vu empty -1 -8 0 10 -66577 -1 0 0;
#X floatatom 570 150 3 0 0 0 - out2-vu-int -;
#X text 482 173 IN;
#X text 554 171 OUT;
#X floatatom 395 145 3 0 100 0 - main-out-set main-out;
#X floatatom 331 145 3 0 100 0 - mic-trim-set mic-trim;
#X obj 390 8 bng 20 250 50 0 mute empty mute -30 10 0 12 -262144 -1
-1;
#X obj 331 38 vsl 15 101 0 100 0 0 mic-trim mic-trim-set empty 0 -9
0 10 -262144 -1 -1 5000 1;
#X text 329 164 mic trim, f 4;
#X text 343 79 -;
#X text 323 79 -;
#X obj 395 38 vsl 15 101 0 100 0 0 main-out main-out-set empty 0 -9
0 10 -262144 -1 -1 5000 1;
#X text 407 79 -;
#X text 387 79 -;
#X text 395 163 main out, f 4;
#X obj 497 22 vu 10 120 mic2-vu empty -1 -8 0 10 -66577 -1 0 0;
#X floatatom 495 150 3 0 0 0 - mic2-vu-int -;
#N canvas 212 150 655 459 out 0;
#X obj 49 315 dac~ 1 2;
#X obj 51 197 *~;
#X obj 111 199 *~;
#X obj 57 141 inlet~;
#X obj 240 29 r init;
#X obj 456 72 r mute;
#X msg 515 176 0;
#X obj 535 100 f;
#X obj 535 127 moses 1;
#X obj 454 98 f;
#X obj 454 120 == 0;
#X obj 456 144 sel 1 0;
#X obj 51 81 catch~ output1;
#X obj 113 111 catch~ output2;
#X obj 455 177 f 50;
#X obj 119 314 send-vu out1-vu;
#X obj 122 285 send-vu out2-vu;
#X msg 240 54 \; main-out 50;
#X obj 239 102 setctl main-out;
#X obj 454 221 s main-out;
#X obj 535 73 r main-out;
#X obj 187 152 amp4~ main-out;
#N canvas 704 512 1019 461 out-to-file 0;
#X obj 489 255 symbol;
#X obj 373 121 sel 0;
#X msg 373 365 stop;
#X obj 86 204 r soundfile-out-choose;
#X obj 87 396 s soundfile-out-name-set;
#X msg 87 370 set \$1;
#X obj 104 343 r soundfile-out-usedname;
#X obj 412 179 timer;
#X obj 412 204 / 1000;
#X obj 412 229 mod 1e+06;
#X obj 373 431 writesf~ 2;
#X obj 411 400 inlet~;
#X obj 466 402 inlet~;
#X obj 704 54 setctl soundfile-out-rec;
#X obj 86 229 savepanel;
#X obj 102 319 s soundfile-out-basename;
#X obj 489 230 r soundfile-out-basename;
#X obj 420 121 b;
#X msg 412 366 open \$1 \, start;
#X obj 412 258 pack 0 s;
#X obj 73 85 loadbang;
#X obj 373 18 r soundfile-out-rec;
#X obj 726 162 sel 0;
#X obj 726 128 r soundfile-out-rec;
#X msg 762 215 1;
#X msg 715 212 0;
#X obj 773 162 t b b;
#X msg 790 269 0;
#X obj 709 301 f;
#X obj 745 303 + 1;
#X obj 709 326 s soundfile-out-current;
#X obj 439 337 s soundfile-out-name-set;
#X obj 105 289 s soundfile-out-chosen;
#X obj 373 86 spigot;
#X obj 472 86 spigot 1;
#X obj 471 111 b;
#X obj 471 139 del 500;
#X msg 471 164 \; soundfile-out-rec 0;
#X obj 105 263 b;
#X obj 536 16 r soundfile-out-chosen;
#X msg 537 42 1;
#X msg 574 42 0;
#X obj 709 257 metro 1000;
#X msg 411 285 symbol \$2-\$1.wav;
#X msg 439 311 set \$1;
#X msg 73 110 \; soundfile-out-usedname symbol none;
#X connect 0 0 19 1;
#X connect 1 0 2 0;
#X connect 1 1 17 0;
#X connect 2 0 10 0;
#X connect 3 0 14 0;
#X connect 5 0 4 0;
#X connect 6 0 5 0;
#X connect 7 0 8 0;
#X connect 8 0 9 0;
#X connect 9 0 19 0;
#X connect 11 0 10 0;
#X connect 12 0 10 1;
#X connect 14 0 5 0;
#X connect 14 0 15 0;
#X connect 14 0 38 0;
#X connect 16 0 0 0;
#X connect 17 0 7 1;
#X connect 18 0 10 0;
#X connect 19 0 43 0;
#X connect 20 0 45 0;
#X connect 21 0 33 0;
#X connect 21 0 34 0;
#X connect 22 0 25 0;
#X connect 22 1 26 0;
#X connect 23 0 22 0;
#X connect 24 0 42 0;
#X connect 25 0 42 0;
#X connect 26 0 24 0;
#X connect 26 1 27 0;
#X connect 27 0 28 1;
#X connect 28 0 29 0;
#X connect 28 0 30 0;
#X connect 29 0 28 1;
#X connect 33 0 1 0;
#X connect 34 0 35 0;
#X connect 35 0 36 0;
#X connect 36 0 37 0;
#X connect 38 0 32 0;
#X connect 39 0 40 0;
#X connect 39 0 41 0;
#X connect 40 0 33 1;
#X connect 41 0 34 1;
#X connect 42 0 28 0;
#X connect 43 0 18 0;
#X connect 43 0 44 0;
#X connect 44 0 31 0;
#X restore 129 239 pd out-to-file;
#X connect 1 0 0 0;
#X connect 1 0 15 0;
#X connect 1 0 22 0;
#X connect 2 0 0 1;
#X connect 2 0 16 0;
#X connect 2 0 22 1;
#X connect 3 0 1 0;
#X connect 3 0 2 0;
#X connect 4 0 17 0;
#X connect 5 0 9 0;
#X connect 6 0 19 0;
#X connect 7 0 8 0;
#X connect 7 0 9 1;
#X connect 8 1 14 1;
#X connect 9 0 10 0;
#X connect 10 0 11 0;
#X connect 11 0 14 0;
#X connect 11 1 6 0;
#X connect 12 0 1 0;
#X connect 13 0 2 0;
#X connect 14 0 19 0;
#X connect 20 0 7 0;
#X connect 21 0 2 1;
#X connect 21 0 1 1;
#X restore 21 334 pd out;
#N canvas 69 89 882 554 DSP 0;
#X obj 47 44 inlet~;
#X obj 46 133 outlet~;
#X obj 66 75 amp4~ direct;
#X obj 46 104 *~;
#X obj 133 38 genctl direct;
#N canvas 343 52 819 466 recorder 0;
#X obj 173 126 r record;
#X obj 173 151 sel 1 2 3 4 5 6 7 8 9;
#X text 50 19 record to a sample;
#X obj 482 39 r record-sample9;
#X obj 670 43 r save-sample9;
#X obj 670 66 savepanel;
#X obj 669 132 soundfiler;
#X msg 669 91 write \$1 sample9;
#X obj 17 152 r~ input1;
#X msg 482 64 \; record 9;
#X obj 497 129 r record;
#X obj 497 154 sel 1 2 3 4 5 6 7 8 9;
#X obj 93 198 tabwrite~ samplel1;
#X obj 93 223 tabwrite~ samplel2;
#X obj 93 248 tabwrite~ samplel3;
#X obj 93 273 tabwrite~ samplel4;
#X obj 91 299 tabwrite~ samplel5;
#X obj 92 324 tabwrite~ samplel6;
#X obj 92 349 tabwrite~ samplel7;
#X obj 92 374 tabwrite~ samplel8;
#X obj 91 398 tabwrite~ samplel9;
#X obj 417 201 tabwrite~ sampler1;
#X obj 417 226 tabwrite~ sampler2;
#X obj 417 251 tabwrite~ sampler3;
#X obj 417 276 tabwrite~ sampler4;
#X obj 415 302 tabwrite~ sampler5;
#X obj 416 327 tabwrite~ sampler6;
#X obj 416 352 tabwrite~ sampler7;
#X obj 416 377 tabwrite~ sampler8;
#X obj 415 402 tabwrite~ sampler9;
#X obj 341 155 r~ input2;
#X connect 0 0 1 0;
#X connect 1 0 12 0;
#X connect 1 1 13 0;
#X connect 1 2 14 0;
#X connect 1 3 15 0;
#X connect 1 4 16 0;
#X connect 1 5 17 0;
#X connect 1 6 18 0;
#X connect 1 7 19 0;
#X connect 1 8 20 0;
#X connect 3 0 9 0;
#X connect 4 0 5 0;
#X connect 5 0 7 0;
#X connect 7 0 6 0;
#X connect 8 0 12 0;
#X connect 8 0 13 0;
#X connect 8 0 14 0;
#X connect 8 0 15 0;
#X connect 8 0 16 0;
#X connect 8 0 17 0;
#X connect 8 0 18 0;
#X connect 8 0 19 0;
#X connect 8 0 20 0;
#X connect 10 0 11 0;
#X connect 11 0 21 0;
#X connect 11 1 22 0;
#X connect 11 2 23 0;
#X connect 11 3 24 0;
#X connect 11 4 25 0;
#X connect 11 5 26 0;
#X connect 11 6 27 0;
#X connect 11 7 28 0;
#X connect 11 8 29 0;
#X connect 30 0 21 0;
#X connect 30 0 22 0;
#X connect 30 0 23 0;
#X connect 30 0 24 0;
#X connect 30 0 25 0;
#X connect 30 0 26 0;
#X connect 30 0 27 0;
#X connect 30 0 28 0;
#X connect 30 0 29 0;
#X restore 359 105 pd recorder;
#X obj 138 126 catch~ sampsum-l;
#X obj 269 122 catch~ sampsum-r;
#X obj 359 283 amp4~ sampler-gain;
#X obj 141 308 *~;
#X obj 271 314 *~;
#X obj 141 341 throw~ output1;
#X obj 272 346 throw~ output2;
#X obj 714 115 genctl sampler-gain;
#X obj 580 180 metro 100;
#X floatatom 652 159 5 0 0 0 - - -;
#X obj 558 357 clone stereo-sample-reader 50;
#X obj 734 191 metro 100;
#X floatatom 867 113 5 0 0 0 - - -;
#X obj 814 210 + 10;
#X obj 582 156 tgl 15 0 empty empty empty 17 7 0 10 -262144 -1 -1 0
1;
#X obj 741 165 tgl 15 0 empty empty empty 17 7 0 10 -262144 -1 -1 0
1;
#X obj 555 386 setctl soundfile-sample-rate;
#X floatatom 186 391 5 0 0 0 soundfile-sample-rate soundfile-sample-rate-set
soundfile-sample-rate;
#X obj 691 24 loadbang;
#X msg 691 49 \; soundfile-sample-rate 48000;
#X obj 558 306 list prepend next;
#X obj 558 331 list trim;
#X obj 558 281 r samp;
#X obj 664 269 s samp;
#X text 294 64 pitch \, gain \, duration \, sample# \, onset \, rise
\, decay;
#X msg 283 28 \; samp 48 30 2000 1 0 50 50;
#X obj 814 158 random 1000;
#X obj 814 183 / 100;
#X msg 663 241 60 30 200 1 1250 200 200;
#X floatatom 328 161 5 0 0 0 - - -;
#X obj 140 193 butterworth-hp5~;
#X obj 275 195 butterworth-hp5~;
#X obj 308 245 rev3~, f 15;
#X floatatom 399 206 5 0 0 0 - - -;
#X floatatom 440 205 5 0 0 0 - - -;
#X floatatom 480 206 5 0 0 0 - - -;
#X floatatom 522 206 5 0 0 0 - - -;
#X connect 0 0 3 0;
#X connect 2 0 3 1;
#X connect 3 0 1 0;
#X connect 6 0 36 0;
#X connect 7 0 37 0;
#X connect 8 0 10 1;
#X connect 8 0 9 1;
#X connect 9 0 11 0;
#X connect 10 0 12 0;
#X connect 14 0 34 0;
#X connect 15 0 14 1;
#X connect 17 0 34 0;
#X connect 17 0 32 0;
#X connect 19 0 17 1;
#X connect 20 0 14 0;
#X connect 21 0 17 0;
#X connect 24 0 25 0;
#X connect 26 0 27 0;
#X connect 27 0 16 0;
#X connect 28 0 26 0;
#X connect 32 0 33 0;
#X connect 33 0 19 0;
#X connect 34 0 29 0;
#X connect 35 0 37 1;
#X connect 35 0 36 1;
#X connect 36 0 38 0;
#X connect 36 0 9 0;
#X connect 37 0 38 1;
#X connect 37 0 10 0;
#X connect 38 0 9 0;
#X connect 38 1 10 0;
#X connect 39 0 38 2;
#X connect 40 0 38 3;
#X connect 41 0 38 4;
#X connect 42 0 38 5;
#X restore 21 309 pd DSP;
#N canvas 251 179 672 430 input 0;
#X obj 42 47 hip~ 5;
#X obj 43 16 adc~ 1;
#X obj 413 295 setctl mic-trim;
#X obj 419 214 r init;
#X msg 419 239 \; mic-trim 50;
#X obj 43 90 *~;
#X obj 240 50 amp4~ mic-trim;
#X obj 43 211 +~;
#X obj 44 319 outlet~;
#X obj 75 254 send~ input1;
#X obj 55 282 send-vu mic1-vu;
#X obj 173 43 hip~ 5;
#X obj 173 92 *~;
#X obj 174 207 +~;
#X obj 174 12 adc~ 2;
#X obj 192 256 send~ input2;
#X obj 175 286 send-vu mic2-vu;
#N canvas 79 211 1024 648 soundfile+testtone 0;
#X obj 41 101 osc~ 440;
#X obj 51 417 outlet~;
#X obj 264 270 switch~;
#X obj 767 120 setctl test-tone;
#X obj 126 246 r test-tone;
#X obj 126 271 f;
#X obj 53 309 *~ 0;
#X obj 125 296 expr $f1*$f1*$f1*$f1/100000000;
#X obj 41 75 mtof;
#X obj 767 142 setctl test-tone-pit;
#X obj 767 164 setctl test-tone-noise;
#X obj 41 50 r test-tone-pit;
#X obj 83 219 r test-tone-noise;
#X obj 140 83 noise~;
#X obj 139 119 bp~ 440 0.7;
#X obj 62 151 -~;
#X obj 62 176 *~ 0;
#X obj 767 9 loadbang;
#X obj 522 31 r soundfile-in-name;
#X obj 522 56 symbol;
#X msg 532 84 set \$1;
#X obj 532 109 s soundfile-in-name-set;
#X obj 427 160 symbol;
#X obj 221 173 f;
#X obj 264 198 t b f;
#X obj 221 198 != 0;
#X obj 263 238 ||;
#X obj 263 173 != 0;
#X obj 244 262 tgl 15 0 empty empty empty 17 7 0 10 -262144 -1 -1 0
1;
#X obj 373 52 sel 0;
#X msg 371 226 stop;
#X obj 766 193 setctl soundfile-in-gain;
#X msg 767 34 \; test-tone 0 \; test-tone-pit 69 \; test-tone-noise
0 \; soundfile-in-gain 50;
#X obj 766 217 setctl soundfile-in-play;
#X obj 762 245 setctl soundfile-in-onset;
#X obj 68 477 r soundfile-in-choose;
#X obj 68 502 openpanel;
#X obj 68 527 s soundfile-in-name;
#X obj 410 261 readsf~ 2;
#X obj 511 300 b;
#X obj 511 325 del 500;
#X obj 499 265 amp4~ soundfile-in-gain;
#X obj 409 302 *~;
#X obj 439 302 *~;
#X obj 135 418 outlet~;
#X obj 373 18 r soundfile-in-play;
#X msg 511 383 \; soundfile-in-play 0;
#X obj 221 148 r soundfile-in-play;
#X obj 319 454 metro 1000;
#X obj 432 189 pack s 0;
#X obj 607 178 samplerate~;
#X obj 564 151 r soundfile-in-onset;
#X obj 565 176 t f b;
#X obj 565 201 *;
#X obj 322 392 t b b;
#X msg 317 427 1;
#X msg 437 344 0;
#X obj 439 535 s soundfile-in-current;
#X obj 365 425 f;
#X obj 320 493 f;
#X obj 355 496 + 1;
#X obj 452 431 r soundfile-in-onset;
#X obj 760 273 setctl soundfile-in-repeat;
#X obj 703 348 r soundfile-in-repeat;
#X obj 618 439 spigot;
#X obj 835 513 * 1000;
#X obj 703 373 f;
#X obj 618 465 timer;
#X obj 403 95 s \$0-start-sf;
#X obj 326 365 r \$0-start-sf;
#X obj 420 52 t b b;
#X obj 667 464 r \$0-start-sf;
#X obj 618 490 moses 50;
#X obj 618 515 b;
#X obj 618 540 del 1000;
#X obj 691 569 spigot;
#X msg 691 600 \; soundfile-in-play 1;
#X obj 580 302 r \$0-start-sf;
#X msg 580 327 stop;
#X obj 784 541 del;
#X obj 784 513 spigot;
#X obj 822 473 r \$0-start-sf;
#X obj 695 517 b;
#X obj 695 542 del 50;
#X msg 410 227 open \$1 \$2 \, start;
#X obj 833 423 &&;
#X obj 834 371 r soundfile-in-play;
#X obj 834 396 t b f;
#X connect 0 0 15 1;
#X connect 0 0 6 0;
#X connect 4 0 5 0;
#X connect 5 0 7 0;
#X connect 5 0 27 0;
#X connect 6 0 1 0;
#X connect 6 0 44 0;
#X connect 7 0 6 1;
#X connect 8 0 0 0;
#X connect 8 0 14 1;
#X connect 11 0 8 0;
#X connect 12 0 16 1;
#X connect 13 0 14 0;
#X connect 14 0 15 0;
#X connect 15 0 16 0;
#X connect 16 0 6 0;
#X connect 17 0 32 0;
#X connect 18 0 19 0;
#X connect 19 0 20 0;
#X connect 19 0 22 1;
#X connect 20 0 21 0;
#X connect 22 0 49 0;
#X connect 23 0 25 0;
#X connect 24 0 26 0;
#X connect 24 1 26 1;
#X connect 25 0 26 0;
#X connect 26 0 2 0;
#X connect 26 0 28 0;
#X connect 27 0 24 0;
#X connect 29 0 30 0;
#X connect 29 1 70 0;
#X connect 30 0 38 0;
#X connect 35 0 36 0;
#X connect 36 0 37 0;
#X connect 38 0 42 0;
#X connect 38 1 43 0;
#X connect 38 2 39 0;
#X connect 39 0 40 0;
#X connect 39 0 56 0;
#X connect 39 0 64 0;
#X connect 40 0 46 0;
#X connect 41 0 42 1;
#X connect 41 0 43 1;
#X connect 42 0 1 0;
#X connect 43 0 44 0;
#X connect 45 0 29 0;
#X connect 47 0 23 0;
#X connect 48 0 59 0;
#X connect 49 0 84 0;
#X connect 50 0 53 1;
#X connect 51 0 52 0;
#X connect 52 0 53 0;
#X connect 52 1 50 0;
#X connect 53 0 49 1;
#X connect 54 0 55 0;
#X connect 54 1 58 0;
#X connect 55 0 48 0;
#X connect 56 0 57 0;
#X connect 56 0 48 0;
#X connect 58 0 59 1;
#X connect 59 0 60 0;
#X connect 59 0 57 0;
#X connect 60 0 59 1;
#X connect 61 0 58 1;
#X connect 63 0 66 0;
#X connect 64 0 67 1;
#X connect 65 0 79 1;
#X connect 66 0 65 0;
#X connect 66 0 64 1;
#X connect 66 0 80 1;
#X connect 66 0 85 0;
#X connect 67 0 72 0;
#X connect 69 0 54 0;
#X connect 70 0 22 0;
#X connect 70 1 68 0;
#X connect 71 0 67 0;
#X connect 72 0 73 0;
#X connect 72 1 82 0;
#X connect 73 0 74 0;
#X connect 74 0 75 0;
#X connect 75 0 76 0;
#X connect 77 0 78 0;
#X connect 78 0 40 0;
#X connect 79 0 75 0;
#X connect 80 0 79 0;
#X connect 81 0 80 0;
#X connect 82 0 83 0;
#X connect 83 0 75 0;
#X connect 84 0 38 0;
#X connect 85 0 75 1;
#X connect 86 0 87 0;
#X connect 87 0 85 0;
#X connect 87 1 85 1;
#X restore 324 162 pd soundfile+testtone;
#X obj 51 164 catch~ add-input1;
#X obj 186 164 catch~ add-input2;
#X connect 0 0 5 0;
#X connect 1 0 0 0;
#X connect 3 0 4 0;
#X connect 5 0 7 0;
#X connect 6 0 5 1;
#X connect 6 0 12 1;
#X connect 7 0 8 0;
#X connect 7 0 9 0;
#X connect 7 0 10 0;
#X connect 11 0 12 0;
#X connect 12 0 13 0;
#X connect 13 0 15 0;
#X connect 13 0 16 0;
#X connect 14 0 11 0;
#X connect 17 0 7 1;
#X connect 17 1 13 1;
#X connect 18 0 7 0;
#X connect 19 0 13 0;
#X restore 21 282 pd input;
#X msg 556 343 \; 1-read /home/msp/sound/elvis-blue-xtract.wav;
#X floatatom 388 232 3 0 100 0 sampler-gain sampler-gain-set sampler-gain
;
#X obj 542 226 clone -s 1 sample 9;
#X floatatom 389 255 5 0 0 0 soundfile-sample-rate soundfile-sample-rate-set
soundfile-sample-rate;
#N canvas 86 78 615 545 stuff-to-add 0;
#X text 123 76 some way to stop a sample once it's been started.;
#X text 121 104 vibrato;
#X text 120 131 pan/balance control;
#X text 120 154 mono soundfile support;
#X text 119 181 different rise and decay envelopes (e.g. \, quartic)
;
#X text 118 207 continuously shaping amplitude while playing;
#X text 71 361 to do in class:;
#X text 117 426 sample tester;
#X text 117 398 break sampler args out into separate controls;
#X text 118 232 multiple tracks with different signal paths;
#X text 116 258 multichannel spatialization;
#X text 115 284 all the effects in the world;
#X text 118 452 stochastic granulator;
#X text 113 316 time reversal;
#X restore 542 203 pd stuff-to-add;
#N canvas 475 651 654 409 soundfile-read-write 0;
#X symbolatom 38 138 80 0 0 0 - soundfile-in-name-set soundfile-in-name
;
#X floatatom 291 99 7 0 10000 0 - soundfile-in-onset-set soundfile-in-onset
;
#X floatatom 520 98 7 0 10000 0 - soundfile-in-current -;
#X text 275 64 starting location (sec), f 14;
#X obj 177 96 tgl 25 0 soundfile-in-play soundfile-in-play-set empty
17 7 0 10 -262144 -1 -1 0 1;
#X text 33 115 filename;
#X obj 129 96 bng 25 250 50 0 soundfile-in-choose empty empty 17 7
0 10 -262144 -1 -1;
#X text 115 72 choose;
#X text 174 74 PLAY;
#X text 498 72 play location;
#X floatatom 227 98 3 0 100 0 - soundfile-in-gain-set soundfile-in-gain
;
#X text 221 74 gain;
#X floatatom 426 96 3 0 999 0 - soundfile-in-repeat-set soundfile-in-repeat
;
#X text 399 59 repeat after (sec), f 11;
#X text 142 23 ------------ read a soundfile -------------;
#X symbolatom 42 329 80 0 0 0 - soundfile-out-name-set soundfile-out-name
;
#X floatatom 433 293 7 0 10000 0 - soundfile-out-current -;
#X obj 190 287 tgl 25 0 soundfile-out-rec soundfile-out-rec-set empty
17 7 0 10 -262144 -1 -1 0 1;
#X text 37 306 filename;
#X obj 133 287 bng 25 250 50 0 soundfile-out-choose empty empty 17
7 0 10 -262144 -1 -1;
#X text 119 263 choose;
#X text 146 214 ------------ save to a soundfile -------------;
#X text 180 263 RECORD;
#X text 429 267 duration;
#X restore 21 258 pd soundfile-read-write;
#N canvas 49 96 993 560 tenney-like 0;
#X obj 146 89 tgl 15 0 empty empty empty 17 7 0 10 -262144 -1 -1 0
1;
#X obj 258 465 s samp;
#X obj 181 127 metro;
#X obj 153 159 bng 15 250 50 0 empty empty empty 17 7 0 10 -262144
-1 -1;
#X floatatom 210 173 5 0 0 0 - - -;
#X obj 262 169 - 2;
#X obj 310 224 bng 15 250 50 0 empty empty empty 17 7 0 10 -262144
-1 -1;
#X obj 599 502 s samp;
#X msg 599 475 58.6 30 \$1 1 \$2 2 2;
#X obj 599 445 pack;
#X floatatom 636 384 5 0 0 0 - - -;
#X floatatom 590 384 5 0 0 0 - - -;
#X obj 572 415 f;
#X obj 555 387 bng 15 250 50 0 empty empty empty 17 7 0 10 -262144
-1 -1;
#X obj 790 507 s samp;
#X msg 790 480 58.6 30 \$1 1 \$2 2 2;
#X obj 790 450 pack;
#X floatatom 827 389 5 0 0 0 - - -;
#X floatatom 781 389 5 0 0 0 - - -;
#X obj 827 413 t b f;
#X obj 745 56 genctl random-onset-start;
#X obj 745 84 genctl random-onset-range;
#X floatatom 679 55 5 0 30000 0 random-onset-start random-onset-start-set
random-onset-start;
#X floatatom 676 81 5 0 30000 0 random-onset-range random-onset-range-set
random-onset-range;
#X obj 343 224 line;
#X obj 304 251 random;
#X obj 365 279 line;
#X obj 304 279 +;
#X obj 262 109 random;
#X obj 262 137 +;
#X obj 182 50 r random-on-off;
#X obj 182 75 f;
#X obj 754 22 genctl random-on-off;
#X obj 739 119 genctl random-duration-start;
#X obj 739 147 genctl random-duration-range;
#X floatatom 682 118 5 0 30000 0 random-duration-start random-duration-start-set
random-duration-start;
#X floatatom 681 147 5 0 30000 0 random-duration-range random-duration-range-set
random-duration-range;
#X obj 666 20 tgl 15 0 random-on-off random-on-off-set empty 17 7 0
10 -262144 -1 -1 0 1;
#X text 566 19 random-on-off;
#X obj 315 88 line;
#X obj 337 143 line;
#X msg 615 264 \; random-onset-start 6348 \; random-onset-range 6000
\; random-duration-start 300 \; random-duration-range 1000 \; random-on-off
1;
#X floatatom 684 190 5 0 127 0 random-pitch-start random-pitch-start-set
random-pitch-start;
#X floatatom 683 219 5 0 127 0 random-pitch-range random-pitch-range-set
random-pitch-range;
#X obj 741 191 genctl random-pitch-start;
#X obj 740 220 genctl random-pitch-range;
#X text 175 440 58.6;
#X msg 258 438 \$1 30 \$2 1 \$3 2 2;
#X obj 258 408 pack 0 0 0;
#X obj 259 195 t b f b;
#X obj 36 155 bng 15 250 50 0 empty empty empty 17 7 0 10 -262144 -1
-1;
#X obj 74 222 line;
#X obj 60 279 random;
#X obj 121 307 line;
#X obj 60 331 +;
#X obj 315 63 r random-duration-range;
#X obj 337 118 r random-duration-start;
#X obj 343 200 r random-onset-range;
#X obj 365 254 r random-onset-start;
#X obj 121 282 r random-pitch-start;
#X obj 75 245 * 1000;
#X obj 60 304 / 1000;
#X obj 74 198 r random-pitch-range;
#X floatatom 59 374 5 0 0 0 - - -;
#X floatatom 9 328 5 0 0 0 - - -;
#X connect 0 0 2 0;
#X connect 2 0 3 0;
#X connect 2 0 28 0;
#X connect 5 0 49 0;
#X connect 6 0 25 0;
#X connect 8 0 7 0;
#X connect 9 0 8 0;
#X connect 10 0 9 1;
#X connect 11 0 12 1;
#X connect 12 0 9 0;
#X connect 13 0 12 0;
#X connect 15 0 14 0;
#X connect 16 0 15 0;
#X connect 17 0 19 0;
#X connect 18 0 16 0;
#X connect 19 0 16 0;
#X connect 19 1 16 1;
#X connect 24 0 25 1;
#X connect 25 0 27 0;
#X connect 26 0 27 1;
#X connect 27 0 48 2;
#X connect 28 0 29 0;
#X connect 29 0 2 1;
#X connect 29 0 4 0;
#X connect 29 0 5 0;
#X connect 30 0 31 0;
#X connect 31 0 2 0;
#X connect 39 0 28 1;
#X connect 40 0 29 1;
#X connect 47 0 1 0;
#X connect 48 0 47 0;
#X connect 49 0 52 0;
#X connect 49 1 48 1;
#X connect 49 2 25 0;
#X connect 50 0 52 0;
#X connect 51 0 60 0;
#X connect 52 0 61 0;
#X connect 53 0 54 1;
#X connect 54 0 48 0;
#X connect 54 0 63 0;
#X connect 55 0 39 0;
#X connect 56 0 40 0;
#X connect 57 0 24 0;
#X connect 58 0 26 0;
#X connect 59 0 53 0;
#X connect 60 0 52 1;
#X connect 61 0 54 0;
#X connect 61 0 64 0;
#X connect 62 0 51 0;
#X restore 712 182 pd tenney-like;
#N canvas 36 85 1202 562 grainer 0;
#X obj 146 89 tgl 15 0 empty empty empty 17 7 0 10 -262144 -1 -1 0
1;
#X obj 222 466 s samp;
#X obj 181 127 metro;
#X obj 932 59 genctl grainer-onset-start;
#X obj 932 87 genctl grainer-onset-range;
#X floatatom 866 58 5 0 30000 0 grainer-onset-start grainer-onset-start-set
grainer-onset-start;
#X floatatom 863 84 5 0 30000 0 grainer-onset-range grainer-onset-range-set
grainer-onset-range;
#X obj 262 137 +;
#X obj 182 50 r grainer-on-off;
#X obj 182 75 f;
#X obj 941 25 genctl grainer-on-off;
#X obj 926 122 genctl grainer-duration-start;
#X obj 926 150 genctl grainer-duration-range;
#X floatatom 869 121 5 0 30000 0 grainer-duration-start grainer-duration-start-set
grainer-duration-start;
#X floatatom 868 150 5 0 30000 0 grainer-duration-range grainer-duration-range-set
grainer-duration-range;
#X obj 853 23 tgl 15 0 grainer-on-off grainer-on-off-set empty 17 7
0 10 -262144 -1 -1 0 1;
#X text 753 22 grainer-on-off;
#X obj 315 88 line;
#X obj 337 143 line;
#X floatatom 876 244 5 0 127 0 grainer-pitch-start grainer-pitch-start-set
grainer-pitch-start;
#X floatatom 875 273 5 0 127 0 grainer-pitch-range grainer-pitch-range-set
grainer-pitch-range;
#X obj 933 245 genctl grainer-pitch-start;
#X obj 932 274 genctl grainer-pitch-range;
#X text 175 440 58.6;
#X obj 222 409 pack 0 0 0;
#X obj 49 223 line;
#X obj 96 308 line;
#X obj 35 332 +;
#X obj 96 283 r grainer-pitch-start;
#X obj 50 246 * 1000;
#X obj 35 305 / 1000;
#X obj 49 199 r grainer-pitch-range;
#X msg 222 439 \$1 30 \$2 1 \$3 \$2 \$2;
#X obj 35 280 random;
#X obj 262 109 random;
#X floatatom 871 180 5 0 1000 0 grainer-delay-start grainer-delay-start-set
grainer-delay-start;
#X floatatom 870 209 5 0 1000 0 grainer-delay-range grainer-delay-range-set
grainer-delay-range;
#X obj 928 181 genctl grainer-delay-start;
#X obj 928 209 genctl grainer-delay-range;
#X obj 315 63 r grainer-delay-range;
#X obj 337 118 r grainer-delay-start;
#X obj 36 167 t b b b, f 66;
#X obj 276 234 line;
#X obj 323 319 line;
#X obj 262 343 +;
#X obj 277 257 * 1000;
#X obj 262 316 / 1000;
#X obj 262 291 random;
#X obj 514 236 line;
#X obj 561 321 line;
#X obj 500 345 +;
#X obj 515 259 * 1000;
#X obj 500 318 / 1000;
#X obj 500 293 random;
#X obj 276 210 r grainer-duration-range;
#X obj 323 294 r grainer-duration-start;
#X obj 514 212 r grainer-onset-range;
#X obj 561 296 r grainer-onset-start;
#X obj 313 474 bng 15 250 50 0 empty empty empty 17 7 0 10 -262144
-1 -1;
#X msg 889 343 \; grainer-delay-range 10 \; grainer-delay-start 10
\; grainer-pitch-start 58.6 \; grainer-duration-start 103 \; grainer-onset-start
14127 \; grainer-on-off 1;
#X text 884 317 don't forget sampler grain though;
#X connect 0 0 2 0;
#X connect 2 0 34 0;
#X connect 2 0 41 0;
#X connect 7 0 2 1;
#X connect 8 0 9 0;
#X connect 9 0 2 0;
#X connect 17 0 34 1;
#X connect 18 0 7 1;
#X connect 24 0 32 0;
#X connect 25 0 29 0;
#X connect 26 0 27 1;
#X connect 27 0 24 0;
#X connect 28 0 26 0;
#X connect 29 0 33 1;
#X connect 30 0 27 0;
#X connect 31 0 25 0;
#X connect 32 0 1 0;
#X connect 33 0 30 0;
#X connect 34 0 7 0;
#X connect 39 0 17 0;
#X connect 40 0 18 0;
#X connect 41 0 33 0;
#X connect 41 1 47 0;
#X connect 41 2 53 0;
#X connect 42 0 45 0;
#X connect 43 0 44 1;
#X connect 44 0 24 1;
#X connect 45 0 47 1;
#X connect 46 0 44 0;
#X connect 47 0 46 0;
#X connect 48 0 51 0;
#X connect 49 0 50 1;
#X connect 50 0 24 2;
#X connect 51 0 53 1;
#X connect 52 0 50 0;
#X connect 53 0 52 0;
#X connect 54 0 42 0;
#X connect 55 0 43 0;
#X connect 56 0 48 0;
#X connect 57 0 49 0;
#X restore 713 208 pd grainer;
#X msg 556 386 \; 2-read /home/msp/westerkamp/wren.wav;
#X msg 556 426 \; 3-read /home/msp/westerkamp/thrush.wav;
#X msg 553 464 \; 4-read /home/msp/westerkamp/raven-c.wav;
#X msg 611 89 \; samp 60 50 1500 1 3655 100 100;
#X msg 237 389 \; samp 60 50 1500 3 3655 100 100;
#X msg 235 432 \; samp 60 50 1500 3 10069 100 100;
#X msg 236 475 \; samp 60 50 1500 3 17161 100 100;
#X msg 5 396 \; samp 36 50 6000 3 3655 100 100;
#X msg 3 439 \; samp 36 50 6000 3 10069 100 100;
#X msg 4 482 \; samp 36 50 6000 3 17161 100 100;
#X connect 15 0 16 0;
#X connect 54 0 53 0;
#X connect 55 0 54 0;
