#N canvas 278 103 742 528 12;
#X declare -path . -path lib -path ../lib -path pdrp-lib;
#N canvas 57 61 517 791 audio-works 0;
#N canvas 120 124 686 569 inputs 0;
#X floatatom 23 91 0 0 0 0 - - -;
#X obj 55 470 *~;
#X obj 542 359 r atten~;
#X obj 542 441 line~;
#X obj 56 207 +~;
#X floatatom 87 84 1 0 0 0 - - -;
#X msg 173 49 0;
#X obj 23 68 mtof;
#X floatatom 23 44 0 0 0 0 - - -;
#X obj 172 24 r reset;
#X obj 78 183 adc~ 1;
#X obj 542 416 pack 0 50;
#X obj 542 388 dbtorms;
#X obj 154 474 *~;
#X obj 56 160 *~ 0;
#X obj 155 207 +~;
#X obj 155 160 *~ 0;
#X obj 177 183 adc~ 2;
#X obj 56 303 hip~ 3;
#X obj 155 305 hip~ 3;
#X obj 87 111 * 0.1;
#X obj 23 115 osc~;
#X msg 23 20 69;
#X floatatom 186 84 1 0 0 0 - - -;
#X obj 186 111 * 0.1;
#X obj 252 471 *~;
#X obj 253 208 +~;
#X floatatom 284 85 1 0 0 0 - - -;
#X obj 350 475 *~;
#X obj 253 161 *~ 0;
#X obj 351 208 +~;
#X obj 351 161 *~ 0;
#X obj 253 304 hip~ 3;
#X obj 351 305 hip~ 3;
#X obj 284 112 * 0.1;
#X floatatom 382 85 1 0 0 0 - - -;
#X obj 382 112 * 0.1;
#X obj 448 475 *~;
#X obj 449 208 +~;
#X obj 449 161 *~ 0;
#X obj 449 305 hip~ 3;
#X floatatom 480 85 1 0 0 0 - - -;
#X obj 480 112 * 0.1;
#X obj 55 504 outlet~;
#X obj 156 505 outlet~;
#X obj 252 510 outlet~;
#X obj 350 511 outlet~;
#X obj 448 512 outlet~;
#X obj 373 184 adc~ 4;
#X obj 75 43 r fl-test;
#X obj 73 238 catch~ d1~;
#X obj 56 277 +~;
#X obj 155 277 +~;
#X obj 253 277 +~;
#X obj 351 277 +~;
#X obj 449 278 +~;
#X obj 171 238 catch~ d2~;
#X obj 269 238 catch~ d3~;
#X obj 367 238 catch~ d4~;
#X obj 466 239 catch~ d5~;
#X obj 471 184 adc~ 5;
#X obj 275 184 adc~ 3;
#X obj 65 333 send-vu vu-in1a meters~;
#X obj 162 356 send-vu vu-in2a meters~;
#X obj 264 332 send-vu vu-in3 meters~;
#X obj 361 356 send-vu vu-in4 meters~;
#X obj 460 333 send-vu vu-in5 meters~;
#X connect 0 0 21 0;
#X connect 1 0 43 0;
#X connect 2 0 12 0;
#X connect 3 0 1 1;
#X connect 3 0 13 1;
#X connect 3 0 25 1;
#X connect 3 0 28 1;
#X connect 3 0 37 1;
#X connect 4 0 51 0;
#X connect 5 0 20 0;
#X connect 6 0 5 0;
#X connect 6 0 23 0;
#X connect 6 0 27 0;
#X connect 6 0 35 0;
#X connect 6 0 41 0;
#X connect 7 0 0 0;
#X connect 8 0 7 0;
#X connect 9 0 6 0;
#X connect 9 0 22 0;
#X connect 10 0 4 1;
#X connect 11 0 3 0;
#X connect 12 0 11 0;
#X connect 13 0 44 0;
#X connect 14 0 4 0;
#X connect 15 0 52 0;
#X connect 16 0 15 0;
#X connect 17 0 15 1;
#X connect 18 0 1 0;
#X connect 18 0 62 0;
#X connect 19 0 13 0;
#X connect 19 0 63 0;
#X connect 20 0 14 1;
#X connect 21 0 14 0;
#X connect 21 0 16 0;
#X connect 21 0 29 0;
#X connect 21 0 31 0;
#X connect 21 0 39 0;
#X connect 22 0 8 0;
#X connect 23 0 24 0;
#X connect 24 0 16 1;
#X connect 25 0 45 0;
#X connect 26 0 53 0;
#X connect 27 0 34 0;
#X connect 28 0 46 0;
#X connect 29 0 26 0;
#X connect 30 0 54 0;
#X connect 31 0 30 0;
#X connect 32 0 25 0;
#X connect 32 0 64 0;
#X connect 33 0 28 0;
#X connect 33 0 65 0;
#X connect 34 0 29 1;
#X connect 35 0 36 0;
#X connect 36 0 31 1;
#X connect 37 0 47 0;
#X connect 38 0 55 0;
#X connect 39 0 38 0;
#X connect 40 0 37 0;
#X connect 40 0 66 0;
#X connect 41 0 42 0;
#X connect 42 0 39 1;
#X connect 48 0 30 1;
#X connect 49 0 5 0;
#X connect 50 0 51 1;
#X connect 51 0 18 0;
#X connect 52 0 19 0;
#X connect 53 0 32 0;
#X connect 54 0 33 0;
#X connect 55 0 40 0;
#X connect 56 0 52 1;
#X connect 57 0 53 1;
#X connect 58 0 54 1;
#X connect 59 0 55 1;
#X connect 60 0 38 1;
#X connect 61 0 26 1;
#X restore 37 6 pd inputs;
#N canvas 116 152 656 598 outputs 0;
#X obj 45 172 catch~ out1~;
#X obj 159 172 catch~ out2~;
#X obj 273 172 catch~ out3~;
#X obj 387 172 catch~ out4~;
#X obj 52 70 inlet~;
#X obj 514 412 line~;
#X obj 514 387 pack 0 50;
#X obj 514 359 dbtorms;
#X obj 514 330 r tgp~;
#X obj 45 459 *~;
#X obj 45 521 dac~ 1;
#X obj 45 199 hip~ 1;
#X obj 159 198 hip~ 1;
#X obj 273 197 hip~ 1;
#X obj 387 196 hip~ 1;
#X obj 159 459 *~;
#X obj 273 460 *~;
#X obj 387 460 *~;
#X obj 159 521 dac~ 2;
#X obj 273 522 dac~ 3;
#X obj 387 522 dac~ 4;
#X obj 58 228 env~ 8192;
#X obj 58 254 i;
#X obj 58 358 spigot;
#X obj 498 289 r meters~;
#X obj 58 386 s out-vu1;
#X obj 58 281 - 100;
#X obj 171 229 env~ 8192;
#X obj 171 255 i;
#X obj 171 359 spigot;
#X obj 171 282 - 100;
#X obj 286 229 env~ 8192;
#X obj 286 255 i;
#X obj 286 359 spigot;
#X obj 286 282 - 100;
#X obj 399 230 env~ 8192;
#X obj 399 256 i;
#X obj 399 360 spigot;
#X obj 399 283 - 100;
#X obj 171 387 s out-vu2;
#X obj 286 387 s out-vu3;
#X obj 399 388 s out-vu4;
#X obj 400 24 r meters~;
#X obj 400 51 sel 0;
#X msg 400 76 \; out-vu1 -100 \; out-vu2 -100 \; out-vu3 -100 \; out-vu4
-100;
#N canvas 0 0 600 400 mix-2ch 0;
#X obj 83 28 inlet~;
#X obj 176 28 inlet~;
#X obj 83 58 dac~ 2;
#X obj 176 57 dac~ 1;
#X obj 345 41 r mix-2ch;
#X obj 345 70 tgl 15 0 empty empty empty 20 8 0 10 -262144 -1 -1 0
1;
#X obj 345 91 switch~;
#X connect 0 0 2 0;
#X connect 1 0 3 0;
#X connect 4 0 5 0;
#X connect 5 0 6 0;
#X restore 283 490 pd mix-2ch;
#X connect 0 0 11 0;
#X connect 1 0 12 0;
#X connect 2 0 13 0;
#X connect 3 0 14 0;
#X connect 5 0 9 1;
#X connect 5 0 15 1;
#X connect 5 0 16 1;
#X connect 5 0 17 1;
#X connect 6 0 5 0;
#X connect 7 0 6 0;
#X connect 8 0 7 0;
#X connect 9 0 10 0;
#X connect 11 0 9 0;
#X connect 11 0 21 0;
#X connect 12 0 15 0;
#X connect 12 0 27 0;
#X connect 13 0 16 0;
#X connect 13 0 31 0;
#X connect 14 0 17 0;
#X connect 14 0 35 0;
#X connect 15 0 18 0;
#X connect 16 0 19 0;
#X connect 16 0 45 0;
#X connect 17 0 20 0;
#X connect 17 0 45 1;
#X connect 21 0 22 0;
#X connect 22 0 26 0;
#X connect 23 0 25 0;
#X connect 24 0 23 1;
#X connect 24 0 29 1;
#X connect 24 0 33 1;
#X connect 24 0 37 1;
#X connect 26 0 23 0;
#X connect 27 0 28 0;
#X connect 28 0 30 0;
#X connect 29 0 39 0;
#X connect 30 0 29 0;
#X connect 31 0 32 0;
#X connect 32 0 34 0;
#X connect 33 0 40 0;
#X connect 34 0 33 0;
#X connect 35 0 36 0;
#X connect 36 0 38 0;
#X connect 37 0 41 0;
#X connect 38 0 37 0;
#X connect 42 0 43 0;
#X connect 43 0 44 0;
#X restore 36 707 pd outputs;
#N canvas 572 154 266 170 flute-multitap 0;
#X obj 38 118 outlet~;
#X obj 38 51 inlet~;
#N canvas 545 75 615 387 do-flute-multitap 0;
#X obj 14 76 inlet~;
#X obj 142 48 switch~;
#X obj 14 135 *~ 0.5;
#X obj 142 24 switch-ctl fl-multitap-switch;
#X obj 64 187 delay-loop~ fl-del1 fl-fback flfx-level revsend1~ flfx-rev
flfx-loc flfx-spread fl-multitap-switch -1;
#X obj 14 105 atten~ fl-delatten;
#X obj 67 242 delay-loop~ fl-del2 fl-fback flfx-level revsend2~ flfx-rev
flfx-loc flfx-spread fl-multitap-switch -0.333;
#X obj 65 294 delay-loop~ fl-del3 fl-fback flfx-level revsend2~ flfx-rev
flfx-loc flfx-spread fl-multitap-switch 0.333;
#X obj 65 344 delay-loop~ fl-del3 fl-fback flfx-level revsend2~ flfx-rev
flfx-loc flfx-spread fl-multitap-switch 1;
#X connect 0 0 5 0;
#X connect 2 0 4 0;
#X connect 2 0 6 0;
#X connect 2 0 7 0;
#X connect 2 0 8 0;
#X connect 3 0 1 0;
#X connect 5 0 2 0;
#X restore 54 87 pd do-flute-multitap;
#X connect 1 0 0 0;
#X connect 1 0 2 0;
#X restore 36 682 pd flute-multitap;
#N canvas 0 0 524 224 flute-pshift 0;
#X obj 11 42 inlet~;
#X obj 11 138 outlet~;
#X obj 28 76 pshiftbank~ fl-shift1 fl-window1 fl-delay1 fl-shift2 fl-window2
fl-delay2 flfx-loc flfx-spread fl-pshift-switch flfx-level flfx-rev
;
#X connect 0 0 1 0;
#X connect 0 0 2 0;
#X restore 36 606 pd flute-pshift;
#N canvas 690 369 266 170 flute-loopdel 0;
#X obj 38 118 outlet~;
#X obj 38 51 inlet~;
#N canvas 383 265 676 486 do-flute-loopdel 0;
#X obj 21 108 inlet~;
#X obj 146 79 switch~;
#X obj 22 457 delwrite-thru~ flute-loopdel-delay 2000;
#X obj 123 221 r fl-fback;
#X obj 181 299 s fl-fback;
#X msg 181 248 set \$1;
#X floatatom 181 274 3 0 100 0 - - -;
#X obj 87 364 line~;
#X obj 87 252 min 100;
#X obj 87 282 max 0;
#X obj 87 309 / 100;
#X obj 87 336 pack 0 50;
#X obj 45 397 *~;
#X obj 22 430 +~;
#X obj 146 55 switch-ctl fl-loopdel-switch;
#X obj 352 244 r reset;
#X obj 45 137 delay-tap~ flute-loopdel-delay fl-del1 fl-loopdel-switch-change
;
#X msg 352 274 \; fl-fback 0;
#X obj 64 183 spat1~ flfx-loc flfx-spread flfx-level revsend1~ flfx-rev
;
#X connect 0 0 13 0;
#X connect 3 0 5 0;
#X connect 3 0 8 0;
#X connect 5 0 6 0;
#X connect 6 0 4 0;
#X connect 7 0 12 1;
#X connect 8 0 9 0;
#X connect 9 0 10 0;
#X connect 10 0 11 0;
#X connect 11 0 7 0;
#X connect 12 0 13 1;
#X connect 13 0 2 0;
#X connect 14 0 1 0;
#X connect 15 0 17 0;
#X connect 16 0 12 0;
#X connect 16 0 18 0;
#X restore 54 87 pd do-flute-loopdel;
#X connect 1 0 0 0;
#X connect 1 0 2 0;
#X restore 36 631 pd flute-loopdel;
#N canvas 540 88 600 400 reverb 0;
#X obj 145 65 catch~ revsend1~;
#X obj 145 247 rev4~;
#X obj 145 304 throw~ out1~;
#X obj 185 151 r rev-fb;
#X msg 334 142 set \$1;
#X floatatom 334 168 3 0 100 0 - - -;
#X msg 201 180 set \$1;
#X floatatom 201 206 3 0 100 0 - - -;
#X obj 201 233 s rev-fb;
#X obj 171 122 r rev-return;
#X obj 334 195 s rev-return;
#X obj 158 95 catch~ revsend2~;
#X obj 185 277 throw~ out2~;
#X connect 0 0 1 0;
#X connect 1 0 2 0;
#X connect 1 1 12 0;
#X connect 3 0 1 3;
#X connect 3 0 6 0;
#X connect 4 0 5 0;
#X connect 5 0 10 0;
#X connect 6 0 7 0;
#X connect 7 0 8 0;
#X connect 9 0 1 1;
#X connect 9 0 4 0;
#X connect 11 0 1 2;
#X restore 239 640 pd reverb;
#N canvas 451 322 266 170 bc-loopdel 0;
#X obj 38 118 outlet~;
#X obj 38 51 inlet~;
#N canvas 378 202 646 499 do-bc-loopdel 0;
#X obj 21 108 inlet~;
#X obj 146 79 switch~;
#X msg 181 248 set \$1;
#X floatatom 181 274 3 0 100 0 - - -;
#X obj 87 364 line~;
#X obj 87 252 min 100;
#X obj 87 282 max 0;
#X obj 87 309 / 100;
#X obj 45 397 *~;
#X obj 22 430 +~;
#X obj 146 55 switch-ctl bc-loopdel-switch;
#X obj 44 133 delay-tap~ bc-loopdel-delay bc-del1 bc-loopdel-switch-change
;
#X obj 123 221 r bc-fback;
#X obj 182 300 s bc-fback;
#X obj 22 457 delwrite-thru~ bc-loopdel-delay 2000;
#X obj 87 336 pack 0 30;
#X obj 352 244 r reset;
#X msg 352 273 \; bc-fback 0;
#X obj 64 183 spat1~ bcfx-loc bcfx-spread bcfx-level revsend2~ bcfx-rev
;
#X connect 0 0 9 0;
#X connect 2 0 3 0;
#X connect 3 0 13 0;
#X connect 4 0 8 1;
#X connect 5 0 6 0;
#X connect 6 0 7 0;
#X connect 7 0 15 0;
#X connect 8 0 9 1;
#X connect 9 0 14 0;
#X connect 10 0 1 0;
#X connect 11 0 8 0;
#X connect 11 0 18 0;
#X connect 12 0 2 0;
#X connect 12 0 5 0;
#X connect 15 0 4 0;
#X connect 16 0 17 0;
#X restore 54 87 pd do-bc-loopdel;
#X connect 1 0 0 0;
#X connect 1 0 2 0;
#X restore 67 475 pd bc-loopdel;
#N canvas 690 369 266 170 bc-flanger 0;
#X obj 38 118 outlet~;
#X obj 38 51 inlet~;
#N canvas 67 2 618 626 do-bc-flanger 0;
#X obj 9 130 inlet~;
#X obj 20 33 switch~;
#X obj 8 549 *~;
#X obj 20 7 switch-ctl bc-flanger-switch;
#X obj 355 33 / 100;
#X obj 355 7 r bc-fspeed;
#X msg 444 27 set \$1;
#X floatatom 444 53 3 0 100 0 - - -;
#X obj 444 79 s bc-fspeed;
#X obj 54 509 line~;
#X obj 39 407 sel 0;
#X msg 24 433 0 30;
#X msg 109 432 bang;
#X msg 63 485 1 30;
#X msg 63 433 stop;
#X obj 39 381 r bc-flanger-switch-change;
#X obj 440 162 r bc-fdel;
#X obj 355 59 phasor~;
#X obj 355 111 -~ 1;
#X obj 355 85 *~ 2;
#X obj 359 217 *~ 0;
#X obj 305 313 r bc-fback;
#X obj 305 339 expr min(100 \, max(0 \, $f1)) / 100;
#N canvas 56 428 600 400 flanger-stage-1 0;
#X obj 55 45 inlet~;
#X obj 41 362 outlet~;
#X obj 327 27 inlet~;
#X obj 234 85 +~ 0.023;
#X obj 408 136 inlet;
#X obj 41 140 vd~ bc-flanger-delay;
#X obj 437 201 line~;
#X obj 57 239 *~;
#X obj 414 231 expr $f1 * $f1;
#X obj 414 281 line~;
#X obj 57 203 vd~ bc-flanger-delay;
#X obj 284 159 +~;
#X obj 284 242 +~;
#X obj 68 310 *~;
#X obj 68 272 vd~ bc-flanger-delay;
#X obj 437 176 pack 0 30;
#X obj 414 256 pack 0 30;
#X connect 2 0 3 0;
#X connect 2 0 11 1;
#X connect 2 0 12 1;
#X connect 3 0 5 0;
#X connect 3 0 11 0;
#X connect 4 0 8 0;
#X connect 4 0 15 0;
#X connect 5 0 1 0;
#X connect 6 0 7 1;
#X connect 7 0 1 0;
#X connect 8 0 16 0;
#X connect 9 0 13 1;
#X connect 10 0 7 0;
#X connect 11 0 12 0;
#X connect 11 0 10 0;
#X connect 12 0 14 0;
#X connect 13 0 1 0;
#X connect 14 0 13 0;
#X connect 15 0 6 0;
#X connect 16 0 9 0;
#X restore 9 225 pd flanger-stage-1;
#X obj 305 372 expr $f1*$f1*$f1;
#N canvas 56 428 600 400 flanger-stage-2 0;
#X obj 55 45 inlet~;
#X obj 41 362 outlet~;
#X obj 327 27 inlet~;
#X obj 241 57 +~ 0.023;
#X obj 408 136 inlet;
#X obj 437 201 line~;
#X obj 57 239 *~;
#X obj 414 231 expr $f1 * $f1;
#X obj 414 281 line~;
#X obj 285 237 +~;
#X obj 68 310 *~;
#X obj 57 203 vd~ bc-flanger-delay2;
#X obj 68 272 vd~ bc-flanger-delay2;
#X obj 437 176 pack 0 30;
#X obj 414 256 pack 0 30;
#X connect 0 0 1 0;
#X connect 2 0 3 0;
#X connect 2 0 9 1;
#X connect 3 0 9 0;
#X connect 3 0 11 0;
#X connect 4 0 7 0;
#X connect 4 0 13 0;
#X connect 5 0 6 1;
#X connect 6 0 1 0;
#X connect 7 0 14 0;
#X connect 8 0 10 1;
#X connect 9 0 12 0;
#X connect 10 0 1 0;
#X connect 11 0 6 0;
#X connect 12 0 10 0;
#X connect 13 0 5 0;
#X connect 14 0 8 0;
#X restore 9 318 pd flanger-stage-2;
#X obj 440 189 min 20;
#X obj 353 272 *~ 3;
#X obj 9 259 delwrite-thru~ bc-flanger-delay2 121;
#X obj 9 156 delwrite-thru~ bc-flanger-delay 61;
#X obj 63 459 del 183;
#X msg 456 220 set \$1;
#X floatatom 456 246 3 0 100 0 - - -;
#X obj 456 272 s bc-fdel;
#X msg 331 403 set \$1;
#X floatatom 331 429 3 0 100 0 - - -;
#X obj 331 455 s bc-fback;
#X obj 488 432 r reset;
#X msg 488 467 \; bc-fdel 0 \; bc-fback 0 \; bc-fspeed 0;
#X obj 377 162 *~ 2;
#X obj 355 186 -~;
#X obj 377 138 min~ 0;
#X obj 7 577 spat1~ bcfx-loc bcfx-spread bcfx-level revsend2~ bcfx-rev
;
#X connect 0 0 29 0;
#X connect 2 0 42 0;
#X connect 3 0 1 0;
#X connect 4 0 17 0;
#X connect 5 0 4 0;
#X connect 5 0 6 0;
#X connect 6 0 7 0;
#X connect 7 0 8 0;
#X connect 9 0 2 1;
#X connect 10 0 11 0;
#X connect 10 0 14 0;
#X connect 10 1 12 0;
#X connect 11 0 9 0;
#X connect 12 0 30 0;
#X connect 13 0 9 0;
#X connect 14 0 30 0;
#X connect 15 0 10 0;
#X connect 16 0 26 0;
#X connect 16 0 31 0;
#X connect 17 0 19 0;
#X connect 18 0 40 0;
#X connect 18 0 41 0;
#X connect 19 0 18 0;
#X connect 20 0 23 1;
#X connect 20 0 27 0;
#X connect 21 0 22 0;
#X connect 21 0 34 0;
#X connect 22 0 23 2;
#X connect 22 0 24 0;
#X connect 23 0 28 0;
#X connect 24 0 25 2;
#X connect 25 0 2 0;
#X connect 26 0 20 1;
#X connect 27 0 25 1;
#X connect 28 0 25 0;
#X connect 29 0 23 0;
#X connect 30 0 13 0;
#X connect 31 0 32 0;
#X connect 32 0 33 0;
#X connect 34 0 35 0;
#X connect 35 0 36 0;
#X connect 37 0 38 0;
#X connect 39 0 40 1;
#X connect 40 0 20 0;
#X connect 41 0 39 0;
#X restore 54 87 pd do-bc-flanger;
#X connect 1 0 0 0;
#X connect 1 0 2 0;
#X restore 67 498 pd bc-flanger;
#X obj 76 396 atten~ bc-atten;
#X obj 67 448 atten~ bcfx-atten;
#X obj 58 528 atten~ fl-atten;
#X obj 36 580 atten~ flfx-atten;
#X obj 116 155 atten~ vn-atten;
#X obj 107 207 atten~ vnfx-atten;
#N canvas 451 322 266 170 vn-loopdel 0;
#X obj 38 118 outlet~;
#X obj 38 51 inlet~;
#N canvas 378 202 646 499 do-vn-loopdel 0;
#X obj 21 108 inlet~;
#X obj 146 79 switch~;
#X msg 181 248 set \$1;
#X floatatom 181 274 3 0 100 0 - - -;
#X obj 87 364 line~;
#X obj 87 252 min 100;
#X obj 87 282 max 0;
#X obj 87 309 / 100;
#X obj 45 397 *~;
#X obj 22 430 +~;
#X obj 87 336 pack 0 30;
#X obj 352 244 r reset;
#X obj 146 55 switch-ctl vn-loopdel-switch;
#X obj 44 133 delay-tap~ vn-loopdel-delay vn-del1 vn-loopdel-switch-change
;
#X obj 123 221 r vn-fback;
#X obj 182 300 s vn-fback;
#X msg 352 273 \; vn-fback 0;
#X obj 22 457 delwrite-thru~ vn-loopdel-delay 2000;
#X obj 64 183 spat1~ vnfx-loc vnfx-spread vnfx-level revsend2~ vnfx-rev
;
#X connect 0 0 9 0;
#X connect 2 0 3 0;
#X connect 3 0 15 0;
#X connect 4 0 8 1;
#X connect 5 0 6 0;
#X connect 6 0 7 0;
#X connect 7 0 10 0;
#X connect 8 0 9 1;
#X connect 9 0 17 0;
#X connect 10 0 4 0;
#X connect 11 0 16 0;
#X connect 12 0 1 0;
#X connect 13 0 8 0;
#X connect 13 0 18 0;
#X connect 14 0 2 0;
#X connect 14 0 5 0;
#X restore 54 87 pd do-vn-loopdel;
#X connect 1 0 0 0;
#X connect 1 0 2 0;
#X restore 107 234 pd vn-loopdel;
#N canvas 0 0 580 229 vn-pshift 0;
#X obj 11 42 inlet~;
#X obj 11 138 outlet~;
#X obj 28 76 pshiftbank~ vn-shift1 vn-window1 vn-delay1 vn-shift2 vn-window2
vn-delay2 vnfx-loc vnfx-spread vn-pshift-switch vnfx-level vnfx-rev
;
#X connect 0 0 1 0;
#X connect 0 0 2 0;
#X restore 107 260 pd vn-pshift;
#X obj 132 13 atten~ vc-atten;
#X obj 132 38 spat1~ vc-loc vc-spread vc-level revsend1~ vc-rev;
#X obj 123 66 atten~ vcfx-atten;
#N canvas 451 322 375 158 vc-loopdel 0;
#X obj 38 118 outlet~;
#X obj 38 51 inlet~;
#N canvas 378 202 646 499 do-vc-loopdel 0;
#X obj 21 108 inlet~;
#X obj 146 79 switch~;
#X msg 181 248 set \$1;
#X floatatom 181 274 3 0 100 0 - - -;
#X obj 87 364 line~;
#X obj 87 252 min 100;
#X obj 87 282 max 0;
#X obj 87 309 / 100;
#X obj 45 397 *~;
#X obj 22 430 +~;
#X obj 87 336 pack 0 30;
#X obj 352 244 r reset;
#X obj 146 55 switch-ctl vc-loopdel-switch;
#X obj 44 133 delay-tap~ vc-loopdel-delay vc-del1 vc-loopdel-switch-change
;
#X obj 123 221 r vc-fback;
#X obj 182 300 s vc-fback;
#X msg 352 273 \; vc-fback 0;
#X obj 22 457 delwrite-thru~ vc-loopdel-delay 2000;
#X obj 64 183 spat1~ vcfx-loc vcfx-spread vcfx-level revsend1~ vcfx-rev
;
#X connect 0 0 9 0;
#X connect 2 0 3 0;
#X connect 3 0 15 0;
#X connect 4 0 8 1;
#X connect 5 0 6 0;
#X connect 6 0 7 0;
#X connect 7 0 10 0;
#X connect 8 0 9 1;
#X connect 9 0 17 0;
#X connect 10 0 4 0;
#X connect 11 0 16 0;
#X connect 12 0 1 0;
#X connect 13 0 8 0;
#X connect 13 0 18 0;
#X connect 14 0 2 0;
#X connect 14 0 5 0;
#X restore 54 87 pd do-vc-loopdel;
#X connect 1 0 0 0;
#X connect 1 0 2 0;
#X restore 123 92 pd vc-loopdel;
#N canvas 0 0 580 229 vc-pshift 0;
#X obj 11 42 inlet~;
#X obj 11 138 outlet~;
#X obj 23 74 pshiftbank~ vc-shift1 vc-window1 vc-delay1 vc-shift2 vc-window2
vc-delay2 vcfx-loc vcfx-spread vc-pshift-switch vcfx-level vcfx-rev
;
#X connect 0 0 1 0;
#X connect 0 0 2 0;
#X restore 123 118 pd vc-pshift;
#X obj 96 287 atten~ pc-atten;
#X obj 87 339 atten~ pcfx-atten;
#N canvas 451 322 266 170 pc-loopdel 0;
#X obj 38 118 outlet~;
#X obj 38 51 inlet~;
#N canvas 378 202 646 499 do-pc-loopdel 0;
#X obj 21 108 inlet~;
#X obj 146 79 switch~;
#X msg 181 248 set \$1;
#X floatatom 181 274 3 0 100 0 - - -;
#X obj 87 364 line~;
#X obj 87 252 min 100;
#X obj 87 282 max 0;
#X obj 87 309 / 100;
#X obj 45 397 *~;
#X obj 22 430 +~;
#X obj 87 336 pack 0 30;
#X obj 352 244 r reset;
#X obj 146 54 switch-ctl pc-loopdel-switch;
#X obj 44 133 delay-tap~ pc-loopdel-delay pc-del1 pc-loopdel-switch-change
;
#X obj 123 221 r pc-fback;
#X obj 182 300 s pc-fback;
#X msg 352 273 \; pc-fback 0;
#X obj 22 457 delwrite-thru~ pc-loopdel-delay 2000;
#X obj 64 183 spat1~ pcfx-loc pcfx-spread pcfx-level revsend1~ pcfx-rev
;
#X connect 0 0 9 0;
#X connect 2 0 3 0;
#X connect 3 0 15 0;
#X connect 4 0 8 1;
#X connect 5 0 6 0;
#X connect 6 0 7 0;
#X connect 7 0 10 0;
#X connect 8 0 9 1;
#X connect 9 0 17 0;
#X connect 10 0 4 0;
#X connect 11 0 16 0;
#X connect 12 0 1 0;
#X connect 13 0 8 0;
#X connect 13 0 18 0;
#X connect 14 0 2 0;
#X connect 14 0 5 0;
#X restore 54 87 pd do-pc-loopdel;
#X connect 1 0 0 0;
#X connect 1 0 2 0;
#X restore 87 366 pd pc-loopdel;
#X obj 36 657 +~;
#X obj 73 552 spat1~ fl-loc fl-spread fl-level revsend1~ fl-rev;
#X obj 76 419 spat1~ bc-loc bc-spread bc-level revsend2~ bc-rev;
#X obj 116 178 spat1~ vn-loc vn-spread vn-level revsend2~ vn-rev;
#X obj 96 310 spat1~ pc-loc pc-spread pc-level revsend1~ pc-rev;
#X connect 0 0 10 0;
#X connect 0 0 11 0;
#X connect 0 1 8 0;
#X connect 0 1 9 0;
#X connect 0 2 21 0;
#X connect 0 2 22 0;
#X connect 0 3 13 0;
#X connect 0 3 12 0;
#X connect 0 4 16 0;
#X connect 0 4 18 0;
#X connect 2 0 1 0;
#X connect 3 0 4 0;
#X connect 4 0 24 0;
#X connect 6 0 7 0;
#X connect 7 0 10 1;
#X connect 8 0 26 0;
#X connect 9 0 6 0;
#X connect 10 0 24 1;
#X connect 10 0 25 0;
#X connect 11 0 3 0;
#X connect 12 0 27 0;
#X connect 13 0 14 0;
#X connect 14 0 15 0;
#X connect 15 0 21 1;
#X connect 16 0 17 0;
#X connect 17 0 18 1;
#X connect 18 0 19 0;
#X connect 19 0 20 0;
#X connect 20 0 12 1;
#X connect 21 0 28 0;
#X connect 22 0 23 0;
#X connect 23 0 8 1;
#X connect 24 0 2 0;
#X connect 25 0 11 1;
#X connect 26 0 9 1;
#X connect 27 0 13 1;
#X connect 28 0 22 1;
#X restore 338 428 pd audio-works;
#X text 233 452 dolist;
#X obj 657 34 vu 10 120 out-vu1 empty 35 8 0 10 -66577 -1 0 0;
#X obj 679 34 vu 10 120 out-vu2 empty 35 8 0 10 -66577 -1 0 0;
#X obj 700 34 vu 10 120 out-vu3 empty 35 8 0 10 -66577 -1 0 0;
#X obj 636 34 vu 10 120 out-vu4 empty 35 8 0 10 -66577 -1 0 0;
#X obj 545 231 hsl 128 15 0 127 0 0 fl-level fl-level-set empty 20
8 0 10 -262144 -1 -1 0 1;
#X text 545 211 DIRECT;
#X text 498 230 flute;
#X text 492 251 b-clar;
#X obj 545 251 hsl 128 15 0 127 0 0 bc-level bc-level-set empty 20
8 0 10 -262144 -1 -1 0 1;
#N canvas 385 23 503 566 sets 0;
#X obj 273 13 setctl fl-pshift-switch;
#X obj 87 82 setctl fl-level;
#X obj 79 198 setctl flfx-level;
#X obj 272 37 setctl fl-loopdel-switch;
#X obj 273 61 setctl fl-multitap-switch;
#X obj 62 328 setctl rev-return;
#X obj 62 369 setctl mix-2ch;
#X obj 269 327 r reset;
#X obj 272 123 setctl bc-loopdel-switch;
#X obj 272 100 setctl bc-flanger-switch;
#X obj 87 102 setctl bc-level;
#X obj 87 122 setctl pc-level;
#X obj 87 142 setctl vn-level;
#X obj 87 162 setctl vc-level;
#X obj 79 218 setctl bcfx-level;
#X obj 79 238 setctl pcfx-level;
#X obj 79 258 setctl vnfx-level;
#X obj 79 278 setctl vcfx-level;
#X obj 271 292 setctl vc-loopdel-switch;
#X obj 271 269 setctl vc-pshift-switch;
#X obj 271 215 setctl vn-pshift-switch;
#X obj 271 238 setctl vn-loopdel-switch;
#X obj 269 171 setctl pc-loopdel-switch;
#X msg 269 352 \; fl-pshift-switch 0 \; fl-loopdel-switch 0 \; fl-multitap-switch
0 \; bc-loopdel-switch 0 \; bc-flanger-switch 0 \; pc-loopdel-switch
0 \; vn-pshift-switch 0 \; vn-loopdel-switch 0 \; vc-pshift-switch
0 \; vc-loopdel-switch 0 \; rev-fb 0 \;;
#X obj 18 425 r group-lvl;
#X obj 127 426 r groupfx-lvl;
#X msg 18 450 \; fl-level \$1 \; bc-level \$1 \; pc-level \$1 \; vn-level
\$1 \; vc-level \$1;
#X msg 127 451 \; flfx-level \$1 \; bcfx-level \$1 \; pcfx-level \$1
\; vnfx-level \$1 \; vcfx-level \$1;
#X connect 7 0 23 0;
#X connect 24 0 26 0;
#X connect 25 0 27 0;
#X restore 338 308 pd sets;
#X obj 544 353 hsl 128 15 0 127 0 0 flfx-level flfx-level-set empty
20 8 0 10 -262144 -1 -1 0 1;
#X text 497 350 flute;
#X text 544 332 EFFECT;
#X text 636 158 4;
#X text 659 158 1;
#X text 683 158 2;
#X text 704 158 3;
#N canvas 376 29 346 250 work 0;
#X obj 88 57 metro 500;
#X obj 98 84 del 250;
#X msg 88 114 1;
#X msg 126 115 0;
#X obj 88 142 s fl-test;
#X obj 88 37 tgl 15 0 empty empty empty 20 8 0 10 -262144 -1 -1 0 1
;
#X connect 0 0 1 0;
#X connect 0 0 2 0;
#X connect 1 0 3 0;
#X connect 2 0 4 0;
#X connect 3 0 4 0;
#X connect 5 0 0 0;
#X restore 338 328 pd work;
#X obj 545 464 hsl 128 15 0 127 0 0 rev-return rev-return-set empty
20 8 0 10 -262144 -1 -1 0 1;
#X text 476 462 rev rtn;
#X obj 213 287 tgl 20 0 mix-2ch mix-2ch-set empty 20 8 0 10 -262144
-1 -1 0 1;
#X text 243 287 mix to 2ch;
#X text 232 468 real test tone;
#X obj 544 373 hsl 128 15 0 127 0 0 bcfx-level bcfx-level-set empty
20 8 0 10 -262144 -1 -1 0 1;
#X text 491 372 b-clar;
#X obj 504 33 vu 10 120 vu-in1a empty 35 8 0 10 -66577 -1 0 0;
#X obj 527 33 vu 10 120 vu-in2a empty 35 8 0 10 -66577 -1 0 0;
#X obj 547 33 vu 10 120 vu-in3 empty 35 8 0 10 -66577 -1 0 0;
#X obj 568 33 vu 10 120 vu-in4 empty 35 8 0 10 -66577 -1 0 0;
#X obj 589 33 vu 10 120 vu-in5 empty 35 8 0 10 -66577 -1 0 0;
#X text 232 485 master gain slider;
#N canvas 240 4 336 433 snap 0;
#X obj 195 303 qlist;
#X obj 69 16 r snapshot;
#X msg 240 111 clear;
#X obj 116 110 s snap-query;
#X obj 116 145 r snap-rtn;
#X msg 116 182 add \$1 \$2;
#X obj 70 67 t b b b b;
#X obj 34 383 system;
#X obj 93 44 bng 15 250 50 0 empty empty empty 20 8 0 10 -262144 -1
-1;
#X msg 185 212 add bozbo;
#X msg 89 255 write scratch.q;
#X msg 34 355 nc scratch.q;
#X connect 1 0 6 0;
#X connect 2 0 0 0;
#X connect 4 0 5 0;
#X connect 5 0 0 0;
#X connect 6 0 11 0;
#X connect 6 1 10 0;
#X connect 6 2 3 0;
#X connect 6 3 2 0;
#X connect 8 0 6 0;
#X connect 9 0 0 0;
#X connect 10 0 0 0;
#X connect 11 0 7 0;
#X restore 338 348 pd snap;
#X obj 214 312 bng 20 250 50 0 snapshot empty empty 20 8 0 10 -262144
-1 -1;
#X text 243 311 snapshot;
#X msg 14 236 1;
#N canvas 37 86 588 343 read-score 0;
#X obj 453 83 section 1;
#X obj 15 57 r reset;
#X obj 453 103 section 7;
#X obj 453 123 section 10;
#X obj 453 143 section 14;
#X obj 453 163 section 16;
#X obj 453 183 section 19;
#X obj 453 203 section 24;
#X obj 453 223 section 90;
#X obj 453 243 section 91;
#X msg 15 84 \; section-scofo-tutti read score100.txt \; section-qlist-number
1 read qlist01.txt \; section-qlist-number 7 read qlist07.txt \; section-qlist-number
10 read qlist10.txt \; section-qlist-number 14 read qlist14.txt \;
section-qlist-number 16 read qlist16.txt \; section-qlist-number 19
read qlist19.txt \; section-qlist-number 24 read qlist24.txt \; section-qlist-number
90 read qlist90.txt \; section-qlist-number 91 read qlist91.txt \;
;
#X obj 28 285 declare -path . -path lib -path ../lib -path pdrp-lib
;
#X connect 1 0 10 0;
#X restore 338 288 pd read-score;
#X text 260 213 tone;
#X text 296 214 thru;
#N canvas 21 251 440 359 bc-panel 0;
#X obj 14 303 tgl 20 0 bc-loopdel-switch bc-loopdel-switch-set empty
20 8 0 10 -262144 -1 -1 0 1;
#X text 42 319 ON;
#X text 40 286 DELAY;
#X text 41 303 LOOP;
#X floatatom 190 301 3 0 100 0 - - -;
#X obj 190 276 g bc-fback;
#X obj 190 327 s bc-fback;
#X floatatom 99 301 5 0 0 0 - - -;
#X obj 99 276 g bc-del1;
#X obj 99 327 s bc-del1;
#X obj 9 211 tgl 20 0 bc-flanger-switch bc-flanger-switch-set empty
20 8 0 10 -262144 -1 -1 0 1;
#X text 36 220 ON;
#X text 32 204 FLANGE;
#X floatatom 284 209 3 0 100 0 - - -;
#X obj 284 184 g bc-fspeed;
#X obj 284 235 s bc-fspeed;
#X floatatom 185 209 3 0 100 0 - - -;
#X obj 185 235 s bc-fback;
#X obj 185 184 g bc-fback;
#X floatatom 94 209 5 0 0 0 - - -;
#X obj 94 234 s bc-fdel;
#X obj 94 184 g bc-fdel;
#X floatatom 332 121 3 0 100 0 - - -;
#X obj 332 96 g bcfx-rev;
#X obj 332 147 s bcfx-rev;
#X floatatom 210 122 2 0 40 0 - - -;
#X obj 210 96 g bcfx-spread;
#X obj 210 147 s bcfx-spread;
#X floatatom 116 121 2 10 90 0 - - -;
#X obj 116 96 g bcfx-loc;
#X obj 116 147 s bcfx-loc;
#X floatatom 3 121 3 0 100 0 - - -;
#X obj 3 96 g bcfx-atten;
#X obj 3 147 s bcfx-atten;
#X floatatom 332 40 3 0 100 0 - - -;
#X obj 332 15 g bc-rev;
#X obj 332 66 s bc-rev;
#X floatatom 210 41 2 0 40 0 - - -;
#X obj 210 15 g bc-spread;
#X obj 210 66 s bc-spread;
#X floatatom 116 39 2 10 90 0 - - -;
#X obj 116 14 g bc-loc;
#X obj 116 65 s bc-loc;
#X floatatom 3 39 3 0 100 0 - - -;
#X obj 3 14 g bc-atten;
#X obj 3 65 s bc-atten;
#X connect 4 0 6 0;
#X connect 5 0 4 0;
#X connect 7 0 9 0;
#X connect 8 0 7 0;
#X connect 13 0 15 0;
#X connect 14 0 13 0;
#X connect 16 0 17 0;
#X connect 18 0 16 0;
#X connect 19 0 20 0;
#X connect 21 0 19 0;
#X connect 22 0 24 0;
#X connect 23 0 22 0;
#X connect 25 0 27 0;
#X connect 26 0 25 0;
#X connect 28 0 30 0;
#X connect 29 0 28 0;
#X connect 31 0 33 0;
#X connect 32 0 31 0;
#X connect 34 0 36 0;
#X connect 35 0 34 0;
#X connect 37 0 39 0;
#X connect 38 0 37 0;
#X connect 40 0 42 0;
#X connect 41 0 40 0;
#X connect 43 0 45 0;
#X connect 44 0 43 0;
#X restore 387 155 pd bc-panel;
#N canvas 109 310 458 515 fl-panel 0;
#X obj 9 462 tgl 20 0 fl-loopdel-switch fl-loopdel-switch-set empty
20 8 0 10 -262144 -1 -1 0 1;
#X text 37 478 ON;
#X text 35 445 DELAY;
#X text 36 462 LOOP;
#X floatatom 185 460 3 0 100 0 - - -;
#X obj 185 435 g fl-fback;
#X obj 185 486 s fl-fback;
#X floatatom 94 460 5 0 0 0 - - -;
#X obj 94 435 g fl-del1;
#X obj 94 486 s fl-del1;
#X obj 9 374 tgl 20 0 fl-multitap-switch fl-multitap-switch-set empty
20 8 0 10 -262144 -1 -1 0 1;
#X text 37 390 ON;
#X text 35 373 DELAY;
#X text 35 354 MULTI;
#X floatatom 355 373 5 0 0 0 - - -;
#X obj 355 348 g fl-del4;
#X obj 355 399 s fl-del4;
#X floatatom 268 373 5 0 0 0 - - -;
#X obj 268 348 g fl-del3;
#X obj 268 399 s fl-del3;
#X floatatom 181 373 5 0 0 0 - - -;
#X obj 181 348 g fl-del2;
#X obj 181 399 s fl-del2;
#X floatatom 94 373 5 0 0 0 - - -;
#X obj 94 348 g fl-del1;
#X obj 94 399 s fl-del1;
#X floatatom 319 288 4 0 9999 0 - - -;
#X obj 319 263 g fl-delay2;
#X obj 319 314 s fl-delay2;
#X floatatom 204 288 4 0 9999 0 - - -;
#X obj 204 263 g fl-window2;
#X obj 204 314 s fl-window2;
#X floatatom 94 288 5 0 0 0 - - -;
#X obj 94 263 g fl-shift2;
#X obj 94 314 s fl-shift2;
#X obj 8 238 tgl 20 0 fl-pshift-switch fl-pshift-switch-set empty 20
8 0 10 -262144 -1 -1 0 1;
#X text 34 221 PITCH;
#X text 33 238 SHIFT;
#X text 36 254 ON;
#X floatatom 319 210 4 0 9999 0 - - -;
#X obj 319 185 g fl-delay1;
#X obj 319 236 s fl-delay1;
#X floatatom 204 210 4 0 9999 0 - - -;
#X obj 204 185 g fl-window1;
#X obj 204 236 s fl-window1;
#X floatatom 94 210 5 0 0 0 - - -;
#X obj 94 185 g fl-shift1;
#X obj 94 236 s fl-shift1;
#X floatatom 332 121 3 0 100 0 - - -;
#X obj 332 96 g flfx-rev;
#X obj 332 147 s flfx-rev;
#X obj 210 96 g flfx-spread;
#X obj 210 147 s flfx-spread;
#X floatatom 210 122 2 0 20 0 - - -;
#X obj 116 96 g flfx-loc;
#X obj 116 147 s flfx-loc;
#X floatatom 116 121 2 10 90 0 - - -;
#X floatatom 3 121 3 0 100 0 - - -;
#X obj 3 96 g flfx-atten;
#X obj 3 147 s flfx-atten;
#X floatatom 332 40 3 0 100 0 - - -;
#X obj 332 15 g fl-rev;
#X obj 332 66 s fl-rev;
#X floatatom 210 41 2 0 20 0 - - -;
#X obj 210 15 g fl-spread;
#X obj 210 66 s fl-spread;
#X floatatom 116 39 2 10 90 0 - - -;
#X obj 116 14 g fl-loc;
#X obj 116 65 s fl-loc;
#X floatatom 3 39 3 0 100 0 - - -;
#X obj 3 14 g fl-atten;
#X obj 3 65 s fl-atten;
#X floatatom 319 447 3 0 100 0 - - -;
#X obj 319 422 g fl-delatten;
#X obj 319 473 s fl-delatten;
#X connect 4 0 6 0;
#X connect 5 0 4 0;
#X connect 7 0 9 0;
#X connect 8 0 7 0;
#X connect 14 0 16 0;
#X connect 15 0 14 0;
#X connect 17 0 19 0;
#X connect 18 0 17 0;
#X connect 20 0 22 0;
#X connect 21 0 20 0;
#X connect 23 0 25 0;
#X connect 24 0 23 0;
#X connect 26 0 28 0;
#X connect 27 0 26 0;
#X connect 29 0 31 0;
#X connect 30 0 29 0;
#X connect 32 0 34 0;
#X connect 33 0 32 0;
#X connect 39 0 41 0;
#X connect 40 0 39 0;
#X connect 42 0 44 0;
#X connect 43 0 42 0;
#X connect 45 0 47 0;
#X connect 46 0 45 0;
#X connect 48 0 50 0;
#X connect 49 0 48 0;
#X connect 51 0 53 0;
#X connect 53 0 52 0;
#X connect 54 0 56 0;
#X connect 56 0 55 0;
#X connect 57 0 59 0;
#X connect 58 0 57 0;
#X connect 60 0 62 0;
#X connect 61 0 60 0;
#X connect 63 0 65 0;
#X connect 64 0 63 0;
#X connect 66 0 68 0;
#X connect 67 0 66 0;
#X connect 69 0 71 0;
#X connect 70 0 69 0;
#X connect 72 0 74 0;
#X connect 73 0 72 0;
#X restore 387 135 pd fl-panel;
#N canvas 0 0 444 415 vn-panel 0;
#X obj 9 368 tgl 20 0 vn-loopdel-switch vn-loopdel-switch-set empty
20 8 0 10 -262144 -1 -1 0 1;
#X text 37 384 ON;
#X text 35 351 DELAY;
#X text 36 368 LOOP;
#X floatatom 185 366 3 0 100 0 - - -;
#X floatatom 94 366 5 0 0 0 - - -;
#X floatatom 319 288 4 0 9999 0 - - -;
#X floatatom 204 288 4 0 9999 0 - - -;
#X floatatom 94 288 5 0 0 0 - - -;
#X obj 8 238 tgl 20 0 vn-pshift-switch vn-pshift-switch-set empty 20
8 0 10 -262144 -1 -1 0 1;
#X text 34 221 PITCH;
#X text 33 238 SHIFT;
#X text 36 254 ON;
#X floatatom 319 210 4 0 9999 0 - - -;
#X floatatom 204 210 4 0 9999 0 - - -;
#X floatatom 94 210 5 0 0 0 - - -;
#X floatatom 332 121 3 0 100 0 - - -;
#X floatatom 210 122 2 0 20 0 - - -;
#X floatatom 116 121 2 10 90 0 - - -;
#X floatatom 3 121 3 0 100 0 - - -;
#X floatatom 332 40 3 0 100 0 - - -;
#X floatatom 210 41 2 0 20 0 - - -;
#X floatatom 116 39 2 10 90 0 - - -;
#X floatatom 3 39 3 0 100 0 - - -;
#X obj 185 392 s vn-fback;
#X obj 185 341 g vn-fback;
#X obj 94 393 s vn-del1;
#X obj 94 341 g vn-del1;
#X obj 319 314 s vn-delay2;
#X obj 319 263 g vn-delay2;
#X obj 204 314 s vn-window2;
#X obj 204 263 g vn-window2;
#X obj 94 314 s vn-shift2;
#X obj 94 263 g vn-shift2;
#X obj 319 236 s vn-delay1;
#X obj 319 185 g vn-delay1;
#X obj 204 236 s vn-window1;
#X obj 204 185 g vn-window1;
#X obj 94 236 s vn-shift1;
#X obj 94 185 g vn-shift1;
#X obj 332 147 s vnfx-rev;
#X obj 332 96 g vnfx-rev;
#X obj 210 147 s vnfx-spread;
#X obj 210 96 g vnfx-spread;
#X obj 116 147 s vnfx-loc;
#X obj 116 96 g vnfx-loc;
#X obj 3 147 s vnfx-atten;
#X obj 3 96 g vnfx-atten;
#X obj 332 66 s vn-rev;
#X obj 332 15 g vn-rev;
#X obj 210 66 s vn-spread;
#X obj 210 15 g vn-spread;
#X obj 116 65 s vn-loc;
#X obj 116 14 g vn-loc;
#X obj 3 65 s vn-atten;
#X obj 3 14 g vn-atten;
#X connect 4 0 24 0;
#X connect 5 0 26 0;
#X connect 6 0 28 0;
#X connect 7 0 30 0;
#X connect 8 0 32 0;
#X connect 13 0 34 0;
#X connect 14 0 36 0;
#X connect 15 0 38 0;
#X connect 16 0 40 0;
#X connect 17 0 42 0;
#X connect 18 0 44 0;
#X connect 19 0 46 0;
#X connect 20 0 48 0;
#X connect 21 0 50 0;
#X connect 22 0 52 0;
#X connect 23 0 54 0;
#X connect 25 0 4 0;
#X connect 27 0 5 0;
#X connect 29 0 6 0;
#X connect 31 0 7 0;
#X connect 33 0 8 0;
#X connect 35 0 13 0;
#X connect 37 0 14 0;
#X connect 39 0 15 0;
#X connect 41 0 16 0;
#X connect 43 0 17 0;
#X connect 45 0 18 0;
#X connect 47 0 19 0;
#X connect 49 0 20 0;
#X connect 51 0 21 0;
#X connect 53 0 22 0;
#X connect 55 0 23 0;
#X restore 387 195 pd vn-panel;
#X obj 545 272 hsl 128 15 0 127 0 0 pc-level pc-level-set empty 20
8 0 10 -262144 -1 -1 0 1;
#X text 505 271 perc;
#X obj 545 292 hsl 128 15 0 127 0 0 vn-level vn-level-set empty 20
8 0 10 -262144 -1 -1 0 1;
#X text 492 292 violin;
#X obj 545 311 hsl 128 15 0 127 0 0 vc-level vc-level-set empty 20
8 0 10 -262144 -1 -1 0 1;
#X text 498 311 cello;
#X obj 545 393 hsl 128 15 0 127 0 0 pcfx-level pcfx-level-set empty
20 8 0 10 -262144 -1 -1 0 1;
#X obj 545 413 hsl 128 15 0 127 0 0 vnfx-level vnfx-level-set empty
20 8 0 10 -262144 -1 -1 0 1;
#X obj 545 433 hsl 128 15 0 127 0 0 vcfx-level vcfx-level-set empty
20 8 0 10 -262144 -1 -1 0 1;
#X text 504 393 perc;
#X text 491 412 violin;
#X text 497 433 cello;
#X floatatom 388 37 3 0 100 0 - - -;
#X obj 388 15 g rev-fb;
#X obj 388 57 s rev-fb;
#N canvas 0 0 444 415 vc-panel 0;
#X obj 9 368 tgl 20 0 vc-loopdel-switch vc-loopdel-switch-set empty
20 8 0 10 -262144 -1 -1 0 1;
#X text 37 384 ON;
#X text 35 351 DELAY;
#X text 36 368 LOOP;
#X floatatom 185 366 3 0 100 0 - - -;
#X floatatom 94 366 5 0 0 0 - - -;
#X floatatom 319 288 4 0 9999 0 - - -;
#X floatatom 204 288 4 0 9999 0 - - -;
#X floatatom 94 288 5 0 0 0 - - -;
#X obj 8 238 tgl 20 0 vc-pshift-switch vc-pshift-switch-set empty 20
8 0 10 -262144 -1 -1 0 1;
#X text 34 221 PITCH;
#X text 33 238 SHIFT;
#X text 36 254 ON;
#X floatatom 319 210 4 0 9999 0 - - -;
#X floatatom 204 210 4 0 9999 0 - - -;
#X floatatom 94 210 5 0 0 0 - - -;
#X floatatom 332 121 3 0 100 0 - - -;
#X floatatom 210 122 2 0 20 0 - - -;
#X floatatom 116 121 2 10 90 0 - - -;
#X floatatom 3 121 3 0 100 0 - - -;
#X floatatom 332 40 3 0 100 0 - - -;
#X floatatom 210 41 2 0 20 0 - - -;
#X floatatom 116 39 2 10 90 0 - - -;
#X floatatom 3 39 3 0 100 0 - - -;
#X obj 185 392 s vc-fback;
#X obj 185 341 g vc-fback;
#X obj 94 393 s vc-del1;
#X obj 94 341 g vc-del1;
#X obj 319 314 s vc-delay2;
#X obj 319 263 g vc-delay2;
#X obj 204 314 s vc-window2;
#X obj 204 263 g vc-window2;
#X obj 94 314 s vc-shift2;
#X obj 94 263 g vc-shift2;
#X obj 319 236 s vc-delay1;
#X obj 319 185 g vc-delay1;
#X obj 204 236 s vc-window1;
#X obj 204 185 g vc-window1;
#X obj 94 236 s vc-shift1;
#X obj 94 185 g vc-shift1;
#X obj 332 147 s vcfx-rev;
#X obj 332 96 g vcfx-rev;
#X obj 210 147 s vcfx-spread;
#X obj 210 96 g vcfx-spread;
#X obj 116 147 s vcfx-loc;
#X obj 116 96 g vcfx-loc;
#X obj 3 147 s vcfx-atten;
#X obj 3 96 g vcfx-atten;
#X obj 332 66 s vc-rev;
#X obj 332 15 g vc-rev;
#X obj 210 66 s vc-spread;
#X obj 210 15 g vc-spread;
#X obj 116 65 s vc-loc;
#X obj 116 14 g vc-loc;
#X obj 3 65 s vc-atten;
#X obj 3 14 g vc-atten;
#X connect 4 0 24 0;
#X connect 5 0 26 0;
#X connect 6 0 28 0;
#X connect 7 0 30 0;
#X connect 8 0 32 0;
#X connect 13 0 34 0;
#X connect 14 0 36 0;
#X connect 15 0 38 0;
#X connect 16 0 40 0;
#X connect 17 0 42 0;
#X connect 18 0 44 0;
#X connect 19 0 46 0;
#X connect 20 0 48 0;
#X connect 21 0 50 0;
#X connect 22 0 52 0;
#X connect 23 0 54 0;
#X connect 25 0 4 0;
#X connect 27 0 5 0;
#X connect 29 0 6 0;
#X connect 31 0 7 0;
#X connect 33 0 8 0;
#X connect 35 0 13 0;
#X connect 37 0 14 0;
#X connect 39 0 15 0;
#X connect 41 0 16 0;
#X connect 43 0 17 0;
#X connect 45 0 18 0;
#X connect 47 0 19 0;
#X connect 49 0 20 0;
#X connect 51 0 21 0;
#X connect 53 0 22 0;
#X connect 55 0 23 0;
#X restore 387 215 pd vc-panel;
#N canvas 0 0 441 274 pc-panel 0;
#X obj 32 201 tgl 20 0 pc-loopdel-switch pc-loopdel-switch-set empty
20 8 0 10 -262144 -1 -1 0 1;
#X text 60 217 ON;
#X text 58 184 DELAY;
#X text 59 201 LOOP;
#X floatatom 208 199 3 0 100 0 - - -;
#X floatatom 117 199 5 0 0 0 - - -;
#X floatatom 332 121 3 0 100 0 - - -;
#X floatatom 210 122 2 0 20 0 - - -;
#X floatatom 116 121 2 10 90 0 - - -;
#X floatatom 3 121 3 0 100 0 - - -;
#X floatatom 332 40 3 0 100 0 - - -;
#X floatatom 210 41 2 0 20 0 - - -;
#X floatatom 116 39 2 10 90 0 - - -;
#X floatatom 3 39 3 0 100 0 - - -;
#X obj 208 174 g pc-fback;
#X obj 208 225 s pc-fback;
#X obj 117 226 s pc-del1;
#X obj 117 174 g pc-del1;
#X obj 332 147 s pcfx-rev;
#X obj 332 96 g pcfx-rev;
#X obj 210 147 s pcfx-spread;
#X obj 210 96 g pcfx-spread;
#X obj 116 147 s pcfx-loc;
#X obj 116 96 g pcfx-loc;
#X obj 3 146 s pcfx-atten;
#X obj 3 96 g pcfx-atten;
#X obj 332 66 s pc-rev;
#X obj 332 15 g pc-rev;
#X obj 210 66 s pc-spread;
#X obj 210 15 g pc-spread;
#X obj 116 65 s pc-loc;
#X obj 116 14 g pc-loc;
#X obj 3 65 s pc-atten;
#X obj 3 14 g pc-atten;
#X connect 4 0 15 0;
#X connect 5 0 16 0;
#X connect 6 0 18 0;
#X connect 7 0 20 0;
#X connect 8 0 22 0;
#X connect 9 0 24 0;
#X connect 10 0 26 0;
#X connect 11 0 28 0;
#X connect 12 0 30 0;
#X connect 13 0 32 0;
#X connect 14 0 4 0;
#X connect 17 0 5 0;
#X connect 19 0 6 0;
#X connect 21 0 7 0;
#X connect 23 0 8 0;
#X connect 25 0 9 0;
#X connect 27 0 10 0;
#X connect 29 0 11 0;
#X connect 31 0 12 0;
#X connect 33 0 13 0;
#X restore 387 175 pd pc-panel;
#X text 37 451 stop;
#X obj 17 453 bng 15 250 50 0 stopem empty empty 20 8 0 8 -262144 -1
-1;
#X obj 17 317 bng 15 250 50 0 sf-sec1 empty empty 20 8 0 8 -262144
-1 -1;
#X text 36 316 section 1;
#X obj 17 334 bng 15 250 50 0 sf-sec2 empty empty 20 8 0 8 -262144
-1 -1;
#X text 37 333 section 2;
#X obj 17 351 bng 15 250 50 0 sf-sec8 empty empty 20 8 0 8 -262144
-1 -1;
#X obj 17 419 bng 15 250 50 0 sf-sec20 empty empty 20 8 0 8 -262144
-1 -1;
#X obj 17 436 bng 15 250 50 0 sf-sec5 empty empty 20 8 0 8 -262144
-1 -1;
#N canvas 487 152 406 369 (subpatch) 0;
#X obj 11 129 r section-number;
#X obj 180 132 r section-label;
#X obj 164 175 t b f;
#X obj 163 208 +;
#X obj 163 247 outlet;
#X obj 10 160 moses 2;
#X obj 12 191 - 1;
#X connect 0 0 5 0;
#X connect 1 0 2 0;
#X connect 2 0 3 0;
#X connect 2 1 3 1;
#X connect 3 0 4 0;
#X connect 5 0 6 0;
#X connect 5 1 3 0;
#X connect 6 0 3 0;
#X restore 65 264 pd;
#X floatatom 65 287 0 0 0 0 - - -;
#X text 98 287 real event #;
#N canvas 0 253 696 534 fl-motorboat 0;
#X obj 41 263 r fl-loc;
#X obj 145 211 random 3;
#X obj 129 243 sel 0 1 2;
#X obj 129 281 + 20;
#X obj 174 281 + 40;
#X obj 224 283 + 60;
#X obj 386 10 r fl-motorboat;
#X obj 140 65 != 0;
#X obj 299 408 pack;
#X obj 39 290 t f;
#X obj 136 369 mod 80;
#X obj 136 339 +;
#X obj 299 456 s fl-loc;
#X obj 390 66 t f f b;
#X obj 531 95 s fl-motorboat;
#X msg 532 47 set \$1;
#X floatatom 532 71 5 0 0 0 - - -;
#X obj 388 40 max 0;
#X obj 127 162 metro;
#X obj 459 149 r reset;
#X obj 443 440 spigot;
#X msg 521 415 set \$1;
#X floatatom 521 439 5 0 0 0 - - -;
#X obj 489 383 r fl-motorfx;
#X obj 520 463 s fl-motorfx;
#X msg 455 185 \; fl-motorboat 0 \; fl-motorfx 0;
#X obj 446 490 s flfx-loc;
#X connect 0 0 9 0;
#X connect 1 0 2 0;
#X connect 2 0 3 0;
#X connect 2 1 4 0;
#X connect 2 2 5 0;
#X connect 3 0 11 0;
#X connect 4 0 11 0;
#X connect 5 0 11 0;
#X connect 6 0 15 0;
#X connect 6 0 17 0;
#X connect 7 0 18 0;
#X connect 8 0 12 0;
#X connect 8 0 20 0;
#X connect 9 0 11 1;
#X connect 10 0 8 0;
#X connect 11 0 10 0;
#X connect 13 0 7 0;
#X connect 13 1 8 1;
#X connect 13 1 18 1;
#X connect 15 0 16 0;
#X connect 16 0 14 0;
#X connect 17 0 13 0;
#X connect 18 0 1 0;
#X connect 19 0 25 0;
#X connect 20 0 26 0;
#X connect 21 0 22 0;
#X connect 22 0 24 0;
#X connect 23 0 21 0;
#X connect 23 0 20 1;
#X restore 338 388 pd fl-motorboat;
#X obj 17 368 bng 15 250 50 0 sf-cadenza2 empty empty 20 8 0 8 -262144
-1 -1;
#X obj 17 402 bng 15 250 50 0 sf-cadenza3 empty empty 20 8 0 8 -262144
-1 -1;
#N canvas 40 2 776 429 twist 0;
#X obj 155 321 s fl-loc;
#X obj 147 240 + 20;
#X obj 147 266 mod 80;
#X obj 147 294 pack 0 7;
#X obj 169 126 r fl-loc;
#X obj 147 212 f;
#X obj 147 345 s flfx-loc;
#X obj 244 240 + 20;
#X obj 244 266 mod 80;
#X obj 244 294 pack 0 7;
#X obj 244 212 f;
#X obj 340 240 + 20;
#X obj 340 266 mod 80;
#X obj 340 294 pack 0 7;
#X obj 340 212 f;
#X obj 436 240 + 20;
#X obj 436 266 mod 80;
#X obj 436 294 pack 0 7;
#X obj 436 212 f;
#X obj 532 240 + 20;
#X obj 532 266 mod 80;
#X obj 532 294 pack 0 7;
#X obj 533 215 f;
#X obj 266 126 r bc-loc;
#X obj 252 321 s bc-loc;
#X obj 244 345 s bcfx-loc;
#X obj 362 126 r pc-loc;
#X obj 348 321 s pc-loc;
#X obj 340 345 s pcfx-loc;
#X obj 458 126 r vc-loc;
#X obj 444 322 s vc-loc;
#X obj 436 346 s vcfx-loc;
#X obj 554 126 r vn-loc;
#X obj 540 321 s vn-loc;
#X obj 532 345 s vnfx-loc;
#X obj 554 164 f;
#X obj 457 163 f;
#X obj 360 158 f;
#X obj 265 160 f;
#X obj 167 160 f;
#X obj 84 174 r twist;
#X connect 1 0 2 0;
#X connect 2 0 3 0;
#X connect 3 0 0 0;
#X connect 3 0 6 0;
#X connect 4 0 39 0;
#X connect 5 0 1 0;
#X connect 7 0 8 0;
#X connect 8 0 9 0;
#X connect 9 0 24 0;
#X connect 9 0 25 0;
#X connect 10 0 7 0;
#X connect 11 0 12 0;
#X connect 12 0 13 0;
#X connect 13 0 27 0;
#X connect 13 0 28 0;
#X connect 14 0 11 0;
#X connect 15 0 16 0;
#X connect 16 0 17 0;
#X connect 17 0 30 0;
#X connect 17 0 31 0;
#X connect 18 0 15 0;
#X connect 19 0 20 0;
#X connect 20 0 21 0;
#X connect 21 0 33 0;
#X connect 21 0 34 0;
#X connect 22 0 19 0;
#X connect 23 0 38 0;
#X connect 26 0 37 0;
#X connect 29 0 36 0;
#X connect 32 0 35 0;
#X connect 35 0 22 1;
#X connect 36 0 18 1;
#X connect 37 0 14 1;
#X connect 38 0 10 1;
#X connect 39 0 5 1;
#X connect 40 0 5 0;
#X connect 40 0 10 0;
#X connect 40 0 14 0;
#X connect 40 0 18 0;
#X connect 40 0 22 0;
#X restore 338 368 pd twist;
#X obj 396 100 bng 25 250 50 0 twist empty empty 20 8 0 10 -262144
-1 -1;
#X text 390 82 TWIST;
#X obj 17 385 bng 15 250 50 0 sf-sec15 empty empty 20 8 0 8 -262144
-1 -1;
#X obj 688 201 vsl 15 128 0 127 0 0 group-lvl empty empty 20 8 0 8
-262144 -1 -1 0 1;
#X obj 685 348 vsl 15 128 0 127 0 0 groupfx-lvl empty empty 20 8 0
8 -262144 -1 -1 0 1;
#N canvas 99 250 724 398 midi 0;
#X floatatom 25 151 5 0 0 0 - - -;
#X obj 25 178 s fl-level;
#X floatatom 28 64 5 0 0 0 - - -;
#X floatatom 138 65 5 0 0 0 - - -;
#X floatatom 251 64 5 0 0 0 - - -;
#X floatatom 361 65 5 0 0 0 - - -;
#X floatatom 481 63 5 0 0 0 - - -;
#X floatatom 609 65 5 0 0 0 - - -;
#X obj 28 91 s flfx-level;
#X obj 138 92 s bcfx-level;
#X obj 251 91 s pcfx-level;
#X obj 361 92 s vnfx-level;
#X obj 481 90 s vcfx-level;
#X obj 609 92 s rev-return;
#X obj 28 38 ctlin 0 1;
#X obj 138 39 ctlin 1 1;
#X obj 251 38 ctlin 2 1;
#X obj 481 36 ctlin 4 1;
#X obj 25 125 ctlin 5 1;
#X obj 609 41 ctlin 7 1;
#X obj 167 123 ctlin 6 1;
#X obj 165 150 t f b;
#X obj 192 177 f;
#X obj 165 177 -;
#X obj 165 202 min 6;
#X obj 165 225 max -6;
#X obj 231 215 r bc-level;
#X obj 215 267 +;
#X obj 215 338 s bc-level;
#X obj 215 290 max 0;
#X obj 215 314 min 127;
#X obj 294 267 +;
#X obj 294 290 max 0;
#X obj 294 314 min 127;
#X obj 372 267 +;
#X obj 372 290 max 0;
#X obj 372 314 min 127;
#X obj 451 267 +;
#X obj 451 290 max 0;
#X obj 451 314 min 127;
#X obj 310 215 r pc-level;
#X obj 294 338 s pc-level;
#X obj 388 215 r vn-level;
#X obj 372 338 s vn-level;
#X obj 467 215 r vc-level;
#X obj 451 338 s vc-level;
#X obj 361 40 ctlin 3 15;
#X connect 0 0 1 0;
#X connect 2 0 8 0;
#X connect 3 0 9 0;
#X connect 4 0 10 0;
#X connect 5 0 11 0;
#X connect 6 0 12 0;
#X connect 7 0 13 0;
#X connect 14 0 2 0;
#X connect 15 0 3 0;
#X connect 16 0 4 0;
#X connect 17 0 6 0;
#X connect 18 0 0 0;
#X connect 19 0 7 0;
#X connect 20 0 21 0;
#X connect 21 0 22 1;
#X connect 21 0 23 0;
#X connect 21 1 22 0;
#X connect 22 0 23 1;
#X connect 23 0 24 0;
#X connect 24 0 25 0;
#X connect 25 0 27 0;
#X connect 25 0 31 0;
#X connect 25 0 34 0;
#X connect 25 0 37 0;
#X connect 26 0 27 1;
#X connect 27 0 29 0;
#X connect 29 0 30 0;
#X connect 30 0 28 0;
#X connect 31 0 32 0;
#X connect 32 0 33 0;
#X connect 33 0 41 0;
#X connect 34 0 35 0;
#X connect 35 0 36 0;
#X connect 36 0 43 0;
#X connect 37 0 38 0;
#X connect 38 0 39 0;
#X connect 39 0 45 0;
#X connect 40 0 31 1;
#X connect 42 0 34 1;
#X connect 44 0 37 1;
#X connect 46 0 5 0;
#X restore 338 408 pd midi;
#X text 524 157 bc;
#X text 545 155 pc;
#X text 231 504 separate switch for pitch print;
#N canvas 194 81 474 194 disk 0;
#X obj 59 25 bng 15 250 50 0 sf-sec1 empty empty 20 8 0 8 -262144 -1
-1;
#X text 84 24 section 1;
#X obj 59 46 bng 15 250 50 0 sf-sec2 empty empty 20 8 0 8 -262144 -1
-1;
#X text 84 44 section 2;
#N canvas 101 267 983 650 (subpatch) 0;
#X obj 18 21 r sf-sec1;
#X obj 830 543 r soundfiler;
#X obj 830 568 soundfiler;
#X obj 20 95 r sf-sec2;
#X obj 19 599 throw~ d1~;
#X obj 19 543 readsf~ 1;
#X obj 11 323 r read1a;
#X msg 53 374 set \$1;
#X obj 11 372 t b s;
#X obj 16 474 del 1000;
#X msg 16 498 1;
#X obj 52 497 r stopem;
#X msg 52 519 0;
#X obj 26 420 pack s 0;
#X msg 26 448 0 \, open \$1 \$2;
#X obj 362 617 throw~ d1~;
#X msg 396 379 set \$1;
#X obj 354 377 t b s;
#X obj 359 479 del 1000;
#X msg 359 503 1;
#X obj 395 502 r stopem;
#X msg 395 524 0;
#X obj 369 425 pack s 0;
#X msg 369 453 0 \, open \$1 \$2;
#X obj 127 326 r read1b;
#X obj 238 327 r read1c;
#X obj 353 329 r read2a;
#X obj 362 548 readsf~ 2;
#X obj 436 617 throw~ d1~;
#X msg 414 401 set \$1;
#X obj 550 327 r read2b;
#X obj 309 13 r sf-cadenza2;
#X obj 657 12 r sf-cadenza3;
#X obj 11 346 unpack s s f f;
#X obj 54 569 dbtorms;
#X obj 19 570 *~;
#X obj 134 602 throw~ d1~;
#X obj 134 546 readsf~ 1;
#X msg 168 377 set \$1;
#X obj 126 375 t b s;
#X obj 131 477 del 1000;
#X msg 131 501 1;
#X obj 167 500 r stopem;
#X msg 167 522 0;
#X obj 141 423 pack s 0;
#X msg 141 451 0 \, open \$1 \$2;
#X obj 126 349 unpack s s f f;
#X obj 169 572 dbtorms;
#X obj 134 573 *~;
#X obj 246 604 throw~ d1~;
#X obj 246 548 readsf~ 1;
#X msg 280 379 set \$1;
#X obj 238 377 t b s;
#X obj 243 479 del 1000;
#X msg 243 503 1;
#X obj 279 502 r stopem;
#X msg 279 524 0;
#X obj 253 425 pack s 0;
#X msg 253 453 0 \, open \$1 \$2;
#X obj 238 351 unpack s s f f;
#X obj 281 574 dbtorms;
#X obj 246 575 *~;
#X obj 452 522 dbtorms;
#X obj 392 577 *~;
#X obj 362 580 *~;
#X msg 18 45 \; stopem bang \; read1a fl1to26.aiff d1~ 0 100;
#X obj 509 235 r reset;
#X msg 508 265 \; stopem bang;
#X msg 309 37 \; stopem bang \; read1a flt.cad.2.aiff d1~ 0 100 \;
;
#X msg 657 36 \; stopem bang \; read1a flt.cad.3.aiff d1~ 0 100 \;
;
#X obj 21 205 r sf-sec8;
#X obj 308 94 r sf-sec15;
#X obj 643 97 r sf-sec20;
#X obj 353 352 unpack s s s f f f;
#X obj 465 549 dbtorms;
#X msg 21 117 \; stopem bang \; read1a fl26to86.aiff d1~ 0 100 \; read1b
bcl26to86.aiff d2~ 0 88 \; read1c perc.26to86.aiff d3~ 150 92 \; read2a
VlnVc26to86.aiff d5~ d4~ 0 95 95;
#X obj 557 621 throw~ d1~;
#X msg 591 383 set \$1;
#X obj 549 381 t b s;
#X obj 554 483 del 1000;
#X msg 554 507 1;
#X obj 590 506 r stopem;
#X msg 590 528 0;
#X obj 564 429 pack s 0;
#X msg 564 457 0 \, open \$1 \$2;
#X obj 557 552 readsf~ 2;
#X obj 631 621 throw~ d1~;
#X msg 609 405 set \$1;
#X obj 647 526 dbtorms;
#X obj 587 581 *~;
#X obj 557 584 *~;
#X obj 548 356 unpack s s s f f f;
#X obj 660 553 dbtorms;
#X msg 21 228 \; stopem bang \; read2a pic_bcl_82to137.aiff d1~ d2~
200 105 88 \; read1a perc.82to137.aiff d3~ 0 92 \; read2b VlnVc82to137.aiff
d5~ d4~ 0 95 95;
#X msg 643 120 \; stopem bang \; read1a fl.266to360.aiff d1~ 700000
100 \; read1b bcl.266to360.aiff d2~ 700000 88 \; read2a perc.266to360.aiff
d3~ d3~ 700000 92 92 \; read2b VlnVc266to360.aiff d5~ d4~ 700000 95
95 \;;
#X msg 308 122 \; stopem bang \; read1a flt.150to237.aiff d1~ 441000
100 \; read1b bcl.150to267.aiff d2~ 441000 88 \; read2a perc.150-236.aiff
d3~ d3~ 555000 92 92 \; read2b VlnVc150to267.aiff d5~ d4~ 441000 95
95 \;;
#X connect 0 0 65 0;
#X connect 1 0 2 0;
#X connect 3 0 75 0;
#X connect 5 0 35 0;
#X connect 6 0 33 0;
#X connect 7 0 4 0;
#X connect 8 0 9 0;
#X connect 8 1 13 0;
#X connect 9 0 10 0;
#X connect 10 0 5 0;
#X connect 11 0 12 0;
#X connect 12 0 5 0;
#X connect 13 0 14 0;
#X connect 14 0 5 0;
#X connect 16 0 15 0;
#X connect 17 0 18 0;
#X connect 17 1 22 0;
#X connect 18 0 19 0;
#X connect 19 0 27 0;
#X connect 20 0 21 0;
#X connect 21 0 27 0;
#X connect 22 0 23 0;
#X connect 23 0 27 0;
#X connect 24 0 46 0;
#X connect 25 0 59 0;
#X connect 26 0 73 0;
#X connect 27 0 64 0;
#X connect 27 1 63 0;
#X connect 29 0 28 0;
#X connect 30 0 91 0;
#X connect 31 0 68 0;
#X connect 32 0 69 0;
#X connect 33 0 8 0;
#X connect 33 1 7 0;
#X connect 33 2 13 1;
#X connect 33 3 34 0;
#X connect 34 0 35 1;
#X connect 35 0 4 0;
#X connect 37 0 48 0;
#X connect 38 0 36 0;
#X connect 39 0 40 0;
#X connect 39 1 44 0;
#X connect 40 0 41 0;
#X connect 41 0 37 0;
#X connect 42 0 43 0;
#X connect 43 0 37 0;
#X connect 44 0 45 0;
#X connect 45 0 37 0;
#X connect 46 0 39 0;
#X connect 46 1 38 0;
#X connect 46 2 44 1;
#X connect 46 3 47 0;
#X connect 47 0 48 1;
#X connect 48 0 36 0;
#X connect 50 0 61 0;
#X connect 51 0 49 0;
#X connect 52 0 53 0;
#X connect 52 1 57 0;
#X connect 53 0 54 0;
#X connect 54 0 50 0;
#X connect 55 0 56 0;
#X connect 56 0 50 0;
#X connect 57 0 58 0;
#X connect 58 0 50 0;
#X connect 59 0 52 0;
#X connect 59 1 51 0;
#X connect 59 2 57 1;
#X connect 59 3 60 0;
#X connect 60 0 61 1;
#X connect 61 0 49 0;
#X connect 62 0 64 1;
#X connect 63 0 28 0;
#X connect 64 0 15 0;
#X connect 66 0 67 0;
#X connect 70 0 93 0;
#X connect 71 0 95 0;
#X connect 72 0 94 0;
#X connect 73 0 17 0;
#X connect 73 1 16 0;
#X connect 73 2 29 0;
#X connect 73 3 22 1;
#X connect 73 4 62 0;
#X connect 73 5 74 0;
#X connect 74 0 63 1;
#X connect 77 0 76 0;
#X connect 78 0 79 0;
#X connect 78 1 83 0;
#X connect 79 0 80 0;
#X connect 80 0 85 0;
#X connect 81 0 82 0;
#X connect 82 0 85 0;
#X connect 83 0 84 0;
#X connect 84 0 85 0;
#X connect 85 0 90 0;
#X connect 85 1 89 0;
#X connect 87 0 86 0;
#X connect 88 0 90 1;
#X connect 89 0 86 0;
#X connect 90 0 76 0;
#X connect 91 0 78 0;
#X connect 91 1 77 0;
#X connect 91 2 87 0;
#X connect 91 3 83 1;
#X connect 91 4 88 0;
#X connect 91 5 92 0;
#X connect 92 0 89 1;
#X restore 181 21 pd;
#X restore 338 448 pd disk;
#X text 503 157 fl;
#X text 565 155 vn;
#X text 586 155 vc;
#X text 509 9 inputs (pre);
#X text 626 13 outputs (pre);
#X obj 266 255 s section-start;
#X msg 48 236 7;
#X msg 82 236 10;
#X msg 116 236 14;
#X msg 149 236 16;
#X msg 183 236 19;
#X msg 217 236 24;
#X text 36 350 section 7;
#X text 35 367 cadenza 11 (cadenza);
#X text 36 384 section 14;
#X text 35 401 section 16 (cadenza);
#X text 35 418 section 19;
#X text 36 436 section 25;
#X msg 266 233 50;
#X msg 297 233 51;
#X text 132 492 click to;
#X obj 16 505 score-editor;
#X text 133 506 <- open;
#X obj 16 482 bng 20 250 50 0 empty empty empty 0 -6 0 8 -262144 -1
-1;
#X text 40 482 TEST SCORE;
#X obj 16 19 classic-pdrp;
#X connect 36 0 91 0;
#X connect 55 0 57 0;
#X connect 56 0 55 0;
#X connect 69 0 70 0;
#X connect 92 0 91 0;
#X connect 93 0 91 0;
#X connect 94 0 91 0;
#X connect 95 0 91 0;
#X connect 96 0 91 0;
#X connect 97 0 91 0;
#X connect 104 0 91 0;
#X connect 105 0 91 0;
#X connect 109 0 107 0;
