#N canvas 0 0 450 300 10;
#X obj 302 21 table tab-in1;
#X obj 302 44 table tab-in2;
#X obj 302 67 table tab-in3;
#X obj 302 91 table tab-in4;
#X obj 299 114 table tab-in5;
#X obj 59 25 bng 15 250 50 0 sf-sec1 empty empty 20 8 128 8 -262144
-1 -1;
#X text 84 24 section 1;
#X obj 59 46 bng 15 250 50 0 sf-sec2 empty empty 20 8 128 8 -262144
-1 -1;
#X text 84 44 section 2;
#N canvas 0 0 968 616 /SUBPATCH/ 0;
#X obj 18 74 r clearem;
#X obj 210 10 r sf-sec1;
#X obj 31 21 r soundfiler;
#X obj 31 46 soundfiler;
#X obj 212 84 r sf-sec2;
#X obj 213 194 r sf-sec3;
#X msg 18 101 \; tab-in1 resize 100 \; tab-in2 resize 100 \; tab-in3
resize 100 \; tab-in4 resize 100 \; tab-in5 resize 100 \; tab-in1 const
0 \; tab-in2 const 0 \; tab-in3 const 0 \; tab-in4 const 0 \; tab-in5
const 0;
#X obj 19 569 throw~ d1~;
#X obj 19 543 readsf~ 1;
#X obj 10 324 r read1a;
#X msg 53 374 set \$1;
#X obj 11 372 t b s;
#X obj 16 474 del 1000;
#X msg 16 498 1;
#X obj 652 282 r sf-sec4;
#X obj 52 497 r stopem;
#X msg 52 519 0;
#X obj 10 347 unpack s s f;
#X obj 26 420 pack s 0;
#X msg 26 448 0 \, open \$1 \$2;
#X obj 136 571 throw~ d1~;
#X obj 136 545 readsf~ 1;
#X msg 170 376 set \$1;
#X obj 128 374 t b s;
#X obj 133 476 del 1000;
#X msg 133 500 1;
#X obj 169 499 r stopem;
#X msg 169 521 0;
#X obj 127 349 unpack s s f;
#X obj 143 422 pack s 0;
#X msg 143 450 0 \, open \$1 \$2;
#X obj 247 572 throw~ d1~;
#X obj 247 546 readsf~ 1;
#X msg 281 377 set \$1;
#X obj 239 375 t b s;
#X obj 244 477 del 1000;
#X msg 244 501 1;
#X obj 280 500 r stopem;
#X msg 280 522 0;
#X obj 238 350 unpack s s f;
#X obj 254 423 pack s 0;
#X msg 254 451 0 \, open \$1 \$2;
#X obj 362 574 throw~ d1~;
#X msg 396 379 set \$1;
#X obj 354 377 t b s;
#X obj 359 479 del 1000;
#X msg 359 503 1;
#X obj 395 502 r stopem;
#X msg 395 524 0;
#X obj 369 425 pack s 0;
#X msg 369 453 0 \, open \$1 \$2;
#X obj 127 326 r read1b;
#X obj 238 327 r read1c;
#X obj 353 329 r read2a;
#X obj 353 352 unpack s s s f;
#X obj 362 548 readsf~ 2;
#X obj 436 574 throw~ d1~;
#X msg 414 401 set \$1;
#X obj 521 576 throw~ d1~;
#X msg 555 381 set \$1;
#X obj 513 379 t b s;
#X obj 518 481 del 1000;
#X msg 518 505 1;
#X obj 554 504 r stopem;
#X msg 554 526 0;
#X obj 528 427 pack s 0;
#X msg 528 455 0 \, open \$1 \$2;
#X obj 512 354 unpack s s s f;
#X obj 521 550 readsf~ 2;
#X obj 595 576 throw~ d1~;
#X msg 573 403 set \$1;
#X obj 512 331 r read2b;
#X msg 210 34 \; clearem bang \; read1a fl1to26.aiff d1~ 0;
#X msg 212 106 \; clearem bang \; read1a fl26to86.aiff d1~ 0 \; read1b
bcl26to86.aiff d2~ 0 \; read1c perc.26to86.aiff d3~ 0 \; read2a VlnVc26to86.aiff
d5~ d4~ 0;
#X msg 213 217 \; clearem bang \; read2a pic_bcl_82to137.aiff d1~ d2~
0 \; read1a perc.82to137.aiff d3~ 0 \; read2b VlnVc82to137.aiff d5~
d4~ 0;
#X msg 652 309 \; clearem bang \; read1a fl.266to360.aiff d1~ 700000
\; read1b bcl.266to360.aiff d2~ 700000 \; read2a perc.266to360.aiff
d3~ d3~ 700000 \; read2b VlnVc266to360.aiff d5~ d4~ 700000 \;;
#X obj 691 13 r sf-cadenza2;
#X msg 691 37 \; clearem bang \; read1a flt.cad.2.aiff d1~ \;;
#X obj 690 83 r sf-cadenza3;
#X msg 690 107 \; clearem bang \; read1a flt.cad.3.aiff d1~ \;;
#X obj 689 160 r sf-sec9;
#X msg 689 187 \; clearem bang \; read1a flt.150to237.aiff d1~ \; read1b
bcl.150to267.aiff d2~ \; read2a perc.150-236.aiff d3~ d3~ \; read2b
VlnVc150to267.aiff d5~ d4~ \;;
#X connect 0 0 6 0;
#X connect 1 0 72 0;
#X connect 2 0 3 0;
#X connect 4 0 73 0;
#X connect 5 0 74 0;
#X connect 8 0 7 0;
#X connect 9 0 17 0;
#X connect 10 0 7 0;
#X connect 11 0 12 0;
#X connect 11 1 18 0;
#X connect 12 0 13 0;
#X connect 13 0 8 0;
#X connect 14 0 75 0;
#X connect 15 0 16 0;
#X connect 16 0 8 0;
#X connect 17 0 11 0;
#X connect 17 1 10 0;
#X connect 17 2 18 1;
#X connect 18 0 19 0;
#X connect 19 0 8 0;
#X connect 21 0 20 0;
#X connect 22 0 20 0;
#X connect 23 0 24 0;
#X connect 23 1 29 0;
#X connect 24 0 25 0;
#X connect 25 0 21 0;
#X connect 26 0 27 0;
#X connect 27 0 21 0;
#X connect 28 0 23 0;
#X connect 28 1 22 0;
#X connect 28 2 29 1;
#X connect 29 0 30 0;
#X connect 30 0 21 0;
#X connect 32 0 31 0;
#X connect 33 0 31 0;
#X connect 34 0 35 0;
#X connect 34 1 40 0;
#X connect 35 0 36 0;
#X connect 36 0 32 0;
#X connect 37 0 38 0;
#X connect 38 0 32 0;
#X connect 39 0 34 0;
#X connect 39 1 33 0;
#X connect 39 2 40 1;
#X connect 40 0 41 0;
#X connect 41 0 32 0;
#X connect 43 0 42 0;
#X connect 44 0 45 0;
#X connect 44 1 49 0;
#X connect 45 0 46 0;
#X connect 46 0 55 0;
#X connect 47 0 48 0;
#X connect 48 0 55 0;
#X connect 49 0 50 0;
#X connect 50 0 55 0;
#X connect 51 0 28 0;
#X connect 52 0 39 0;
#X connect 53 0 54 0;
#X connect 54 0 44 0;
#X connect 54 1 43 0;
#X connect 54 2 57 0;
#X connect 54 3 49 1;
#X connect 55 0 42 0;
#X connect 55 1 56 0;
#X connect 57 0 56 0;
#X connect 59 0 58 0;
#X connect 60 0 61 0;
#X connect 60 1 65 0;
#X connect 61 0 62 0;
#X connect 62 0 68 0;
#X connect 63 0 64 0;
#X connect 64 0 68 0;
#X connect 65 0 66 0;
#X connect 66 0 68 0;
#X connect 67 0 60 0;
#X connect 67 1 59 0;
#X connect 67 2 70 0;
#X connect 67 3 65 1;
#X connect 68 0 58 0;
#X connect 68 1 69 0;
#X connect 70 0 69 0;
#X connect 71 0 67 0;
#X connect 76 0 77 0;
#X connect 78 0 79 0;
#X connect 80 0 81 0;
#X restore 181 21 pd;
#N canvas 0 0 838 456 tests 0;
#X obj 6 368 tabplay~ tab-in1;
#X msg 30 65 read -resize /home/msp/bis/sound/house/billie.wav tab-in1
;
#X obj 33 186 soundfiler;
#X obj 33 211 / 44.1;
#X floatatom 33 244 0 0 0 0 - - -;
#X obj 337 20 bng 15 250 50 0 empty empty empty 20 8 0 10 -262144 -1
-1;
#X obj 2 314 metro;
#X obj 2 287 tgl 15 0 empty empty empty 20 8 0 10 -262144 -1 -1 0 1
;
#X msg 2 340 0;
#X obj 60 315 sel 0;
#X obj 4 415 throw~ d1~;
#X msg 60 340 stop;
#X msg 94 244 5430;
#X obj 171 202 soundfiler;
#X obj 171 227 / 44.1;
#X floatatom 171 251 6 0 0 0 - - -;
#X obj 137 314 metro;
#X obj 137 287 tgl 15 0 empty empty empty 20 8 0 10 -262144 -1 -1 0
1;
#X msg 137 340 0;
#X obj 195 315 sel 0;
#X msg 195 340 stop;
#X msg 165 88 read -resize /home/msp/bis/sound/house/ondar.wav tab-in2
;
#X obj 141 368 tabplay~ tab-in2;
#X obj 141 418 throw~ d2~;
#X obj 418 202 soundfiler;
#X obj 418 227 / 44.1;
#X floatatom 418 256 6 0 0 0 - - -;
#X obj 415 319 metro;
#X obj 415 292 tgl 15 0 empty empty empty 20 8 0 10 -262144 -1 -1 0
1;
#X obj 473 320 sel 0;
#X msg 473 345 stop;
#X obj 419 399 throw~ d4~;
#X msg 415 345 4700;
#X msg 475 256 11091;
#X obj 419 373 tabplay~ tab-in4;
#X msg 324 142 read -resize /home/msp/bis/sound/house/joni.wav tab-in4
;
#X obj 140 393 *~ 4;
#X obj 566 212 soundfiler;
#X obj 566 237 / 44.1;
#X floatatom 565 260 6 0 0 0 - - -;
#X obj 536 320 metro;
#X obj 536 293 tgl 15 0 empty empty empty 20 8 0 10 -262144 -1 -1 0
1;
#X obj 594 321 sel 0;
#X msg 594 346 stop;
#X msg 388 164 read -resize /home/msp/bis/sound/ham/Hamburger.wav tab-in5
;
#X obj 540 374 tabplay~ tab-in5;
#X obj 540 420 throw~ d5~;
#X msg 536 346 0;
#X obj 734 272 tgl 15 0 empty empty empty 20 8 0 10 -262144 -1 -1 0
1;
#X obj 540 397 *~ 2;
#X msg 205 117 read -resize /home/msp/bis/sound/house/nusrat.wav tab-in3
;
#X obj 309 205 soundfiler;
#X obj 309 230 / 44.1;
#X floatatom 309 254 6 0 0 0 - - -;
#X obj 275 317 metro;
#X obj 275 290 tgl 15 0 empty empty empty 20 8 0 10 -262144 -1 -1 0
1;
#X msg 275 343 0;
#X obj 333 318 sel 0;
#X msg 333 343 stop;
#X obj 279 371 tabplay~ tab-in3;
#X obj 278 396 *~ 2;
#X obj 279 421 throw~ d3~;
#X obj 5 393 *~ 0.7;
#X msg 736 354 0;
#X obj 736 330 r playem;
#X obj 685 309 r stopem;
#X obj 683 331 bng 15 250 50 0 empty empty empty 20 8 0 8 -262144 -1
-1;
#X connect 0 0 62 0;
#X connect 1 0 2 0;
#X connect 2 0 3 0;
#X connect 3 0 4 0;
#X connect 3 0 12 0;
#X connect 5 0 21 0;
#X connect 5 0 35 0;
#X connect 5 0 44 0;
#X connect 5 0 1 0;
#X connect 5 0 50 0;
#X connect 6 0 8 0;
#X connect 7 0 6 0;
#X connect 7 0 9 0;
#X connect 8 0 0 0;
#X connect 9 0 11 0;
#X connect 11 0 0 0;
#X connect 12 0 6 1;
#X connect 13 0 14 0;
#X connect 14 0 15 0;
#X connect 15 0 16 1;
#X connect 16 0 18 0;
#X connect 17 0 16 0;
#X connect 17 0 19 0;
#X connect 18 0 22 0;
#X connect 19 0 20 0;
#X connect 20 0 22 0;
#X connect 21 0 13 0;
#X connect 22 0 36 0;
#X connect 24 0 25 0;
#X connect 25 0 26 0;
#X connect 25 0 33 0;
#X connect 27 0 32 0;
#X connect 28 0 27 0;
#X connect 28 0 29 0;
#X connect 29 0 30 0;
#X connect 30 0 34 0;
#X connect 32 0 34 0;
#X connect 33 0 27 1;
#X connect 34 0 31 0;
#X connect 35 0 24 0;
#X connect 36 0 23 0;
#X connect 37 0 38 0;
#X connect 38 0 39 0;
#X connect 39 0 40 1;
#X connect 40 0 47 0;
#X connect 41 0 40 0;
#X connect 41 0 42 0;
#X connect 42 0 43 0;
#X connect 43 0 45 0;
#X connect 44 0 37 0;
#X connect 45 0 49 0;
#X connect 47 0 45 0;
#X connect 48 0 7 0;
#X connect 48 0 17 0;
#X connect 48 0 28 0;
#X connect 48 0 41 0;
#X connect 48 0 55 0;
#X connect 49 0 46 0;
#X connect 50 0 51 0;
#X connect 51 0 52 0;
#X connect 52 0 53 0;
#X connect 53 0 54 1;
#X connect 54 0 56 0;
#X connect 55 0 54 0;
#X connect 55 0 57 0;
#X connect 56 0 59 0;
#X connect 57 0 58 0;
#X connect 58 0 59 0;
#X connect 59 0 60 0;
#X connect 60 0 61 0;
#X connect 62 0 10 0;
#X connect 63 0 45 0;
#X connect 63 0 34 0;
#X connect 63 0 59 0;
#X connect 63 0 22 0;
#X connect 63 0 0 0;
#X connect 64 0 63 0;
#X connect 65 0 66 0;
#X connect 66 0 43 0;
#X connect 66 0 30 0;
#X connect 66 0 58 0;
#X connect 66 0 20 0;
#X connect 66 0 11 0;
#X restore 181 44 pd tests;
