#N canvas 61 34 453 297 10;
#X obj 25 212 inlet~;
#X obj 157 36 r \$1;
#X msg 207 54 set \$1;
#X floatatom 207 76 5 0 0;
#X obj 207 98 s \$1;
#X obj 25 261 outlet~;
#X obj 25 237 *~;
#X obj 312 132 r reset;
#X msg 312 157 0;
#X obj 312 181 s \$1;
#X obj 398 138 inlet~;
#X text 397 98 order;
#X text 397 114 forcer;
#X obj 108 97 unpack;
#X obj 108 75 t l b;
#X obj 156 97 30;
#X obj 117 191 line~;
#X obj 90 120 dbtorms;
#X obj 90 142 sqrt;
#X obj 90 164 sqrt;
#X obj 117 216 *~;
#X obj 117 240 *~;
#X connect 0 0 6 0;
#X connect 1 0 2 0;
#X connect 1 0 14 0;
#X connect 2 0 3 0;
#X connect 3 0 4 0;
#X connect 6 0 5 0;
#X connect 7 0 8 0;
#X connect 8 0 9 0;
#X connect 13 0 17 0;
#X connect 13 1 16 1;
#X connect 14 0 13 0;
#X connect 14 1 15 0;
#X connect 15 0 16 1;
#X connect 16 0 20 0;
#X connect 16 0 20 1;
#X connect 17 0 18 0;
#X connect 18 0 19 0;
#X connect 19 0 16 0;
#X connect 20 0 21 0;
#X connect 20 0 21 1;
#X connect 21 0 6 1;
