#N canvas 159 14 830 631 10;
#X obj 62 262 inlet~;
#X msg 213 408 set \$1;
#X floatatom 213 434 3 0 100 0 - - -;
#X obj 119 524 line~;
#X obj 119 412 min 100;
#X obj 119 442 max 0;
#X obj 119 469 / 100;
#X obj 119 496 pack 0 50;
#X obj 77 557 *~;
#X obj 61 582 +~;
#X text 72 0 args:;
#X obj 61 604 delwrite-thru~ \$0-delay 1000;
#X text 92 19 delay time;
#X text 94 39 feedback;
#X text 92 172 switch;
#X text 93 129 spatial;
#X text 91 152 spread;
#X text 94 60 level;
#X text 95 84 reverb send catch name;
#X obj 155 381 r \$2;
#X obj 213 458 s \$2;
#X text 73 106 5;
#X text 69 196 9;
#X text 74 20 1;
#X obj 78 292 delay-tap~ \$0-delay \$1 \$8-change;
#X obj 548 245 unpack;
#X obj 548 222 t l b;
#X obj 596 245 30;
#X obj 495 380 spat-hat 30;
#X obj 404 380 spat-hat 10;
#X obj 587 381 spat-hat 50;
#X obj 677 381 spat-hat 70;
#X obj 771 383 f;
#X obj 404 421 line~;
#X obj 495 423 line~;
#X obj 587 427 line~;
#X obj 677 428 line~;
#X obj 388 483 *~;
#X obj 478 484 *~;
#X obj 570 486 *~;
#X obj 661 487 *~;
#X obj 351 229 r \$3;
#X obj 351 278 expr $f1 * $f1 * $f1 * $f1;
#X obj 351 303 pack 0 30;
#X obj 378 327 line~;
#X obj 362 434 *~;
#X msg 625 197 set \$1;
#X floatatom 625 219 5 0 0 0 - - -;
#X obj 625 241 s \$1;
#X obj 388 531 throw~ out4~;
#X obj 478 531 throw~ out1~;
#X obj 570 531 throw~ out2~;
#X obj 661 531 throw~ out3~;
#X obj 362 554 send-to~ \$4 \$5;
#X text 91 105 reverb send level;
#X obj 548 200 r \$6;
#X obj 692 238 unpack;
#X obj 692 215 t l b;
#X obj 740 238 30;
#X msg 769 190 set \$1;
#X floatatom 769 212 5 0 0 0 - - -;
#X obj 769 234 s \$1;
#X obj 692 193 r \$7;
#X obj 691 265 * \$9;
#X text 93 193 spread multiplier;
#X obj 600 300 t b f;
#X obj 590 328 +;
#X text 390 34 no reset handler here -- it's all done in other windows
using the same control names...;
#X obj 351 254 / 90;
#X connect 0 0 9 0;
#X connect 1 0 2 0;
#X connect 2 0 20 0;
#X connect 3 0 8 1;
#X connect 4 0 5 0;
#X connect 5 0 6 0;
#X connect 6 0 7 0;
#X connect 7 0 3 0;
#X connect 8 0 9 1;
#X connect 9 0 11 0;
#X connect 19 0 1 0;
#X connect 19 0 4 0;
#X connect 24 0 8 0;
#X connect 24 0 45 0;
#X connect 25 0 66 0;
#X connect 25 1 32 0;
#X connect 26 0 25 0;
#X connect 26 1 27 0;
#X connect 27 0 32 0;
#X connect 28 0 34 0;
#X connect 29 0 33 0;
#X connect 30 0 35 0;
#X connect 31 0 36 0;
#X connect 32 0 33 1;
#X connect 32 0 36 1;
#X connect 32 0 35 1;
#X connect 32 0 34 1;
#X connect 33 0 37 1;
#X connect 34 0 38 1;
#X connect 35 0 39 1;
#X connect 36 0 40 1;
#X connect 37 0 49 0;
#X connect 38 0 50 0;
#X connect 39 0 51 0;
#X connect 40 0 52 0;
#X connect 41 0 68 0;
#X connect 42 0 43 0;
#X connect 43 0 44 0;
#X connect 44 0 45 1;
#X connect 45 0 38 0;
#X connect 45 0 39 0;
#X connect 45 0 40 0;
#X connect 45 0 37 0;
#X connect 45 0 53 0;
#X connect 46 0 47 0;
#X connect 47 0 48 0;
#X connect 55 0 26 0;
#X connect 55 0 46 0;
#X connect 56 0 63 0;
#X connect 56 1 32 0;
#X connect 57 0 56 0;
#X connect 57 1 58 0;
#X connect 58 0 32 0;
#X connect 59 0 60 0;
#X connect 60 0 61 0;
#X connect 62 0 57 0;
#X connect 62 0 59 0;
#X connect 63 0 65 0;
#X connect 65 0 66 0;
#X connect 65 1 66 1;
#X connect 66 0 29 0;
#X connect 66 0 28 0;
#X connect 66 0 30 0;
#X connect 66 0 31 0;
#X connect 68 0 42 0;
