#N canvas 132 35 639 399 10;
#X obj 66 191 delread~ \$1;
#X obj 66 163 r \$2;
#X obj 173 192 line~;
#X obj 183 146 del;
#X obj 158 88 sel 0;
#X msg 143 116 0 30;
#X msg 221 116 bang;
#X msg 183 169 1 30;
#X msg 182 116 stop;
#X obj 216 145 r \$1;
#X obj 66 223 *~;
#X obj 66 275 outlet~;
#X obj 293 56 r reset;
#X msg 293 79 0;
#X obj 293 103 s \$2;
#X msg 11 185 set \$1;
#X floatatom 11 208 3 0 100;
#X obj 11 231 s \$1;
#X obj 241 195 r \$3;
#X obj 241 284 / 127;
#X obj 241 308 expr $f1 * $f1 * $f1 * $f1;
#X obj 241 330 pack 0 30;
#X obj 241 357 line~;
#X msg 254 217 set \$1;
#X floatatom 254 239 5 0 0;
#X obj 254 261 s \$3;
#X obj 66 249 *~;
#X obj 158 64 r \$4;
#X connect 0 0 10 0;
#X connect 1 0 0 0;
#X connect 1 0 15 0;
#X connect 2 0 10 1;
#X connect 3 0 7 0;
#X connect 4 0 5 0;
#X connect 4 0 8 0;
#X connect 4 1 6 0;
#X connect 5 0 2 0;
#X connect 6 0 3 0;
#X connect 7 0 2 0;
#X connect 8 0 3 0;
#X connect 9 0 3 1;
#X connect 10 0 26 0;
#X connect 12 0 13 0;
#X connect 13 0 14 0;
#X connect 15 0 16 0;
#X connect 16 0 17 0;
#X connect 18 0 19 0;
#X connect 18 0 23 0;
#X connect 19 0 20 0;
#X connect 20 0 21 0;
#X connect 21 0 22 0;
#X connect 22 0 26 1;
#X connect 23 0 24 0;
#X connect 24 0 25 0;
#X connect 26 0 11 0;
#X connect 27 0 4 0;
