#N canvas 132 35 639 399 10;
#X obj 66 191 delread~ \$1;
#X obj 66 163 r \$2;
#X obj 173 192 line~;
#X obj 183 146 del;
#X obj 158 88 sel 0;
#X msg 143 116 0 30;
#X msg 221 116 bang;
#X msg 183 169 1 30;
#X msg 182 116 stop;
#X obj 216 145 r \$1;
#X obj 66 223 *~;
#X obj 66 250 outlet~;
#X obj 293 56 r reset;
#X msg 293 79 0;
#X obj 293 103 s \$2;
#X msg 11 185 set \$1;
#X floatatom 11 208 3 0 100;
#X obj 11 231 s \$1;
#X obj 158 64 r \$3;
#X connect 0 0 10 0;
#X connect 1 0 0 0;
#X connect 1 0 15 0;
#X connect 2 0 10 1;
#X connect 3 0 7 0;
#X connect 4 0 5 0;
#X connect 4 0 8 0;
#X connect 4 1 6 0;
#X connect 5 0 2 0;
#X connect 6 0 3 0;
#X connect 7 0 2 0;
#X connect 8 0 3 0;
#X connect 9 0 3 1;
#X connect 10 0 11 0;
#X connect 12 0 13 0;
#X connect 13 0 14 0;
#X connect 15 0 16 0;
#X connect 16 0 17 0;
#X connect 18 0 4 0;
