#N canvas 0 0 273 188 10;
#X obj 42 34 r \$1;
#X msg 42 61 set \$1;
#X obj 42 88 outlet;
#X obj 167 58 f;
#X obj 136 65 f;
#X obj 120 88 symbol \$1;
#X obj 119 28 t b b;
#X obj 121 114 pack s f;
#X obj 121 138 s snap-rtn;
#X obj 118 4 r snap-query;
#X connect 0 0 1 0;
#X connect 0 0 3 0;
#X connect 1 0 2 0;
#X connect 3 0 4 1;
#X connect 4 0 7 1;
#X connect 5 0 7 0;
#X connect 6 0 5 0;
#X connect 6 1 4 0;
#X connect 7 0 8 0;
#X connect 9 0 6 0;
