#N canvas 393 322 448 639 10;
#X obj 92 424 *~;
#X obj 229 439 *~;
#X text 333 311 delay (msec);
#X obj 136 276 phasor~;
#X obj 92 444 +~;
#X obj 222 317 wrap~;
#X obj 222 297 +~ 0.5;
#X obj 296 389 cos~;
#X obj 296 409 +~ 1;
#X obj 296 429 *~ 0.5;
#X obj 150 367 cos~;
#X obj 150 387 +~ 1;
#X obj 150 407 *~ 0.5;
#X text 14 27 receive name for pitch shift (cents);
#X text 14 44 receive name for window (msec);
#X text 14 61 receive name for delay (msec);
#X obj 136 159 exp;
#X obj 136 256 /;
#X obj 78 196 * 0.001;
#X obj 78 216 t b f;
#X obj 136 179 - 1;
#X obj 136 199 * -1;
#X obj 93 312 *~ 0;
#X obj 229 379 *~ 0;
#X obj 93 332 +~ 0;
#X obj 229 399 +~ 0;
#X msg 236 138 set \$1;
#X floatatom 236 158 5 0 0;
#X text 236 197 shift;
#X msg 23 284 set \$1;
#X floatatom 23 304 5 0 0;
#X msg 355 359 set \$1;
#X floatatom 355 379 5 0 0;
#X text 23 343 window;
#X text 355 418 delay;
#X obj 25 125 inlet~;
#X obj 92 596 outlet~;
#X text 14 10 delay line name;
#X obj 92 373 vd~ \$1;
#X obj 229 419 vd~ \$1;
#X obj 136 119 r \$2;
#X obj 236 178 s \$2;
#X obj 56 249 r \$3;
#X obj 23 324 s \$3;
#X obj 333 329 r \$4;
#X obj 355 399 s \$4;
#X obj 209 602 line~;
#X obj 92 572 *~;
#X obj 298 485 r \$4;
#X obj 326 505 r \$3;
#X obj 306 529 t b f;
#X obj 298 553 +;
#X obj 219 556 del;
#X text 13 79 receive name for switch (used for muting only \, no real
switch.);
#X obj 194 474 r \$5;
#X obj 194 498 sel 0;
#X msg 179 526 0 30;
#X msg 257 526 bang;
#X msg 219 579 1 30;
#X msg 218 526 stop;
#X obj 136 139 * 0.0005776;
#X obj 326 134 r reset;
#X msg 327 159 0;
#X msg 365 158 100;
#X obj 333 184 s \$2;
#X obj 365 181 s \$3;
#X obj 327 204 s \$4;
#X connect 0 0 4 0;
#X connect 1 0 4 1;
#X connect 3 0 6 0;
#X connect 3 0 7 0;
#X connect 3 0 22 0;
#X connect 4 0 47 0;
#X connect 5 0 10 0;
#X connect 5 0 23 0;
#X connect 6 0 5 0;
#X connect 7 0 8 0;
#X connect 8 0 9 0;
#X connect 9 0 1 1;
#X connect 10 0 11 0;
#X connect 11 0 12 0;
#X connect 12 0 0 1;
#X connect 16 0 20 0;
#X connect 17 0 3 0;
#X connect 18 0 19 0;
#X connect 19 0 17 0;
#X connect 19 1 17 1;
#X connect 20 0 21 0;
#X connect 21 0 17 0;
#X connect 22 0 24 0;
#X connect 23 0 25 0;
#X connect 24 0 38 0;
#X connect 25 0 39 0;
#X connect 26 0 27 0;
#X connect 27 0 41 0;
#X connect 29 0 30 0;
#X connect 30 0 43 0;
#X connect 31 0 32 0;
#X connect 32 0 45 0;
#X connect 38 0 0 0;
#X connect 39 0 1 0;
#X connect 40 0 26 0;
#X connect 40 0 60 0;
#X connect 42 0 18 0;
#X connect 42 0 22 1;
#X connect 42 0 23 1;
#X connect 42 0 29 0;
#X connect 44 0 24 1;
#X connect 44 0 25 1;
#X connect 44 0 31 0;
#X connect 46 0 47 1;
#X connect 47 0 36 0;
#X connect 48 0 51 0;
#X connect 49 0 50 0;
#X connect 50 0 51 0;
#X connect 50 1 51 1;
#X connect 51 0 52 1;
#X connect 52 0 58 0;
#X connect 54 0 55 0;
#X connect 55 0 56 0;
#X connect 55 0 59 0;
#X connect 55 1 57 0;
#X connect 56 0 46 0;
#X connect 57 0 52 0;
#X connect 58 0 46 0;
#X connect 59 0 52 0;
#X connect 60 0 16 0;
#X connect 61 0 62 0;
#X connect 61 0 63 0;
#X connect 62 0 64 0;
#X connect 62 0 66 0;
#X connect 63 0 65 0;
