#N canvas 126 122 682 616 10;
#X obj 63 309 delread~ \$0-ref6 13.645;
#X obj 63 287 delwrite~ \$0-ref6 13.645;
#X obj 63 265 delread~ \$0-ref5 16.364;
#X obj 63 243 delwrite~ \$0-ref5 16.364;
#X obj 63 221 delread~ \$0-ref4 19.392;
#X obj 63 199 delwrite~ \$0-ref4 19.392;
#X obj 63 177 delread~ \$0-ref3 25.796;
#X obj 63 155 delwrite~ \$0-ref3 25.796;
#X obj 63 133 delread~ \$0-ref2 43.5337;
#X obj 63 111 delwrite~ \$0-ref2 43.5337;
#X obj 63 89 delread~ \$0-ref1 75.2546;
#X obj 240 428 +~;
#X obj 536 158 inlet;
#X obj 228 328 *~;
#X obj 505 332 *~;
#X obj 320 332 *~;
#X obj 413 332 *~;
#X obj 504 473 -~;
#X obj 427 472 -~;
#X obj 323 465 +~;
#X obj 240 462 +~;
#X obj 218 383 +~;
#X obj 271 381 +~;
#X obj 518 431 -~;
#X obj 441 427 +~;
#X obj 323 431 -~;
#X obj 16 335 inlet;
#X obj 15 460 line~;
#X obj 537 274 line~;
#X obj 298 171 delread~ \$0-del1 58.6435;
#X obj 303 193 delread~ \$0-del2 69.4325;
#X obj 317 218 delread~ \$0-del3 74.5234;
#X obj 351 248 delread~ \$0-del4 86.1244;
#X obj 33 115 -~;
#X obj 6 115 +~;
#X obj 6 158 +~;
#X obj 33 158 -~;
#X obj 33 201 -~;
#X obj 6 201 +~;
#X obj 33 244 -~;
#X obj 6 244 +~;
#X obj 17 285 -~;
#X obj 15 481 *~;
#X obj 17 307 +~;
#X obj 87 485 *~;
#X obj 244 496 delwrite~ \$0-del1 58.6435;
#X obj 251 528 delwrite~ \$0-del2 69.4325;
#X obj 436 496 delwrite~ \$0-del3 74.5234;
#X obj 446 528 delwrite~ \$0-del4 86.1244;
#X obj 537 252 pack 0 50;
#X obj 537 180 max 0;
#X obj 537 206 min 100;
#X obj 9 27 inlet~;
#X obj 15 506 outlet~;
#X obj 87 507 outlet~;
#X obj 537 230 / 200;
#X obj 63 67 delwrite~ \$0-ref1 75.2546;
#X obj 15 431 pack 0 30;
#X obj 63 28 inlet~;
#X obj 16 360 / 127;
#X obj 16 384 expr $f1 * $f1 * $f1 * $f1;
#X obj 15 408 * 0.177;
#X connect 0 0 22 0;
#X connect 2 0 43 1;
#X connect 2 0 41 1;
#X connect 4 0 40 1;
#X connect 4 0 39 1;
#X connect 6 0 38 1;
#X connect 6 0 37 1;
#X connect 8 0 35 1;
#X connect 8 0 36 1;
#X connect 10 0 34 1;
#X connect 10 0 33 1;
#X connect 11 0 20 0;
#X connect 11 0 18 0;
#X connect 12 0 50 0;
#X connect 13 0 21 1;
#X connect 14 0 23 1;
#X connect 14 0 24 1;
#X connect 15 0 22 1;
#X connect 16 0 24 0;
#X connect 16 0 23 0;
#X connect 17 0 48 0;
#X connect 18 0 47 0;
#X connect 19 0 46 0;
#X connect 20 0 45 0;
#X connect 21 0 25 0;
#X connect 21 0 11 0;
#X connect 21 0 42 1;
#X connect 22 0 11 1;
#X connect 22 0 25 1;
#X connect 22 0 44 1;
#X connect 23 0 19 1;
#X connect 23 0 17 1;
#X connect 24 0 20 1;
#X connect 24 0 18 1;
#X connect 25 0 19 0;
#X connect 25 0 17 0;
#X connect 26 0 59 0;
#X connect 27 0 42 0;
#X connect 27 0 44 0;
#X connect 28 0 15 1;
#X connect 28 0 13 1;
#X connect 28 0 16 1;
#X connect 28 0 14 1;
#X connect 29 0 13 0;
#X connect 30 0 15 0;
#X connect 31 0 16 0;
#X connect 32 0 14 0;
#X connect 33 0 9 0;
#X connect 34 0 36 0;
#X connect 34 0 35 0;
#X connect 35 0 38 0;
#X connect 35 0 37 0;
#X connect 36 0 7 0;
#X connect 37 0 5 0;
#X connect 38 0 40 0;
#X connect 38 0 39 0;
#X connect 39 0 3 0;
#X connect 40 0 43 0;
#X connect 40 0 41 0;
#X connect 41 0 1 0;
#X connect 42 0 53 0;
#X connect 43 0 21 0;
#X connect 44 0 54 0;
#X connect 49 0 28 0;
#X connect 50 0 51 0;
#X connect 51 0 55 0;
#X connect 52 0 33 0;
#X connect 52 0 34 0;
#X connect 55 0 49 0;
#X connect 57 0 27 0;
#X connect 58 0 56 0;
#X connect 59 0 60 0;
#X connect 60 0 61 0;
#X connect 61 0 57 0;
