#N canvas 105 349 450 300 10;
#X obj 46 42 inlet~;
#X obj 50 194 outlet~;
#X msg 240 43 set \$1;
#X floatatom 240 69 3 0 100;
#X obj 152 56 dbtorms;
#X obj 152 85 pack 0 50;
#X obj 152 110 line~;
#X obj 126 133 *~;
#X obj 126 161 throw~ \$1;
#X obj 240 16 r \$2;
#X obj 240 96 s \$2;
#X connect 0 0 7 0;
#X connect 0 0 1 0;
#X connect 2 0 3 0;
#X connect 3 0 10 0;
#X connect 4 0 5 0;
#X connect 5 0 6 0;
#X connect 6 0 7 1;
#X connect 7 0 8 0;
#X connect 9 0 2 0;
#X connect 9 0 4 0;
