#N canvas 45 331 688 532 10;
#X obj 210 112 r \$1;
#X text 137 30 \$2 - receive name for diffusion \, 0-9;
#X obj 442 173 r \$2;
#X text 137 10 \$1 - receive name for pan. 10-90 is full circle;
#X obj 210 157 unpack;
#X obj 210 134 t l b;
#X obj 258 157 30;
#X obj 15 320 inlet~;
#X obj 15 490 outlet~;
#X obj 157 214 spat-hat 30;
#X obj 66 214 spat-hat 10;
#X obj 249 215 spat-hat 50;
#X obj 339 215 spat-hat 70;
#X obj 400 238 f;
#X obj 66 274 line~;
#X obj 157 276 line~;
#X obj 249 280 line~;
#X obj 339 281 line~;
#X obj 442 219 unpack;
#X obj 442 197 t l b;
#X obj 490 219 30;
#X obj 435 282 line~;
#X obj 66 326 *~;
#X obj 66 234 - 0.5;
#X obj 157 234 - 0.5;
#X obj 249 236 - 0.5;
#X obj 339 237 - 0.5;
#X obj 66 346 +~ 0.5;
#X obj 157 327 *~;
#X obj 157 348 +~ 0.5;
#X obj 249 327 *~;
#X obj 249 348 +~ 0.5;
#X obj 339 329 *~;
#X obj 339 350 +~ 0.5;
#X obj 49 394 *~;
#X obj 139 395 *~;
#X obj 231 397 *~;
#X obj 322 398 *~;
#X obj 558 29 r reset;
#X obj 495 356 inlet~;
#X text 496 329 dummy;
#X obj 12 73 r \$3;
#X text 137 49 \$3 - receive name for level \, 0-127;
#X obj 12 122 expr $f1 * $f1 * $f1 * $f1;
#X obj 12 147 pack 0 30;
#X obj 39 171 line~;
#X obj 23 345 *~;
#X msg 287 109 set \$1;
#X floatatom 287 131 5 0 0 0 - - -;
#X obj 287 153 s \$1;
#X obj 49 442 throw~ out4~;
#X obj 139 442 throw~ out1~;
#X obj 231 442 throw~ out2~;
#X obj 322 442 throw~ out3~;
#X msg 533 171 set \$1;
#X floatatom 533 193 5 0 0 0 - - -;
#X obj 533 215 s \$2;
#X text 137 67 \$4 - reverb channel;
#X text 137 85 \$5 - receive name \, reverb send;
#X obj 23 465 send-to~ \$4 \$5;
#X obj 435 241 expr 1 - min(20 \, max(0 \, $f1))/20;
#X msg 521 73 40;
#X obj 521 97 s \$1;
#X msg 560 75 0;
#X obj 560 98 s \$2;
#X obj 598 99 s \$5;
#X obj 12 98 / 90;
#X connect 0 0 5 0;
#X connect 0 0 47 0;
#X connect 2 0 19 0;
#X connect 2 0 54 0;
#X connect 4 0 10 0;
#X connect 4 0 9 0;
#X connect 4 0 11 0;
#X connect 4 0 12 0;
#X connect 4 1 13 0;
#X connect 5 0 4 0;
#X connect 5 1 6 0;
#X connect 6 0 13 0;
#X connect 7 0 46 0;
#X connect 7 0 8 0;
#X connect 9 0 24 0;
#X connect 10 0 23 0;
#X connect 11 0 25 0;
#X connect 12 0 26 0;
#X connect 13 0 14 1;
#X connect 13 0 17 1;
#X connect 13 0 16 1;
#X connect 13 0 15 1;
#X connect 14 0 22 0;
#X connect 15 0 28 0;
#X connect 16 0 30 0;
#X connect 17 0 32 0;
#X connect 18 0 60 0;
#X connect 18 1 21 1;
#X connect 19 0 18 0;
#X connect 19 1 20 0;
#X connect 20 0 21 1;
#X connect 21 0 22 1;
#X connect 21 0 28 1;
#X connect 21 0 30 1;
#X connect 21 0 32 1;
#X connect 22 0 27 0;
#X connect 23 0 14 0;
#X connect 24 0 15 0;
#X connect 25 0 16 0;
#X connect 26 0 17 0;
#X connect 27 0 34 1;
#X connect 28 0 29 0;
#X connect 29 0 35 1;
#X connect 30 0 31 0;
#X connect 31 0 36 1;
#X connect 32 0 33 0;
#X connect 33 0 37 1;
#X connect 34 0 50 0;
#X connect 35 0 51 0;
#X connect 36 0 52 0;
#X connect 37 0 53 0;
#X connect 38 0 61 0;
#X connect 38 0 63 0;
#X connect 41 0 66 0;
#X connect 43 0 44 0;
#X connect 44 0 45 0;
#X connect 45 0 46 1;
#X connect 46 0 35 0;
#X connect 46 0 36 0;
#X connect 46 0 37 0;
#X connect 46 0 34 0;
#X connect 46 0 59 0;
#X connect 47 0 48 0;
#X connect 48 0 49 0;
#X connect 54 0 55 0;
#X connect 55 0 56 0;
#X connect 60 0 21 0;
#X connect 61 0 62 0;
#X connect 63 0 64 0;
#X connect 63 0 65 0;
#X connect 66 0 43 0;
