#N canvas 45 183 931 629 10;
#X obj 274 132 r \$1;
#X obj 369 141 r \$2;
#X obj 274 223 unpack;
#X obj 274 195 t l b;
#X obj 322 223 30;
#X obj 174 356 spat-hat 30;
#X obj 83 356 spat-hat 10;
#X obj 266 357 spat-hat 50;
#X obj 356 357 spat-hat 70;
#X obj 423 383 f;
#X obj 83 431 line~;
#X obj 174 433 line~;
#X obj 266 438 line~;
#X obj 356 439 line~;
#X obj 369 199 unpack;
#X obj 369 171 t l b;
#X obj 417 199 30;
#X obj 67 516 *~;
#X obj 157 517 *~;
#X obj 249 519 *~;
#X obj 340 520 *~;
#X obj 560 134 r reset;
#X obj 369 225 t b f;
#X obj 269 297 +;
#X obj 538 356 spat-hat 30;
#X obj 447 356 spat-hat 10;
#X obj 630 357 spat-hat 50;
#X obj 720 357 spat-hat 70;
#X obj 447 431 line~;
#X obj 538 433 line~;
#X obj 630 438 line~;
#X obj 720 439 line~;
#X obj 431 516 *~;
#X obj 522 517 *~;
#X obj 613 519 *~;
#X obj 704 520 *~;
#X obj 447 299 -;
#X obj 67 545 throw~ out4~;
#X obj 157 545 throw~ out1~;
#X obj 249 545 throw~ out2~;
#X obj 340 545 throw~ out3~;
#X obj 431 545 throw~ out4~;
#X obj 522 545 throw~ out1~;
#X obj 613 545 throw~ out2~;
#X obj 704 545 throw~ out3~;
#X obj 28 217 r \$3;
#X obj 28 240 / 127;
#X obj 28 264 expr $f1 * $f1 * $f1 * $f1;
#X obj 28 286 pack 0 30;
#X obj 29 454 line~;
#X obj 99 477 *~;
#X obj 464 474 *~;
#X obj 125 448 inlet~;
#X obj 492 454 inlet~;
#X msg 217 235 set \$1;
#X floatatom 217 257 5 0 0;
#X obj 217 279 s \$3;
#X msg 315 137 set \$1;
#X floatatom 315 159 5 0 0;
#X msg 444 144 set \$1;
#X floatatom 444 166 5 0 0;
#X obj 315 181 s \$1;
#X obj 444 188 s \$2;
#X text 174 8 \$1 - pan. 10-90 is full circle;
#X text 174 25 \$2 - spread \, 0-20;
#X text 174 42 \$3 - level \, 0-127;
#X obj 17 142 / 127;
#X obj 17 166 expr $f1 * $f1 * $f1 * $f1;
#X obj 17 188 pack 0 30;
#X msg 206 137 set \$1;
#X floatatom 206 159 5 0 0;
#X obj 18 555 line~;
#X obj 17 119 r \$4;
#X obj 206 181 s \$4;
#X obj 83 580 *~;
#X obj 448 573 *~;
#X obj 84 603 throw~ revsend1~;
#X obj 448 598 throw~ revsend2~;
#X text 174 62 \$4 - reverb send \, 0-100;
#X msg 561 165 0;
#X obj 562 189 s \$2;
#X msg 526 166 40;
#X obj 526 189 s \$1;
#X connect 0 0 57 0;
#X connect 0 0 3 0;
#X connect 1 0 15 0;
#X connect 1 0 59 0;
#X connect 2 0 23 0;
#X connect 2 0 36 0;
#X connect 2 1 9 0;
#X connect 3 0 2 0;
#X connect 3 1 4 0;
#X connect 4 0 9 0;
#X connect 5 0 11 0;
#X connect 6 0 10 0;
#X connect 7 0 12 0;
#X connect 8 0 13 0;
#X connect 9 0 10 1;
#X connect 9 0 13 1;
#X connect 9 0 12 1;
#X connect 9 0 11 1;
#X connect 9 0 28 1;
#X connect 9 0 29 1;
#X connect 9 0 30 1;
#X connect 9 0 31 1;
#X connect 10 0 17 1;
#X connect 11 0 18 1;
#X connect 12 0 19 1;
#X connect 13 0 20 1;
#X connect 14 0 22 0;
#X connect 14 1 9 0;
#X connect 15 0 14 0;
#X connect 15 1 16 0;
#X connect 16 0 9 0;
#X connect 17 0 37 0;
#X connect 18 0 38 0;
#X connect 19 0 39 0;
#X connect 20 0 40 0;
#X connect 21 0 81 0;
#X connect 21 0 79 0;
#X connect 22 0 23 0;
#X connect 22 0 36 0;
#X connect 22 1 23 1;
#X connect 22 1 36 1;
#X connect 23 0 6 0;
#X connect 23 0 5 0;
#X connect 23 0 7 0;
#X connect 23 0 8 0;
#X connect 24 0 29 0;
#X connect 25 0 28 0;
#X connect 26 0 30 0;
#X connect 27 0 31 0;
#X connect 28 0 32 1;
#X connect 29 0 33 1;
#X connect 30 0 34 1;
#X connect 31 0 35 1;
#X connect 32 0 41 0;
#X connect 33 0 42 0;
#X connect 34 0 43 0;
#X connect 35 0 44 0;
#X connect 36 0 25 0;
#X connect 36 0 24 0;
#X connect 36 0 26 0;
#X connect 36 0 27 0;
#X connect 45 0 46 0;
#X connect 45 0 54 0;
#X connect 46 0 47 0;
#X connect 47 0 48 0;
#X connect 48 0 49 0;
#X connect 49 0 50 0;
#X connect 49 0 51 0;
#X connect 50 0 17 0;
#X connect 50 0 18 0;
#X connect 50 0 19 0;
#X connect 50 0 20 0;
#X connect 50 0 74 1;
#X connect 51 0 32 0;
#X connect 51 0 33 0;
#X connect 51 0 34 0;
#X connect 51 0 35 0;
#X connect 51 0 75 1;
#X connect 52 0 50 1;
#X connect 53 0 51 1;
#X connect 54 0 55 0;
#X connect 55 0 56 0;
#X connect 57 0 58 0;
#X connect 58 0 61 0;
#X connect 59 0 60 0;
#X connect 60 0 62 0;
#X connect 66 0 67 0;
#X connect 67 0 68 0;
#X connect 68 0 71 0;
#X connect 69 0 70 0;
#X connect 70 0 73 0;
#X connect 71 0 74 0;
#X connect 71 0 75 0;
#X connect 72 0 66 0;
#X connect 72 0 69 0;
#X connect 74 0 76 0;
#X connect 75 0 77 0;
#X connect 79 0 80 0;
#X connect 81 0 82 0;
