#N canvas 133 220 450 300 10;
#X obj 74 125 inlet~;
#X msg 340 64 set \$1;
#X floatatom 340 90 3 0 100;
#X obj 252 77 dbtorms;
#X obj 252 106 pack 0 50;
#X obj 252 131 line~;
#X obj 74 193 *~;
#X obj 74 221 throw~ \$1;
#X obj 157 125 inlet~;
#X obj 157 193 *~;
#X obj 157 221 throw~ \$2;
#X obj 340 37 r \$3;
#X obj 340 117 s \$3;
#X connect 0 0 6 0;
#X connect 1 0 2 0;
#X connect 2 0 12 0;
#X connect 3 0 4 0;
#X connect 4 0 5 0;
#X connect 5 0 6 1;
#X connect 6 0 7 0;
#X connect 8 0 9 0;
#X connect 9 0 10 0;
#X connect 11 0 1 0;
#X connect 11 0 3 0;
