#N canvas 641 150 260 331 10;
#X msg 94 221 1;
#X obj 48 221 del 30;
#X obj 117 87 toggle 20 0 empty empty empty 20 8 0 10 -262144 -1 -1
1 1;
#X msg 117 62 set \$1;
#X obj 20 93 change;
#X obj 20 69 != 0;
#X obj 72 196 sel 0 1;
#X msg 48 244 0;
#X obj 102 270 outlet;
#X obj 20 44 r \$1;
#X obj 117 112 s \$1;
#X obj 20 120 s \$1-change;
#X obj 72 171 r \$1-change;
#X connect 0 0 8 0;
#X connect 1 0 7 0;
#X connect 2 0 10 0;
#X connect 3 0 2 0;
#X connect 4 0 11 0;
#X connect 5 0 4 0;
#X connect 6 0 1 0;
#X connect 6 1 0 0;
#X connect 7 0 8 0;
#X connect 9 0 3 0;
#X connect 9 0 5 0;
#X connect 12 0 6 0;
