#N canvas 0 22 664 648 10;
#X obj 41 12 inlet;
#X obj 192 153 r data-beatparams;
#X obj 163 132 r data-beatnow;
#X obj 83 150 +;
#X obj 83 299 *;
#X obj 99 277 r delay-multiplier;
#X obj 145 178 r \$1-beatnow;
#X obj 175 199 r \$1-beatparams;
#X obj 114 228 s \$1-beatnow;
#X obj 144 249 s \$1-beatparams;
#X obj 259 27 getsize t_wiggle vec;
#X obj 280 50 - 1;
#X obj 280 72 max 1;
#X msg 243 471 set \, add \, add2 \$1 \, adddollar 1 \, add2 \$2;
#X msg 243 504 \; p1-cf \$1 241.379;
#X obj 82 329 /;
#X obj 38 372 pack s 0;
#X obj 318 309 +;
#X obj 430 97 moses;
#X obj 433 54 f;
#X obj 463 57 + 1;
#X obj 379 408 del;
#X floatatom 122 373 5 0 0 0 - - -;
#X msg 453 25 0;
#X obj 318 285 *;
#X obj 372 228 element t_wiggle vec;
#X obj 372 260 get t_wigglept y;
#X obj 318 338 t f b;
#X obj 53 69 t b p p;
#X floatatom 322 125 5 0 0 0 - - -;
#X obj 41 104 get t_wiggle var width x value range;
#X obj 434 364 r reset;
#X msg 433 386 stop;
#X obj 83 207 x-to-time;
#X obj 41 39 data-start t_wiggle;
#X connect 0 0 34 0;
#X connect 1 0 33 2;
#X connect 2 0 33 1;
#X connect 3 0 33 0;
#X connect 4 0 15 0;
#X connect 5 0 4 1;
#X connect 6 0 33 1;
#X connect 7 0 33 2;
#X connect 10 0 11 0;
#X connect 10 0 18 1;
#X connect 11 0 12 0;
#X connect 12 0 15 1;
#X connect 13 0 14 0;
#X connect 15 0 16 1;
#X connect 15 0 21 1;
#X connect 15 0 22 0;
#X connect 16 0 13 0;
#X connect 17 0 27 0;
#X connect 18 0 25 0;
#X connect 19 0 20 0;
#X connect 20 0 19 1;
#X connect 20 0 18 0;
#X connect 21 0 19 0;
#X connect 23 0 19 1;
#X connect 24 0 17 0;
#X connect 25 0 26 0;
#X connect 26 0 24 0;
#X connect 27 0 14 0;
#X connect 27 1 21 0;
#X connect 28 0 19 0;
#X connect 28 1 30 0;
#X connect 28 2 10 0;
#X connect 28 2 25 1;
#X connect 30 0 16 0;
#X connect 30 1 3 0;
#X connect 30 2 3 1;
#X connect 30 3 17 1;
#X connect 30 4 24 1;
#X connect 30 4 23 0;
#X connect 30 4 29 0;
#X connect 31 0 32 0;
#X connect 32 0 21 0;
#X connect 33 0 4 0;
#X connect 33 1 8 0;
#X connect 33 2 9 0;
#X connect 34 0 28 0;
