#N canvas 324 258 700 510 10;
#X text 339 167 noise freq;
#X text 588 142 freq;
#X text 589 158 CF;
#X text 590 173 BW;
#X text 587 226 noisef;
#X text 588 188 shift;
#X text 586 264 fm freq;
#X text 586 280 fm depth;
#X obj 146 447 outlet~;
#X text 56 307 amp;
#X text 589 127 amp;
#X text 584 297 fm table;
#X obj 146 396 inlet~;
#X obj 487 350 r \$1-hit;
#X text 560 113 receives:;
#N canvas 0 22 450 300 shift 0;
#X obj 143 137 line~;
#X obj 143 84 unpack;
#X obj 143 162 outlet~;
#X obj 166 57 t l b;
#X obj 195 113 0;
#X obj 166 33 r \$1-s;
#X obj 128 111 * 0.1;
#X connect 0 0 2 0;
#X connect 1 0 6 0;
#X connect 1 1 0 1;
#X connect 3 0 1 0;
#X connect 3 1 4 0;
#X connect 4 0 0 1;
#X connect 5 0 3 0;
#X connect 6 0 0 0;
#X restore 145 316 pd shift;
#N canvas 0 22 450 300 noise 0;
#X obj 207 140 line~;
#X obj 207 165 outlet~;
#X obj 207 45 t l b;
#X obj 237 83 0;
#X obj 67 102 expr $f1*$f1*$f1*0.01;
#X obj 186 68 unpack;
#X obj 207 21 r \$1-nf;
#X connect 0 0 1 0;
#X connect 2 0 5 0;
#X connect 2 1 3 0;
#X connect 3 0 0 1;
#X connect 4 0 0 0;
#X connect 5 0 4 0;
#X connect 5 1 0 1;
#X connect 6 0 2 0;
#X restore 327 206 pd noise;
#X text 336 66 center freq;
#N canvas 0 22 396 408 bw 0;
#X obj 103 286 outlet~;
#X obj 119 45 r \$1-bw;
#X obj 103 219 line~;
#X obj 103 241 *~;
#X obj 103 263 *~;
#X obj 96 94 unpack;
#X obj 119 67 t l b;
#X obj 96 148 mtof;
#X obj 96 169 sqrt;
#X obj 96 190 sqrt;
#X obj 149 195 20;
#X obj 38 148 moses 1;
#X connect 1 0 6 0;
#X connect 2 0 3 0;
#X connect 2 0 3 1;
#X connect 3 0 4 0;
#X connect 3 0 4 1;
#X connect 4 0 0 0;
#X connect 5 0 11 0;
#X connect 5 1 2 1;
#X connect 6 0 5 0;
#X connect 6 1 10 0;
#X connect 7 0 8 0;
#X connect 8 0 9 0;
#X connect 9 0 2 0;
#X connect 10 0 2 1;
#X connect 11 0 2 0;
#X connect 11 1 7 0;
#X restore 256 102 pd bw;
#X text 256 67 bandwidth;
#X text 135 281 freq shift;
#X obj 42 325 amp20~ \$1-a;
#X text 325 186 (quartic \, 10=10hz.);
#X obj 247 194 *~;
#X text 333 82 (MIDI units);
#X text 261 244 location;
#X text 258 261 (sec/100);
#N canvas 0 22 454 304 loc 0;
#X obj 207 140 line~;
#X obj 207 165 outlet~;
#X obj 207 45 t l b;
#X obj 186 68 unpack;
#X obj 99 108 expr $f1*$f2*0.01;
#X obj 285 106 r sample-rate;
#X obj 237 83 30;
#X obj 207 21 r \$1-p;
#X connect 0 0 1 0;
#X connect 2 0 3 0;
#X connect 2 1 6 0;
#X connect 3 0 4 0;
#X connect 3 1 0 1;
#X connect 4 0 0 0;
#X connect 5 0 4 1;
#X connect 6 0 0 1;
#X connect 7 0 2 0;
#X restore 261 283 pd loc;
#X text 341 232 balance;
#X text 340 249 (0-100);
#N canvas 0 22 450 300 balance 0;
#X obj 207 140 line~;
#X obj 207 165 outlet~;
#X obj 207 45 t l b;
#X obj 237 83 0;
#X obj 186 68 unpack;
#X obj 179 106 * 0.01;
#X obj 207 21 r \$1-n;
#X connect 0 0 1 0;
#X connect 2 0 4 0;
#X connect 2 1 3 0;
#X connect 3 0 0 1;
#X connect 4 0 5 0;
#X connect 4 1 0 1;
#X connect 5 0 0 0;
#X connect 6 0 2 0;
#X restore 342 267 pd balance;
#N canvas 750 79 450 300 cf 0;
#X obj 103 186 line~;
#X obj 103 208 *~;
#X obj 103 230 *~;
#X obj 96 94 unpack;
#X obj 103 255 outlet~;
#X obj 119 67 t l b;
#X obj 96 115 mtof;
#X obj 96 136 sqrt;
#X obj 96 157 sqrt;
#X obj 119 43 r \$1-cf;
#X obj 149 162 20;
#X connect 0 0 1 0;
#X connect 0 0 1 1;
#X connect 1 0 2 0;
#X connect 1 0 2 1;
#X connect 2 0 4 0;
#X connect 3 0 6 0;
#X connect 3 1 0 1;
#X connect 5 0 3 0;
#X connect 5 1 10 0;
#X connect 6 0 7 0;
#X connect 7 0 8 0;
#X connect 8 0 0 0;
#X connect 9 0 5 0;
#X connect 10 0 0 1;
#X restore 340 103 pd cf;
#X text 470 5 table;
#X obj 459 25 r \$1-t;
#X text 136 296 (tenths);
#X obj 219 195 *~;
#X text 253 82 (MIDI units);
#X obj 467 49 tabread bash-window-sizes;
#X text 492 330 hit;
#X text 586 313 hit;
#N canvas 682 220 362 283 cfcorrect 0;
#X obj 119 43 r \$1-t;
#X obj 119 67 sel 0;
#X obj 104 242 outlet;
#X obj 101 94 1;
#X floatatom 104 218 7 0 0 0 - - -;
#X obj 149 94 tabread bash-window-sizes;
#X obj 149 125 t b f;
#X obj 149 149 samplerate~;
#X obj 149 176 /;
#X obj 149 199 / 261.62;
#X floatatom 251 185 5 0 0 0 - - -;
#X connect 0 0 1 0;
#X connect 1 0 3 0;
#X connect 1 1 5 0;
#X connect 3 0 4 0;
#X connect 4 0 2 0;
#X connect 5 0 6 0;
#X connect 6 0 7 0;
#X connect 6 1 8 1;
#X connect 7 0 8 0;
#X connect 8 0 9 0;
#X connect 9 0 4 0;
#X restore 375 129 pd cfcorrect;
#X obj 340 129 *~ 1;
#X floatatom 381 154 5 0 0 0 - - -;
#X text 362 322 (MIDI);
#X text 586 241 noisec;
#X text 591 207 noise;
#N canvas 750 79 368 285 nc 0;
#X obj 95 48 r \$1-nc;
#X obj 95 126 max 0;
#X obj 95 149 mtof;
#X obj 95 70 t l b;
#X obj 95 102 unpack;
#X obj 115 191 outlet;
#X obj 115 169 pack;
#X obj 138 69 20;
#X obj 182 125 max 0;
#X obj 182 148 mtof;
#X obj 182 69 t l b;
#X obj 182 101 unpack;
#X obj 202 190 outlet;
#X obj 202 168 pack;
#X obj 225 68 20;
#X obj 182 47 r \$1-pc;
#X connect 0 0 3 0;
#X connect 1 0 2 0;
#X connect 2 0 6 0;
#X connect 3 0 4 0;
#X connect 3 1 7 0;
#X connect 4 0 1 0;
#X connect 4 1 6 1;
#X connect 6 0 5 0;
#X connect 7 0 6 1;
#X connect 8 0 9 0;
#X connect 9 0 13 0;
#X connect 10 0 11 0;
#X connect 10 1 14 0;
#X connect 11 0 8 0;
#X connect 11 1 13 1;
#X connect 13 0 12 0;
#X connect 14 0 13 1;
#X connect 15 0 10 0;
#X restore 368 341 pd nc;
#X text 363 288 noise and;
#X text 363 305 pitch cutoff;
#X obj 86 372 fred~ ------------------------------------------------------
;
#N canvas 470 199 659 542 frequency 0;
#X obj 149 268 line~;
#X obj 146 151 unpack;
#X obj 146 500 outlet~;
#X obj 169 124 t l b;
#X text 24 40 If no time value is given \, 0 is used.;
#X obj 192 151 0;
#X obj 297 476 outlet~;
#X msg 257 189 set \$1;
#X obj 257 165 makefilename tab-pitch%d;
#X obj 360 216 r \$1-p;
#X obj 559 117 inlet;
#X obj 559 204 samplerate~;
#X obj 556 177 t b f;
#X obj 561 229 /;
#X obj 561 151 * 100;
#X obj 146 450 tabread4~ mtof-curve;
#X obj 296 449 tabread4~ imtof-curve;
#X obj 150 311 +~;
#X obj 364 305 line~;
#X obj 362 255 unpack;
#X obj 364 327 tabread4~ tab-pitch1;
#X obj 363 283 *;
#X obj 364 348 -~ 60;
#X obj 363 371 *~;
#X obj 399 389 t f;
#X obj 400 410 / 100;
#X obj 151 334 +~ 50;
#X floatatom 557 284 5 0 0 0 - - -;
#X obj 169 100 r \$1-f;
#X obj 256 143 r \$1-t;
#X obj 399 369 r \$1-f0;
#X obj 408 255 30;
#N canvas 206 35 655 539 FM 0;
#X obj 520 265 line~;
#X obj 520 212 unpack;
#X obj 172 470 outlet~;
#X obj 543 185 t l b;
#X obj 566 241 0;
#X obj 174 237 inlet~;
#X obj 543 161 r \$1-fd;
#X text 543 130 FM depth;
#X text 291 22 fm freq;
#X obj 303 396 *~;
#X obj 303 417 +~ 1;
#X msg 31 345 set \$1;
#X obj 31 323 makefilename fmtab%d;
#X obj 199 372 tabosc4~ fmtab0;
#X text 28 284 FM table;
#X obj 290 60 r \$1-ff;
#X obj 31 300 r \$1-ft;
#X text 289 39 (1/2-tones);
#X obj 225 136 mtof;
#X obj 225 159 / 8.1758;
#X obj 274 193 line~;
#X obj 267 114 unpack;
#X obj 290 87 t l b;
#X obj 320 169 0;
#X obj 198 350 *~;
#X text 520 145 (quartic \, 50=f);
#X obj 318 238 expr $f1*$f1*$f1*$f1*.0004*.0004;
#X obj 173 446 *~;
#X connect 0 0 9 1;
#X connect 1 0 26 0;
#X connect 1 1 0 1;
#X connect 3 0 1 0;
#X connect 3 1 4 0;
#X connect 4 0 0 1;
#X connect 5 0 24 0;
#X connect 5 0 27 0;
#X connect 6 0 3 0;
#X connect 9 0 10 0;
#X connect 10 0 27 1;
#X connect 11 0 13 0;
#X connect 12 0 11 0;
#X connect 13 0 9 0;
#X connect 15 0 22 0;
#X connect 16 0 12 0;
#X connect 18 0 19 0;
#X connect 19 0 20 0;
#X connect 20 0 24 1;
#X connect 21 0 18 0;
#X connect 21 1 20 1;
#X connect 22 0 21 0;
#X connect 22 1 23 0;
#X connect 23 0 20 1;
#X connect 24 0 13 0;
#X connect 26 0 0 0;
#X connect 27 0 2 0;
#X restore 147 475 pd FM;
#N canvas 485 280 655 543 vibrato 0;
#X obj 99 59 inlet~;
#X obj 110 451 outlet~;
#X obj 247 64 r \$1-vf;
#X obj 351 27 r \$1-rf;
#X obj 251 247 * 0.1;
#X obj 251 273 phasor~;
#X obj 342 144 *;
#X obj 342 121 t f b;
#X obj 342 96 f;
#X obj 342 165 + 1;
#X obj 251 222 *;
#X obj 262 195 t b f;
#X obj 498 98 r \$1-attack;
#X obj 473 150 b;
#X obj 372 143 random 200;
#X obj 372 165 - 100;
#X obj 220 313 *~;
#X obj 231 337 *~;
#X obj 219 383 -~;
#X obj 514 463 snapshot~;
#X obj 486 196 f;
#X obj 486 223 == 0;
#X obj 496 123 t b b;
#X obj 520 196 1;
#X obj 486 245 * 2;
#X obj 486 268 - 1;
#X obj 515 382 *;
#X obj 516 335 random 200;
#X obj 516 357 - 100;
#X obj 247 86 line 0 100;
#X obj 351 50 line 0 100;
#X obj 536 268 line 0 100;
#X obj 549 407 line 0 100;
#X obj 536 246 r \$1-vd;
#X obj 549 384 r \$1-rd;
#X obj 486 291 *;
#X obj 486 382 +;
#X obj 486 312 t f b;
#X obj 372 187 * 0.01;
#X obj 221 418 *~ 0;
#X obj 221 443 +~ 0;
#X obj 107 385 +~;
#X obj 484 432 t f b;
#X obj 487 489 -;
#X obj 486 404 * 0.01;
#X obj 448 46 r reset;
#X msg 446 76 0;
#X obj 275 323 threshold~ 0.5 1 0.2 1;
#X obj 219 362 *~ 12;
#X obj 265 361 *~ 16;
#X obj 429 215 0;
#X obj 351 72 * 0.01;
#X obj 549 428 * 0.01;
#X connect 0 0 41 0;
#X connect 2 0 29 0;
#X connect 3 0 30 0;
#X connect 4 0 5 0;
#X connect 5 0 16 0;
#X connect 5 0 16 1;
#X connect 5 0 17 1;
#X connect 5 0 47 0;
#X connect 6 0 9 0;
#X connect 7 0 6 0;
#X connect 7 1 14 0;
#X connect 8 0 7 0;
#X connect 9 0 11 0;
#X connect 10 0 4 0;
#X connect 11 0 10 0;
#X connect 11 1 10 1;
#X connect 12 0 22 0;
#X connect 13 0 8 0;
#X connect 13 0 20 0;
#X connect 13 0 50 0;
#X connect 14 0 15 0;
#X connect 15 0 38 0;
#X connect 16 0 17 0;
#X connect 16 0 48 0;
#X connect 17 0 49 0;
#X connect 18 0 39 0;
#X connect 19 0 40 1;
#X connect 19 0 43 1;
#X connect 20 0 21 0;
#X connect 21 0 20 1;
#X connect 21 0 24 0;
#X connect 22 0 13 0;
#X connect 22 1 23 0;
#X connect 23 0 20 1;
#X connect 24 0 25 0;
#X connect 25 0 35 0;
#X connect 26 0 36 1;
#X connect 27 0 28 0;
#X connect 28 0 26 0;
#X connect 29 0 10 0;
#X connect 30 0 51 0;
#X connect 31 0 35 1;
#X connect 32 0 52 0;
#X connect 33 0 31 0;
#X connect 34 0 32 0;
#X connect 35 0 37 0;
#X connect 36 0 44 0;
#X connect 37 0 36 0;
#X connect 37 1 27 0;
#X connect 38 0 6 1;
#X connect 39 0 40 0;
#X connect 40 0 19 0;
#X connect 40 0 41 1;
#X connect 41 0 1 0;
#X connect 42 0 43 0;
#X connect 42 1 19 0;
#X connect 43 0 39 1;
#X connect 44 0 42 0;
#X connect 45 0 46 0;
#X connect 46 0 9 0;
#X connect 47 0 13 0;
#X connect 48 0 18 0;
#X connect 49 0 18 1;
#X connect 50 0 5 1;
#X connect 51 0 8 1;
#X connect 52 0 26 1;
#X restore 201 396 pd vibrato;
#X connect 0 0 17 0;
#X connect 1 0 0 0;
#X connect 1 1 0 1;
#X connect 3 0 1 0;
#X connect 3 1 5 0;
#X connect 5 0 0 1;
#X connect 7 0 20 0;
#X connect 8 0 7 0;
#X connect 9 0 19 0;
#X connect 9 0 31 0;
#X connect 10 0 14 0;
#X connect 11 0 13 0;
#X connect 12 0 11 0;
#X connect 12 1 13 1;
#X connect 13 0 21 1;
#X connect 13 0 27 0;
#X connect 14 0 12 0;
#X connect 15 0 32 0;
#X connect 16 0 6 0;
#X connect 17 0 26 0;
#X connect 18 0 20 0;
#X connect 19 0 21 0;
#X connect 19 1 18 1;
#X connect 20 0 22 0;
#X connect 21 0 18 0;
#X connect 22 0 23 0;
#X connect 23 0 17 1;
#X connect 24 0 25 0;
#X connect 25 0 23 1;
#X connect 26 0 33 0;
#X connect 28 0 3 0;
#X connect 29 0 8 0;
#X connect 30 0 24 0;
#X connect 31 0 18 1;
#X connect 32 0 2 0;
#X connect 33 0 15 0;
#X connect 33 0 16 0;
#X restore 123 66 pd frequency;
#X connect 12 0 8 0;
#X connect 13 0 49 12;
#X connect 15 0 49 2;
#X connect 16 0 49 6;
#X connect 18 0 35 1;
#X connect 21 0 49 0;
#X connect 23 0 49 4;
#X connect 27 0 49 5;
#X connect 30 0 49 7;
#X connect 31 0 41 0;
#X connect 33 0 37 0;
#X connect 33 0 49 10;
#X connect 35 0 49 3;
#X connect 37 0 49 11;
#X connect 37 0 50 0;
#X connect 40 0 41 1;
#X connect 40 0 42 0;
#X connect 41 0 23 1;
#X connect 46 0 49 8;
#X connect 46 1 49 9;
#X connect 49 0 8 0;
#X connect 50 0 49 1;
#X connect 50 1 35 0;
#X connect 50 1 23 0;
