#N canvas 579 426 701 598 10;
#X obj 149 268 line~;
#X obj 146 151 unpack;
#X obj 145 509 outlet~;
#X text 22 31 \$1 is the name of the receive symbol.;
#X obj 169 124 t l b;
#X text 21 11 control a frequency (MIDI units) using quartic segments.
;
#X text 22 53 outlet is the frequency as a signal.;
#X text 25 74 If no time value is given \, 0 is used.;
#X obj 192 151 0;
#X obj 221 509 outlet~;
#X msg 257 189 set \$1;
#X obj 257 165 makefilename tab-pitch%d;
#X obj 360 216 r \$1-p;
#X obj 559 117 inlet;
#X obj 559 204 samplerate~;
#X obj 556 177 t b f;
#X obj 561 229 /;
#X obj 561 151 * 100;
#X obj 146 450 tabread4~ mtof-curve;
#X obj 174 475 tabread4~ imtof-curve;
#X obj 194 378 +~;
#X obj 364 305 line~;
#X obj 362 255 unpack;
#X obj 364 327 tabread4~ tab-pitch1;
#X obj 363 283 *;
#X obj 364 348 -~ 60;
#X obj 363 371 *~;
#X obj 399 389 t f;
#X obj 400 410 / 100;
#X obj 196 401 +~ 50;
#X floatatom 557 284 5 0 0 0 - - -;
#X obj 169 100 r \$1-f;
#X obj 256 143 r \$1-t;
#X obj 399 369 r \$1-f0;
#X obj 408 255 30;
#X connect 0 0 20 0;
#X connect 1 0 0 0;
#X connect 1 1 0 1;
#X connect 4 0 1 0;
#X connect 4 1 8 0;
#X connect 8 0 0 1;
#X connect 10 0 23 0;
#X connect 11 0 10 0;
#X connect 12 0 22 0;
#X connect 12 0 34 0;
#X connect 13 0 17 0;
#X connect 14 0 16 0;
#X connect 15 0 14 0;
#X connect 15 1 16 1;
#X connect 16 0 24 1;
#X connect 16 0 30 0;
#X connect 17 0 15 0;
#X connect 18 0 2 0;
#X connect 19 0 9 0;
#X connect 20 0 29 0;
#X connect 21 0 23 0;
#X connect 22 0 24 0;
#X connect 22 1 21 1;
#X connect 23 0 25 0;
#X connect 24 0 21 0;
#X connect 25 0 26 0;
#X connect 26 0 20 1;
#X connect 27 0 28 0;
#X connect 28 0 26 1;
#X connect 29 0 18 0;
#X connect 29 0 19 0;
#X connect 31 0 4 0;
#X connect 32 0 11 0;
#X connect 33 0 27 0;
#X connect 34 0 21 1;
