#N canvas 0 0 450 300 10;
#X obj 198 120 t p p p;
#X obj 198 143 get \$1 xwas;
#X obj 198 166 set \$1 x;
#X obj 198 85 inlet;
#X connect 0 0 1 0;
#X connect 0 1 2 1;
#X connect 1 0 2 0;
#X connect 3 0 0 0;
