#N canvas 11 275 976 290 10;
#X obj 16 58 inlet;
#X obj 213 55 r \$1-a;
#X obj 197 228 f;
#X obj 259 229 f;
#X obj 275 56 r \$1-f;
#X obj 319 229 f;
#X obj 381 230 f;
#X obj 335 56 r \$1-cf;
#X obj 397 57 r \$1-bw;
#X obj 437 230 f;
#X obj 493 230 f;
#X obj 509 57 r \$1-n;
#X obj 649 233 f;
#X obj 665 60 r \$1-ff;
#X obj 710 234 f;
#X obj 726 61 r \$1-fd;
#X obj 862 234 f;
#X obj 878 61 r \$1-ft;
#X obj 197 250 outlet;
#X obj 259 251 outlet;
#X obj 319 253 outlet;
#X obj 381 254 outlet;
#X obj 437 255 outlet;
#X obj 493 255 outlet;
#X obj 649 257 outlet;
#X obj 711 258 outlet;
#X obj 862 258 outlet;
#X obj 213 81 t f;
#X obj 275 81 t f;
#X obj 335 82 t f;
#X obj 397 82 t f;
#X obj 453 79 t f;
#X obj 509 78 t f;
#X obj 665 82 t f;
#X obj 726 82 t f;
#X obj 878 84 t f;
#X obj 542 230 f;
#X obj 542 255 outlet;
#X obj 558 78 t f;
#X obj 558 57 r \$1-nf;
#X obj 764 234 f;
#X obj 764 258 outlet;
#X obj 780 84 t f;
#X obj 814 234 f;
#X obj 814 258 outlet;
#X obj 830 84 t f;
#X obj 830 61 r \$1-t;
#X obj 453 57 r \$1-s;
#X obj 780 61 r \$1-p;
#X obj 612 79 t f;
#X obj 612 58 r \$1-nc;
#X obj 596 232 f;
#X obj 596 257 outlet;
#X obj 16 84 t b b b b b b b b b b b b b;
#X connect 0 0 53 0;
#X connect 1 0 27 0;
#X connect 2 0 18 0;
#X connect 3 0 19 0;
#X connect 4 0 28 0;
#X connect 5 0 20 0;
#X connect 6 0 21 0;
#X connect 7 0 29 0;
#X connect 8 0 30 0;
#X connect 9 0 22 0;
#X connect 10 0 23 0;
#X connect 11 0 32 0;
#X connect 12 0 24 0;
#X connect 13 0 33 0;
#X connect 14 0 25 0;
#X connect 15 0 34 0;
#X connect 16 0 26 0;
#X connect 17 0 35 0;
#X connect 27 0 2 1;
#X connect 28 0 3 1;
#X connect 29 0 5 1;
#X connect 30 0 6 1;
#X connect 31 0 9 1;
#X connect 32 0 10 1;
#X connect 33 0 12 1;
#X connect 34 0 14 1;
#X connect 35 0 16 1;
#X connect 36 0 37 0;
#X connect 38 0 36 1;
#X connect 39 0 38 0;
#X connect 40 0 41 0;
#X connect 42 0 40 1;
#X connect 43 0 44 0;
#X connect 45 0 43 1;
#X connect 46 0 45 0;
#X connect 47 0 31 0;
#X connect 48 0 42 0;
#X connect 49 0 51 1;
#X connect 50 0 49 0;
#X connect 51 0 52 0;
#X connect 53 0 2 0;
#X connect 53 1 3 0;
#X connect 53 2 5 0;
#X connect 53 3 6 0;
#X connect 53 4 9 0;
#X connect 53 5 10 0;
#X connect 53 6 36 0;
#X connect 53 7 51 0;
#X connect 53 8 12 0;
#X connect 53 9 14 0;
#X connect 53 10 40 0;
#X connect 53 11 43 0;
#X connect 53 12 16 0;
