#N canvas 135 431 326 181 10;
#X floatatom 46 7 5 0 100 0 #1-a #1-a-set #1-a;
#N canvas 233 50 759 480 ctls 1;
#X obj 174 206 r \$0-attack;
#X obj 175 231 t b;
#X obj 164 331 f;
#X msg 163 355 0 0 \, \$1 5;
#X obj 533 352 t b;
#X obj 533 299 f;
#X obj 533 377 f;
#X msg 647 376 0;
#X obj 533 329 moses 1;
#X obj 647 348 t b f;
#X obj 613 309 moses 1;
#X obj 533 279 bng 15 250 50 0 empty empty empty -38 7 0 12 -262144
-1 -1;
#X obj 613 280 f;
#X obj 180 309 f;
#X obj 533 257 r \$0-mute;
#X obj 533 401 s \$1-a;
#X obj 613 257 r \$1-a;
#X obj 163 382 s \$1-a;
#X obj 183 253 s \$1-hit;
#X obj 180 285 r \$1-a;
#X obj 43 42 setline \$1-a;
#X obj 43 62 setline \$1-f;
#X obj 43 104 setline \$1-cf;
#X obj 43 124 setline \$1-bw;
#X obj 43 164 setline \$1-n;
#X obj 43 184 setline \$1-ff;
#X obj 43 204 setline \$1-fd;
#X obj 43 225 setctl \$1-ft;
#X obj 186 10 r \$0-clear;
#X obj 263 58 del 20;
#X obj 43 144 setline \$1-s;
#X obj 41 270 setline \$1-nf;
#X obj 433 61 symbol \$1;
#X obj 432 40 r \$0-auto;
#X obj 159 78 symbol \$1;
#X obj 263 81 symbol \$1;
#X text 549 236 MUTE logic;
#X obj 347 73 symbol \$1;
#X obj 347 50 t b;
#X obj 347 28 r \$0-test;
#X obj 458 140 mutectl \$1-s 0;
#X obj 457 186 mutectl \$1-fd 0;
#X obj 457 164 mutectl \$1-p 50;
#X obj 41 251 setline \$1-p;
#X msg 433 83 \; \$1-p 0 0 \, 5000 50000;
#X obj 44 330 setctl \$1-t;
#X obj 662 75 r \$1-t;
#X obj 633 75 f;
#X obj 633 45 r resend-tabs;
#X obj 633 95 s \$1-t;
#X obj 263 10 r reset;
#X obj 263 37 t b;
#X obj 159 51 t b;
#X obj 41 309 setctl \$1-nc;
#X obj 591 152 symbol \$1;
#X obj 592 127 bng 15 250 50 0 empty empty empty 0 -6 0 8 -262144 -1
-1;
#X msg 591 174 \; \$1-p 0 0 \, 5000 100000;
#X obj 41 289 setctl \$1-pc;
#X obj 44 81 setline \$1-f0;
#X msg 263 102 \; \$1-f 60 \; \$1-f0 0 \; \$1-cf 60 \; \$1-bw 0 \;
\$1-s 0 \; \$1-n 50 \; \$1-nc 103 \; \$1-t 0 \; \$1-ff 0 \; \$1-fd
0 \; \$1-ft 0 \; \$1-p 50 \; \$1-nf 0 \; \$1-pc 103 \; \$1-vf 0 \;
\$1-vd 0 \; \$1-rf 0 \; \$1-rd 0 \;;
#X msg 346 95 \; \$1-a 80 \; \$1-f 60 \; \$1-f0 \; \$1-cf 60 \; \$1-bw
0 \; \$1-s 0 \; \$1-n 0 \; \$1-nc 103 \; \$1-t 0 \; \$1-ff 0 \; \$1-fd
0 \; \$1-ft 0 \; \$1-p 50 \; \$1-nf 0 \; \$1-pc 103 \; \$1-vf 0 \;
\$1-vd 0 \; \$1-rf 0 \; \$1-rd 0 \;;
#X obj 36 360 setline \$1-vd;
#X obj 36 380 setline \$1-vf;
#X obj 36 399 setline \$1-rd;
#X obj 36 419 setline \$1-rf;
#N canvas 620 256 925 343 receive-p-note 0;
#X obj 200 171 unpack;
#X obj 202 125 t l b;
#X obj 262 133 1;
#X obj 55 156 spigot;
#X obj 89 207 f;
#X obj 124 209 f;
#X obj 55 179 t b b;
#X obj 294 133 0;
#X obj 43 124 t b l;
#X obj 305 38 r \$1-note;
#X obj 98 118 s \$1-a;
#X obj 49 268 s \$1-attack;
#X obj 89 239 s \$1-f;
#X obj 137 239 s \$1-f0;
#X obj 202 103 r \$1-nextpitches;
#X obj 323 113 s \$1-f;
#X obj 343 89 s \$1-f0;
#X obj 362 158 s \$1-cf;
#X obj 384 135 s \$1-bw;
#X obj 403 112 s \$1-s;
#X obj 422 89 s \$1-p;
#X obj 441 159 s \$1-t;
#X obj 463 136 s \$1-ff;
#X obj 482 112 s \$1-fd;
#X obj 502 90 s \$1-ft;
#X obj 525 161 s \$1-n;
#X obj 546 138 s \$1-nf;
#X obj 564 116 s \$1-nc;
#X obj 586 91 s \$1-pc;
#X obj 608 167 s \$1-vd;
#X obj 629 144 s \$1-vf;
#X obj 647 122 s \$1-rd;
#X obj 669 97 s \$1-rf;
#X obj 305 59 route a f f0 cf bw s p t ff fd ft n nf nc pc vd vf rd
rf;
#X connect 0 0 4 1;
#X connect 0 1 5 1;
#X connect 1 0 0 0;
#X connect 1 1 2 0;
#X connect 2 0 3 1;
#X connect 3 0 6 0;
#X connect 4 0 12 0;
#X connect 5 0 13 0;
#X connect 6 0 11 0;
#X connect 6 1 7 0;
#X connect 6 1 4 0;
#X connect 6 1 5 0;
#X connect 7 0 3 1;
#X connect 8 0 3 0;
#X connect 8 1 10 0;
#X connect 9 0 33 0;
#X connect 14 0 1 0;
#X connect 33 0 8 0;
#X connect 33 1 15 0;
#X connect 33 2 16 0;
#X connect 33 3 17 0;
#X connect 33 4 18 0;
#X connect 33 5 19 0;
#X connect 33 6 20 0;
#X connect 33 7 21 0;
#X connect 33 8 22 0;
#X connect 33 9 23 0;
#X connect 33 10 24 0;
#X connect 33 11 25 0;
#X connect 33 12 26 0;
#X connect 33 13 27 0;
#X connect 33 14 28 0;
#X connect 33 15 29 0;
#X connect 33 16 30 0;
#X connect 33 17 31 0;
#X connect 33 18 32 0;
#X restore 371 363 pd receive-p-note;
#X msg 159 98 \; \$1-a 0;
#X connect 0 0 1 0;
#X connect 1 0 2 0;
#X connect 1 0 18 0;
#X connect 2 0 3 0;
#X connect 3 0 17 0;
#X connect 4 0 6 0;
#X connect 5 0 8 0;
#X connect 6 0 15 0;
#X connect 7 0 15 0;
#X connect 8 0 4 0;
#X connect 8 1 9 0;
#X connect 9 0 7 0;
#X connect 10 1 6 1;
#X connect 11 0 5 0;
#X connect 12 0 10 0;
#X connect 12 0 5 1;
#X connect 13 0 2 1;
#X connect 14 0 11 0;
#X connect 16 0 12 0;
#X connect 19 0 13 0;
#X connect 28 0 51 0;
#X connect 28 0 52 0;
#X connect 29 0 35 0;
#X connect 32 0 44 0;
#X connect 33 0 32 0;
#X connect 34 0 66 0;
#X connect 35 0 59 0;
#X connect 37 0 60 0;
#X connect 38 0 37 0;
#X connect 39 0 38 0;
#X connect 46 0 47 1;
#X connect 47 0 49 0;
#X connect 48 0 47 0;
#X connect 50 0 51 0;
#X connect 50 0 52 0;
#X connect 51 0 29 0;
#X connect 52 0 34 0;
#X connect 54 0 56 0;
#X connect 55 0 54 0;
#X restore 124 129 pd ctls;
#X floatatom 46 23 5 -24 127 0 #1-f #1-f-set #1-f;
#X floatatom 46 57 5 0 130 0 #1-cf #1-cf-set #1-cf;
#X floatatom 46 75 5 0 100 0 #1-bw #1-bw-set #1-bw;
#X floatatom 46 93 5 -50 50 0 #1-s #1-s-set #1-s;
#X floatatom 155 60 5 0 100 0 #1-n #1-n-set #1-n;
#X floatatom 155 8 5 -100 60 0 #1-ff #1-ff-set #1-ff;
#X floatatom 155 24 5 0 1000 0 #1-fd #1-fd-set #1-fd;
#X floatatom 155 40 5 0 9 0 #1-ft #1-ft-set #1-ft;
#X obj 260 44 bng 15 250 50 0 \$0-attack empty attack -47 7 0 10 -262144
-1 -1;
#X obj 260 61 bng 15 250 50 0 \$0-clear empty clear -37 7 0 10 -262144
-1 -1;
#X obj 260 9 bng 15 250 50 0 \$0-test empty test -33 7 0 10 -262144
-1 -1;
#X floatatom 46 110 5 0 3000 0 #1-p #1-p-set #1-p;
#X floatatom 155 76 5 0 200 0 #1-nf #1-nf-set #1-nf;
#X floatatom 46 126 5 0 100 0 #1-t #1-t-set #1-t;
#X obj 260 27 bng 15 250 50 0 \$0-auto empty auto -33 7 0 10 -262144
-1 -1;
#X obj 86 94 bng 13 250 50 0 \$1-s-mute empty empty -47 7 0 10 -262144
-1 -1;
#X obj 86 111 bng 13 250 50 0 \$1-p-mute empty empty -47 7 0 10 -262144
-1 -1;
#X obj 195 25 bng 13 250 50 0 \$1-fd-mute empty empty -47 7 0 10 -262144
-1 -1;
#X floatatom 155 92 5 0 200 0 #1-nc #1-nc-set #1-nc;
#X floatatom 155 108 5 0 200 0 #1-pc #1-pc-set #1-pc;
#X floatatom 46 40 5 0 100 0 #1-f0 #1-f0-set #1-f0;
#X floatatom 257 88 4 0 200 0 #1-vd #1-vd-set #1-vd;
#X floatatom 257 104 4 0 100 0 #1-vf #1-vf-set #1-vf;
#X floatatom 257 120 4 0 200 0 #1-rd #1-rd-set #1-rd;
#X floatatom 257 136 4 0 100 0 #1-rf #1-rf-set #1-rf;
#X obj 87 7 bng 13 250 50 0 \$0-mute empty empty -47 7 0 10 -262144
-1 -1;
