#N canvas 436 105 835 513 10;
#X obj 24 154 inlet~;
#X obj 117 149 inlet~;
#X obj 182 150 inlet~;
#X obj 272 35 r g1-angle;
#X obj 284 129 line~;
#X obj 272 63 t l b;
#X obj 314 63 20;
#X obj 266 86 unpack;
#X obj 255 108 * 0.01;
#X obj 284 175 cos~;
#X obj 317 152 -~ 0.25;
#X obj 317 175 cos~;
#X obj 117 219 *~;
#X obj 143 221 *~;
#X obj 117 242 -~;
#X obj 183 221 *~;
#X obj 210 221 *~;
#X obj 183 242 +~;
#X obj 162 300 rotate~ 0.1666;
#X obj 383 298 *~ -1;
#X obj 433 329 *~ -1;
#X obj 491 327 *~ -1;
#X obj 116 408 *~;
#X obj 585 330 line~;
#X obj 573 264 t l b;
#X obj 615 264 20;
#X obj 567 287 unpack;
#X obj 556 309 * 0.01;
#X obj 573 236 r g1-radius;
#X obj 100 443 +~;
#X obj 100 466 dac~ 1;
#X obj 19 406 *~;
#X obj 92 181 *~;
#X obj 157 177 *~;
#X obj 163 408 *~;
#X obj 147 443 +~;
#X obj 147 466 dac~ 3;
#X obj 210 408 *~;
#X obj 194 443 +~;
#X obj 194 466 dac~ 5;
#X obj 16 47 amp-linear~ tgp~;
#X obj 174 108 line~;
#X obj 162 42 t l b;
#X obj 204 42 20;
#X obj 156 65 unpack;
#X obj 145 87 * 0.01;
#X obj 162 14 r g1-dist;
#X obj 50 74 -~ 1;
#X obj 35 174 *~;
#X obj 35 199 outlet~;
#X obj 257 408 *~;
#X obj 241 443 +~;
#X obj 304 408 *~;
#X obj 288 443 +~;
#X obj 351 408 *~;
#X obj 335 443 +~;
#X obj 241 466 dac~ 6;
#X obj 288 466 dac~ 4;
#X obj 335 466 dac~ 2;
#X obj 16 74 *~;
#X obj 271 300 rotate~ 0.3333;
#X connect 0 0 31 1;
#X connect 0 0 48 0;
#X connect 1 0 32 1;
#X connect 2 0 33 1;
#X connect 3 0 5 0;
#X connect 4 0 10 0;
#X connect 4 0 9 0;
#X connect 5 0 7 0;
#X connect 5 1 6 0;
#X connect 6 0 4 1;
#X connect 7 0 8 0;
#X connect 7 1 4 1;
#X connect 8 0 4 0;
#X connect 9 0 12 1;
#X connect 9 0 15 1;
#X connect 10 0 11 0;
#X connect 11 0 13 1;
#X connect 11 0 16 1;
#X connect 12 0 14 0;
#X connect 13 0 14 1;
#X connect 14 0 18 0;
#X connect 14 0 19 0;
#X connect 14 0 22 0;
#X connect 14 0 60 0;
#X connect 15 0 17 0;
#X connect 16 0 17 1;
#X connect 17 0 18 1;
#X connect 17 0 60 1;
#X connect 18 0 20 0;
#X connect 18 0 34 0;
#X connect 19 0 50 0;
#X connect 20 0 52 0;
#X connect 21 0 54 0;
#X connect 22 0 29 1;
#X connect 23 0 22 1;
#X connect 23 0 34 1;
#X connect 23 0 37 1;
#X connect 23 0 50 1;
#X connect 23 0 52 1;
#X connect 23 0 54 1;
#X connect 24 0 26 0;
#X connect 24 1 25 0;
#X connect 25 0 23 1;
#X connect 26 0 27 0;
#X connect 26 1 23 1;
#X connect 27 0 23 0;
#X connect 28 0 24 0;
#X connect 29 0 30 0;
#X connect 31 0 29 0;
#X connect 31 0 35 0;
#X connect 31 0 38 0;
#X connect 31 0 51 0;
#X connect 31 0 53 0;
#X connect 31 0 55 0;
#X connect 32 0 16 0;
#X connect 32 0 12 0;
#X connect 33 0 13 0;
#X connect 33 0 15 0;
#X connect 34 0 35 1;
#X connect 35 0 36 0;
#X connect 37 0 38 1;
#X connect 38 0 39 0;
#X connect 40 0 59 0;
#X connect 41 0 47 0;
#X connect 41 0 48 1;
#X connect 42 0 44 0;
#X connect 42 1 43 0;
#X connect 43 0 41 1;
#X connect 44 0 45 0;
#X connect 44 1 41 1;
#X connect 45 0 41 0;
#X connect 46 0 42 0;
#X connect 47 0 59 1;
#X connect 48 0 49 0;
#X connect 50 0 51 1;
#X connect 51 0 56 0;
#X connect 52 0 53 1;
#X connect 53 0 57 0;
#X connect 54 0 55 1;
#X connect 55 0 58 0;
#X connect 59 0 31 0;
#X connect 59 0 32 0;
#X connect 59 0 33 0;
#X connect 60 0 21 0;
#X connect 60 0 37 0;
