#N canvas 0 0 376 339 10;
#X obj 35 218 snapshot~;
#X obj 35 239 print;
#X msg 34 103 \; foo 0 0 \, 100 100;
#X obj 156 171 tgl 15 0 empty empty empty 0 -6 0 8 -262144 -1 -1 0
1;
#X obj 59 193 metro 10;
#X obj 178 81 del 200;
#X obj 181 108 0;
#X obj 152 62 1;
#X obj 181 47 bng 15 250 50 0 empty empty empty 0 -6 0 8 -262144 -1
-1;
#X msg 16 59 \; foo 0 0;
#X msg 259 70 \; foo 100 100;
#X obj 34 141 amp20~ foo;
#X connect 0 0 1 0;
#X connect 3 0 4 0;
#X connect 4 0 0 0;
#X connect 5 0 6 0;
#X connect 6 0 3 0;
#X connect 7 0 3 0;
#X connect 8 0 5 0;
#X connect 8 0 7 0;
#X connect 8 0 10 0;
#X connect 11 0 0 0;
