#N canvas 0 0 450 300 10;
#X obj 58 103 r data-beatnow;
#X obj 41 153 *;
#X obj 77 132 r pix-per-beat;
#X obj 42 127 f;
#X obj 41 175 + 100;
#X obj 42 75 t b p p;
#X obj 43 202 set \$1 x;
#X obj 118 168 get \$1 x;
#X obj 118 191 set \$1 xwas;
#X obj 43 36 inlet;
#X connect 0 0 3 1;
#X connect 1 0 4 0;
#X connect 2 0 1 1;
#X connect 3 0 1 0;
#X connect 4 0 6 0;
#X connect 5 0 3 0;
#X connect 5 1 6 1;
#X connect 5 1 7 0;
#X connect 5 2 8 1;
#X connect 7 0 8 0;
#X connect 9 0 5 0;
