#N canvas 87 142 388 489 10;
#X obj 28 39 inlet;
#X obj 52 415 traversewiggle;
#X obj 27 82 t b p;
#X obj 12 138 f;
#X obj 40 139 + 1;
#X obj 41 162 mod 8;
#X obj 58 191 pack 0 p;
#X obj 59 214 route 0 1 2 3 4 5 6 7;
#X obj 72 388 traversewiggle;
#X obj 93 364 traversewiggle;
#X obj 114 340 traversewiggle;
#X obj 136 315 traversewiggle;
#X obj 153 291 traversewiggle;
#X obj 173 267 traversewiggle;
#X obj 189 249 traversewiggle;
#X connect 0 0 2 0;
#X connect 2 0 3 0;
#X connect 2 1 6 1;
#X connect 3 0 4 0;
#X connect 3 0 6 0;
#X connect 4 0 5 0;
#X connect 5 0 3 1;
#X connect 6 0 7 0;
#X connect 7 0 1 0;
#X connect 7 1 8 0;
#X connect 7 2 9 0;
#X connect 7 3 10 0;
#X connect 7 4 11 0;
#X connect 7 5 12 0;
#X connect 7 6 13 0;
#X connect 7 7 14 0;
