#N canvas 53 182 1023 540 10;
#X obj 63 51 inlet;
#X floatatom 809 147 5 0 0 0 - - -;
#X obj 101 153 t f f;
#X msg 82 283 0;
#X obj 777 275 loadbang;
#X obj 788 303 inlet;
#X obj 777 351 expr 1 - 2*$f1;
#X obj 205 228 * -1;
#X obj 163 228 t f f;
#X obj 63 391 f;
#X obj 25 471 outlet;
#X text 775 242 1 to normalize at Nyquist;
#X text 59 30 characteristic frequency \, 0(DC) to 1(Nyquist);
#X obj 533 471 outlet;
#X obj 689 473 outlet;
#X text 689 495 imag2a;
#X text 533 493 real1;
#X text 624 495 real2;
#X obj 750 474 outlet;
#X text 750 496 imag2b;
#X obj 623 471 outlet;
#X text 22 493 normalizer1;
#X obj 168 478 outlet;
#X text 165 500 normalizer2;
#X obj 151 444 expr (($f2-$f1)*($f2-$f1)+$f3*$f3);
#X obj 101 176 expr (1 - $f2*$f2) / (1 + $f2*$f2 + 2*$f2*cos($f1))
;
#X obj 163 205 expr 2*$f2*sin($f1) / (1 + $f2*$f2 + 2*$f2*cos($f1))
;
#X obj 82 307 expr (1 - $f2*$f2) / (1 + $f2*$f2 + 2*$f2*cos($f1));
#X obj 809 102 clip 0 1;
#X obj 809 124 expr tan($f1*1.57);
#X obj 101 131 expr $f1*1.5708;
#X text 775 256 0 to normalize at DC;
#X text 153 101 "theta" in units of pi/2;
#X text 211 138 conjugate pair of pole/zero locations:;
#X text 197 155 real part: (1-r*r)/(1+r*r-2rcos(th));
#X text 245 226 imaginary part: 2rsin(th)/(...);
#X text 270 282 real-valued one \, theta=0;
#X obj 25 447 expr abs($f1-$f2);
#X obj 777 327 f \$1;
#X text 425 31 argument 1: 1=Nyquist/0=DC norm;
#X text 119 4 5-pole (or zero) Butterworth filter coefficient calculator
;
#X msg 101 108 0.4;
#X obj 506 160 t f f;
#X obj 610 235 * -1;
#X obj 568 235 t f f;
#X obj 506 183 expr (1 - $f2*$f2) / (1 + $f2*$f2 + 2*$f2*cos($f1))
;
#X obj 568 212 expr 2*$f2*sin($f1) / (1 + $f2*$f2 + 2*$f2*cos($f1))
;
#X obj 506 138 expr $f1*1.5708;
#X obj 63 79 t b b b b f;
#X msg 506 115 0.8;
#X obj 881 475 outlet;
#X obj 942 476 outlet;
#X obj 815 473 outlet;
#X text 816 497 real3;
#X text 881 497 imag3a;
#X text 941 498 imag3b;
#X obj 262 497 outlet;
#X obj 261 469 expr (($f2-$f1)*($f2-$f1)+$f3*$f3);
#X text 259 519 normalizer3;
#X obj 63 412 t f f f;
#X connect 0 0 48 0;
#X connect 1 0 25 1;
#X connect 1 0 26 1;
#X connect 1 0 27 1;
#X connect 1 0 45 1;
#X connect 1 0 46 1;
#X connect 2 0 25 0;
#X connect 2 1 26 0;
#X connect 3 0 27 0;
#X connect 4 0 38 0;
#X connect 5 0 38 0;
#X connect 6 0 9 1;
#X connect 7 0 18 0;
#X connect 8 0 14 0;
#X connect 8 0 24 2;
#X connect 8 1 7 0;
#X connect 9 0 59 0;
#X connect 24 0 22 0;
#X connect 25 0 20 0;
#X connect 25 0 24 1;
#X connect 26 0 8 0;
#X connect 27 0 13 0;
#X connect 27 0 37 1;
#X connect 28 0 29 0;
#X connect 29 0 1 0;
#X connect 30 0 2 0;
#X connect 37 0 10 0;
#X connect 38 0 6 0;
#X connect 41 0 30 0;
#X connect 42 0 45 0;
#X connect 42 1 46 0;
#X connect 43 0 51 0;
#X connect 44 0 57 2;
#X connect 44 0 50 0;
#X connect 44 1 43 0;
#X connect 45 0 57 1;
#X connect 45 0 52 0;
#X connect 46 0 44 0;
#X connect 47 0 42 0;
#X connect 48 0 9 0;
#X connect 48 1 3 0;
#X connect 48 2 41 0;
#X connect 48 3 49 0;
#X connect 48 4 28 0;
#X connect 49 0 47 0;
#X connect 57 0 56 0;
#X connect 59 0 37 0;
#X connect 59 1 24 0;
#X connect 59 2 57 0;
