#N canvas 257 45 674 718 10;
#X obj 47 291 rpole~;
#X obj 47 369 cpole~;
#X obj 72 396 cpole~;
#X msg 475 368 clear;
#X obj 129 57 loadbang;
#X obj 173 104 samplerate~;
#X obj 173 125 / 2;
#X obj 129 147 / 22050;
#X obj 129 105 f \$1;
#X obj 129 125 t f b;
#X obj 137 78 inlet;
#X obj 52 50 inlet~;
#X obj 475 96 inlet;
#X obj 176 610 outlet~;
#X text 52 29 audio;
#X text 477 73 clear;
#X text 135 37 hp freq;
#X text 231 21 5-pole \, 5-zero butterworth low-pass filter;
#X obj 47 267 *~ 1;
#X obj 47 346 *~ 1;
#X obj 176 587 *~ 0.03125;
#X obj 150 490 cpole~;
#X obj 175 517 cpole~;
#X obj 119 467 *~ 1;
#X floatatom 293 249 5 0 0 0 - - -;
#X floatatom 334 251 5 0 0 0 - - -;
#X floatatom 377 252 5 0 0 0 - - -;
#X obj 175 542 rzero~ 1;
#X obj 175 563 rzero~ 1;
#X obj 72 442 rzero~ 1;
#X obj 72 421 rzero~ 1;
#X obj 48 317 rzero~ 1;
#X obj 385 509 env~ 8192;
#X floatatom 385 532 5 0 0 0 - - -;
#X obj 129 172 buttercoef5 1 ----;
#X connect 0 0 31 0;
#X connect 1 0 2 0;
#X connect 1 1 2 1;
#X connect 2 0 30 0;
#X connect 3 0 0 0;
#X connect 3 0 1 0;
#X connect 3 0 2 0;
#X connect 3 0 21 0;
#X connect 3 0 22 0;
#X connect 3 0 27 0;
#X connect 3 0 28 0;
#X connect 3 0 29 0;
#X connect 3 0 30 0;
#X connect 3 0 31 0;
#X connect 4 0 8 0;
#X connect 5 0 6 0;
#X connect 6 0 7 1;
#X connect 7 0 34 0;
#X connect 8 0 9 0;
#X connect 9 0 7 0;
#X connect 9 1 5 0;
#X connect 10 0 8 0;
#X connect 11 0 18 0;
#X connect 12 0 3 0;
#X connect 18 0 0 0;
#X connect 19 0 1 0;
#X connect 20 0 13 0;
#X connect 21 0 22 0;
#X connect 21 1 22 1;
#X connect 22 0 27 0;
#X connect 23 0 21 0;
#X connect 27 0 28 0;
#X connect 28 0 20 0;
#X connect 29 0 23 0;
#X connect 30 0 29 0;
#X connect 31 0 19 0;
#X connect 32 0 33 0;
#X connect 34 0 18 1;
#X connect 34 1 19 1;
#X connect 34 2 23 1;
#X connect 34 3 0 1;
#X connect 34 4 2 2;
#X connect 34 4 1 2;
#X connect 34 5 1 3;
#X connect 34 6 2 3;
#X connect 34 7 21 2;
#X connect 34 7 22 2;
#X connect 34 7 24 0;
#X connect 34 8 21 3;
#X connect 34 8 25 0;
#X connect 34 9 22 3;
#X connect 34 9 26 0;
