#N canvas 120 32 810 642 10;
#X obj 391 507 *~;
#X msg 104 419 set \$1;
#X obj 154 563 *~;
#X msg 201 42 bang;
#X obj 201 72 delay 5;
#X obj 289 95 unpack 0 0 0 0 0 0 0;
#X obj 426 184 f;
#X obj 367 161 f;
#X obj 309 161 f;
#X obj 278 161 f;
#X obj 247 161 f;
#X obj 185 146 f;
#X obj 185 169 mtof;
#X obj 185 192 / 261.62;
#X obj 399 161 delay;
#X obj 247 303 pack 0 0 0 0 0;
#X obj 201 95 t b b b;
#X obj 309 210 + 1;
#X msg 55 338 0 5;
#X msg 253 337 \$5;
#X obj 289 72 inlet;
#X text 561 53 ARGUMENTS FOR NOTES:;
#X text 561 147 sample number;
#X text 561 123 duration (msec);
#X text 561 171 start location (msec);
#X text 561 195 rise time (msec);
#X text 561 219 decay time (msec);
#X obj 45 423 vline~;
#X obj 391 396 vline~;
#X obj 463 375 vline~;
#X obj 154 586 throw~ sampsum-l;
#X obj 104 395 makefilename samplel%d;
#X msg 242 422 set \$1;
#X obj 242 398 makefilename sampler%d;
#X obj 104 461 tabread4~ samplel1;
#X obj 233 461 tabread4~ sampler1;
#X obj 276 567 *~;
#X obj 276 590 throw~ sampsum-r;
#X obj 363 332 expr $f1*$f1* $f1*$f1/6.25e6, f 14;
#X obj 363 368 pack 0 5;
#X text 561 99 amplitude (quartic \, 50=unity);
#X text 561 75 transpose in halftones (60=original);
#X obj 185 215 * 4.8e+08;
#X obj 12 95 f;
#X msg 458 332 0.5 \, 0 \$2;
#X msg 555 330 0.5 \$1;
#X obj 463 398 cos~;
#X obj 463 421 +~ 1;
#X obj 463 444 *~ 0.5;
#X obj 309 187 * 48;
#X obj 26 161 / 1000;
#X msg 161 338 0 \, \$4 1e+07;
#X msg 280 340 \$3;
#X obj 12 72 r soundfile-sample-rate;
#X obj 10 192 * 10000;
#X connect 0 0 36 1;
#X connect 0 0 2 1;
#X connect 1 0 34 0;
#X connect 2 0 30 0;
#X connect 3 0 4 0;
#X connect 3 0 18 0;
#X connect 4 0 16 0;
#X connect 5 0 11 1;
#X connect 5 0 3 0;
#X connect 5 1 10 1;
#X connect 5 2 14 1;
#X connect 5 3 9 1;
#X connect 5 4 8 1;
#X connect 5 5 7 1;
#X connect 5 6 6 1;
#X connect 6 0 45 0;
#X connect 7 0 15 1;
#X connect 8 0 49 0;
#X connect 9 0 15 4;
#X connect 10 0 15 0;
#X connect 11 0 12 0;
#X connect 12 0 13 0;
#X connect 13 0 42 0;
#X connect 14 0 6 0;
#X connect 15 0 44 0;
#X connect 15 0 51 0;
#X connect 15 0 19 0;
#X connect 15 0 38 0;
#X connect 15 0 52 0;
#X connect 16 0 10 0;
#X connect 16 1 11 0;
#X connect 16 2 7 0;
#X connect 16 2 8 0;
#X connect 16 2 9 0;
#X connect 16 2 14 0;
#X connect 17 0 15 2;
#X connect 18 0 28 0;
#X connect 19 0 31 0;
#X connect 19 0 33 0;
#X connect 20 0 5 0;
#X connect 27 0 34 0;
#X connect 27 0 35 0;
#X connect 28 0 0 0;
#X connect 29 0 46 0;
#X connect 31 0 1 0;
#X connect 32 0 35 0;
#X connect 33 0 32 0;
#X connect 34 0 2 0;
#X connect 35 0 36 0;
#X connect 36 0 37 0;
#X connect 38 0 39 0;
#X connect 39 0 28 0;
#X connect 42 0 15 3;
#X connect 43 0 50 0;
#X connect 43 0 54 0;
#X connect 44 0 29 0;
#X connect 45 0 29 0;
#X connect 46 0 47 0;
#X connect 47 0 48 0;
#X connect 48 0 0 1;
#X connect 49 0 17 0;
#X connect 50 0 49 1;
#X connect 51 0 27 0;
#X connect 52 0 34 1;
#X connect 52 0 35 1;
#X connect 53 0 43 0;
#X connect 54 0 42 1;
