#N canvas 0 0 806 576 10;
#X msg 140 51 bang;
#X obj 140 74 delay 5;
#X obj 360 185 f;
#X obj 306 163 f;
#X obj 248 163 f;
#X obj 217 163 f;
#X obj 191 163 f;
#X obj 112 163 f;
#X obj 112 186 mtof;
#X obj 112 209 / 261.62;
#X obj 112 232 * 4.41e+08;
#X obj 112 255 +;
#X obj 333 163 delay;
#X obj 191 291 pack 0 0 0 0 0;
#X obj 140 97 t b b b;
#X obj 248 209 + 1;
#X obj 248 186 * 44.1;
#X obj 582 116 line~;
#X obj 598 259 line~;
#X obj 582 283 *~;
#X msg 592 173 set \$1;
#X obj 582 207 tabread4~ sample1;
#X obj 597 341 dbtorms;
#X obj 597 317 unpack;
#X obj 597 365 sqrt;
#X obj 597 389 sqrt;
#X obj 597 413 line~;
#X obj 582 486 *~;
#X obj 597 437 *~;
#X obj 597 461 *~;
#X msg 478 67 0 5;
#X msg 207 337 1 5;
#X msg 360 208 0 \$1;
#X msg 203 366 0 \, \$1 \$2;
#X msg 193 397 \$3 \, \$4 1e+07;
#X msg 182 427 \$5;
#X obj 228 74 inlet;
#X obj 592 149 makefilename sample%d;
#X obj 397 160 f;
#X obj 228 97 unpack 0 0 0 0 0 0 0 0;
#X text 233 27 inlet: pitch amplitude duration sample-number onset
rise-time decay-time pan;
#X obj 540 445 *;
#X obj 480 444 1;
#X obj 508 444 2;
#X obj 514 467 *;
#X obj 516 417 t b f f;
#X obj 538 494 -;
#X obj 516 369 - 1;
#X obj 516 391 * 0.125;
#X obj 547 525 *~ 0;
#X obj 582 526 *~ 0;
#X obj 514 493 -;
#X obj 476 554 throw~ out-left;
#X obj 618 554 throw~ out-right;
#X obj 546 65 r reset;
#X obj 34 68 r reset;
#X msg 33 91 stop;
#X connect 0 0 1 0;
#X connect 0 0 30 0;
#X connect 1 0 14 0;
#X connect 2 0 32 0;
#X connect 3 0 13 1;
#X connect 4 0 16 0;
#X connect 5 0 13 4;
#X connect 6 0 13 0;
#X connect 7 0 8 0;
#X connect 8 0 9 0;
#X connect 9 0 10 0;
#X connect 10 0 11 0;
#X connect 11 0 13 3;
#X connect 12 0 2 0;
#X connect 13 0 31 0;
#X connect 13 0 33 0;
#X connect 13 0 34 0;
#X connect 13 0 35 0;
#X connect 14 0 6 0;
#X connect 14 1 7 0;
#X connect 14 2 3 0;
#X connect 14 2 4 0;
#X connect 14 2 5 0;
#X connect 14 2 12 0;
#X connect 14 2 38 0;
#X connect 15 0 13 2;
#X connect 15 0 11 1;
#X connect 16 0 15 0;
#X connect 17 0 21 0;
#X connect 18 0 19 1;
#X connect 19 0 27 0;
#X connect 20 0 21 0;
#X connect 21 0 19 0;
#X connect 22 0 24 0;
#X connect 23 0 22 0;
#X connect 23 1 26 1;
#X connect 24 0 25 0;
#X connect 25 0 26 0;
#X connect 26 0 28 0;
#X connect 26 0 28 1;
#X connect 27 0 49 0;
#X connect 27 0 50 0;
#X connect 28 0 29 0;
#X connect 28 0 29 1;
#X connect 29 0 27 1;
#X connect 30 0 18 0;
#X connect 31 0 18 0;
#X connect 32 0 23 0;
#X connect 33 0 23 0;
#X connect 34 0 17 0;
#X connect 35 0 37 0;
#X connect 36 0 39 0;
#X connect 37 0 20 0;
#X connect 38 0 47 0;
#X connect 39 0 7 1;
#X connect 39 0 0 0;
#X connect 39 1 6 1;
#X connect 39 2 12 1;
#X connect 39 3 5 1;
#X connect 39 4 4 1;
#X connect 39 5 3 1;
#X connect 39 6 2 1;
#X connect 39 7 38 1;
#X connect 41 0 46 1;
#X connect 41 0 51 1;
#X connect 42 0 51 0;
#X connect 43 0 44 0;
#X connect 44 0 46 0;
#X connect 45 0 43 0;
#X connect 45 0 42 0;
#X connect 45 1 41 0;
#X connect 45 1 44 1;
#X connect 45 2 41 1;
#X connect 46 0 50 1;
#X connect 47 0 48 0;
#X connect 48 0 45 0;
#X connect 49 0 52 0;
#X connect 50 0 53 0;
#X connect 51 0 49 1;
#X connect 54 0 30 0;
#X connect 55 0 56 0;
#X connect 56 0 1 0;
#X connect 56 0 12 0;
